<svg width="1260" height="276" viewBox="0 0 1260 276" fill="none" xmlns="http://www.w3.org/2000/svg">
<path d="M1140.32 139.097L1142.52 110.597L1103.12 138.297V162.997L1105.42 189.997L1120.72 188.197L1147.42 157.797L1140.32 139.097Z" fill="#FFC7B1"/>
<path d="M1142.52 110.597C1141.42 132.597 1117.72 151.997 1103.22 153.897V138.297L1142.52 110.597Z" fill="#F09897"/>
<path d="M1072.42 231.996L1063.72 249.996H1025.82L1041.62 218.796L1072.42 231.996Z" fill="#FFC7B1"/>
<path d="M1025.82 249.996H1049.72L1037.02 227.878L1025.82 249.996Z" fill="#F09897"/>
<path d="M1153.62 156.197C1167.12 162.697 1181.12 168.097 1195.52 172.097C1197.82 172.697 1199.82 173.997 1201.42 175.797C1222.92 200.497 1241.82 225.197 1258.02 249.997H1077.72L1079.22 232.197C1061.82 234.397 1050.42 226.897 1039.62 216.897C1048.52 203.097 1056.22 188.397 1062.62 172.797C1064.32 168.697 1067.72 165.497 1071.92 164.097C1081.22 161.097 1090.02 157.897 1098.62 154.597L1110.92 188.297L1153.62 156.197Z" fill="#904FBE"/>
<path d="M1147.42 238.597L1166.92 191.697" stroke="#0D0E39" stroke-width="4" stroke-miterlimit="10" stroke-linecap="round" stroke-linejoin="round"/>
<path d="M1259.72 249.997C1262.02 244.797 1249.82 232.697 1239.92 221.697C1234.72 219.797 1227.92 219.197 1221.82 220.297C1213.62 221.497 1193.02 230.497 1185.02 230.497C1175.12 230.297 1166.12 228.197 1157.82 231.097C1154.52 232.297 1150.82 236.097 1147.42 238.397C1142.52 241.797 1137.22 244.297 1135.12 249.797H1259.72V249.997Z" fill="#FFC7B1"/>
<path d="M1204.22 225.597C1216.62 220.097 1228.72 217.497 1239.92 221.697L1203.42 177.997" stroke="#0D0E39" stroke-width="4" stroke-miterlimit="10" stroke-linecap="round" stroke-linejoin="round"/>
<path d="M1231.52 229.497C1222.72 222.697 1207.62 224.197 1207.62 224.197" stroke="#0D0E39" stroke-width="3" stroke-miterlimit="10" stroke-linecap="round" stroke-linejoin="round"/>
<path d="M1039.52 216.896C1050.42 227.796 1061.52 233.996 1078.12 232.196L1080.12 207.796" stroke="#0D0E39" stroke-width="4" stroke-miterlimit="10" stroke-linecap="round" stroke-linejoin="round"/>
<path d="M1072.82 168.097C1076.62 175.397 1078.72 182.697 1079.12 189.997" stroke="#0D0E39" stroke-width="3" stroke-miterlimit="10" stroke-linecap="round" stroke-linejoin="round"/>
<path d="M1194.22 175.197C1186.82 177.297 1182.92 182.397 1181.42 189.697" stroke="#0D0E39" stroke-width="3" stroke-miterlimit="10" stroke-linecap="round" stroke-linejoin="round"/>
<path d="M1178.82 199.197C1178.62 209.797 1180.82 211.597 1183.92 226.597" stroke="#0D0E39" stroke-width="3" stroke-miterlimit="10" stroke-linecap="round" stroke-linejoin="round"/>
<path d="M1103.82 143.566L1110.82 184.284C1121.82 173.731 1137.62 157.304 1140.72 137.095C1140.82 136.697 1141.22 136.597 1141.42 136.995C1146.62 145.557 1152.12 153.72 1158.02 161.585C1159.12 162.979 1159.42 164.871 1158.82 166.563C1155.52 176.12 1152.42 189.56 1148.42 202.303C1147.52 205.091 1144.32 206.584 1141.62 205.29L1120.72 195.832C1115.16 193.027 1108.37 219.56 1103.22 249.99H1098.41L1105.42 196.629C1101.72 198.62 1097.42 200.312 1092.72 201.806C1089.52 202.801 1086.32 200.611 1085.92 197.326C1083.92 177.614 1089.12 159.594 1101.52 143.168C1102.22 142.172 1103.62 142.471 1103.82 143.566Z" fill="#0D0E39"/>
<circle r="3" transform="matrix(-1 0 0 1 1111.79 192.997)" fill="white"/>
<circle r="3" transform="matrix(-1 0 0 1 1116.08 227.775)" fill="white"/>
<path d="M1110.82 184.497C1125.82 170.997 1136.82 155.497 1141.42 136.997" stroke="white" stroke-width="3" stroke-miterlimit="10" stroke-linecap="round" stroke-linejoin="round"/>
<path d="M1052.02 53.9966C1012.72 147.897 1119.72 175.797 1144.32 111.397C1155.62 115.097 1174.42 93.9966 1166.32 85.8966L1161.52 67.7966L1066.02 30.9966L1052.02 53.9966Z" fill="#FFC7B1"/>
<path d="M1150.42 92.4966C1152.82 89.0966 1155.62 87.3966 1159.42 89.0966" stroke="#0D0E39" stroke-width="2.1016" stroke-miterlimit="10" stroke-linecap="round" stroke-linejoin="round"/>
<path d="M1052.52 68.7965C1056.22 66.6965 1062.42 65.7965 1065.72 69.2965" stroke="#6B3A52" stroke-width="2.1016" stroke-miterlimit="10" stroke-linecap="round" stroke-linejoin="round"/>
<path d="M1089.12 73.2966C1094.52 71.6966 1101.82 73.1966 1106.92 78.6966" stroke="#6B3A52" stroke-width="2.1016" stroke-miterlimit="10" stroke-linecap="round" stroke-linejoin="round"/>
<path d="M1066.12 85.797C1066.02 88.197 1065.52 90.297 1064.72 91.997C1059.62 89.397 1055.62 91.897 1055.62 91.897C1054.92 90.097 1054.52 87.897 1054.62 85.497C1054.82 79.797 1057.52 75.197 1060.62 75.297C1063.82 75.397 1066.32 80.097 1066.12 85.797Z" fill="white"/>
<path d="M1064.35 84.0564C1064.64 82.5029 1063.86 81.06 1062.62 80.8335C1061.37 80.607 1060.14 81.6827 1059.85 83.2361C1059.57 84.7895 1060.35 86.2325 1061.59 86.459C1062.83 86.6855 1064.07 85.6098 1064.35 84.0564Z" fill="#6B3A52"/>
<path d="M1053.02 93.2969C1057.22 89.9969 1063.12 89.5969 1065.72 94.0969" stroke="#F09897" stroke-width="3.1525" stroke-miterlimit="10" stroke-linecap="round" stroke-linejoin="round"/>
<path d="M1100.62 90.9969C1100.12 93.0969 1099.22 95.0969 1098.22 96.5969C1098.22 96.5969 1094.22 93.7969 1086.52 95.4969C1085.92 93.1969 1085.82 90.4969 1086.52 87.5969C1088.02 81.3969 1092.42 76.9969 1096.32 77.9969C1100.22 78.9969 1102.12 84.7969 1100.62 90.9969Z" fill="white"/>
<path d="M1098.73 87.2995C1099.08 85.3978 1098.12 83.6315 1096.6 83.3542C1095.08 83.0769 1093.57 84.3938 1093.22 86.2955C1092.87 88.1972 1093.83 89.9635 1095.35 90.2408C1096.87 90.5181 1098.38 89.2012 1098.73 87.2995Z" fill="#6B3A52"/>
<path d="M1083.32 96.097C1091.02 93.797 1096.92 94.797 1101.12 99.197" stroke="#F09897" stroke-width="3.1525" stroke-miterlimit="10" stroke-linecap="round" stroke-linejoin="round"/>
<path d="M1074.72 83.9966C1073.92 92.6966 1071.02 100.197 1066.62 104.897C1071.62 107.497 1076.22 107.897 1076.22 107.897" stroke="#F09897" stroke-width="3.1525" stroke-miterlimit="10" stroke-linecap="round" stroke-linejoin="round"/>
<path d="M1080.6 122.596C1089.1 124.096 1096 120.796 1101.1 112.296" stroke="#E5577A" stroke-width="3.1525" stroke-miterlimit="10" stroke-linecap="round" stroke-linejoin="round"/>
<path d="M1098.1 108.997C1100.6 110.697 1102.6 112.797 1104 115.397" stroke="#E5577A" stroke-width="2.5" stroke-miterlimit="10" stroke-linecap="round" stroke-linejoin="round"/>
<path d="M1118.32 59.5964C1122.12 79.1964 1122.42 96.9964 1114.42 121.996C1113.62 124.496 1115.42 127.096 1118.12 127.196C1128.42 127.496 1151.62 126.596 1171.32 115.496C1173.02 114.596 1174.12 112.896 1174.32 110.996C1178.02 76.2964 1163.72 14.9964 1112.12 11.1964C1076.12 8.59641 1059.92 25.8964 1059.92 25.8964C1035.92 50.0964 1042.72 76.4964 1028.02 93.9964C1026.72 95.4964 1026.82 97.7964 1028.22 99.2964C1032.92 104.396 1040.22 109.196 1046.62 111.996C1041.12 92.4964 1043.52 72.6964 1052.82 55.5964C1052.82 55.5964 1056.42 62.7964 1064.72 51.1964C1065.02 52.6964 1065.42 53.8964 1065.62 54.7964C1065.92 55.7964 1066.72 56.6964 1067.72 57.0964C1083.22 63.9964 1100.32 63.9964 1118.32 59.5964Z" fill="#802916"/>
<path d="M1126.62 25.4966C1147.22 33.8966 1157.72 61.9966 1159.82 89.4966" stroke="white" stroke-width="4" stroke-miterlimit="10" stroke-linecap="round" stroke-linejoin="round"/>
<path d="M1117.22 30.897C1133.95 42.8292 1143.22 77.897 1137.02 108.997" stroke="white" stroke-width="1.61" stroke-miterlimit="10" stroke-linecap="round" stroke-linejoin="round"/>
<path d="M1114.82 56.2964C1115.12 51.0964 1111.42 43.2964 1107.62 35.2964" stroke="white" stroke-width="1.6094" stroke-miterlimit="10" stroke-linecap="round" stroke-linejoin="round"/>
<path d="M1103.62 51.2966C1101.62 48.2966 1099.42 45.6966 1097.22 43.6966C1096.92 43.3966 1096.42 43.5966 1096.32 44.0966C1095.92 51.7966 1092.72 51.2966 1087.72 44.9966C1087.52 44.7966 1087.22 44.8966 1087.22 45.1966C1086.72 54.1966 1083.12 50.8966 1074.12 39.4966" stroke="white" stroke-width="1.6094" stroke-miterlimit="10" stroke-linecap="round" stroke-linejoin="round"/>
<path d="M1070.22 35.5967C1068.62 40.2967 1068.72 46.1967 1070.22 53.1967" stroke="white" stroke-width="1.6094" stroke-miterlimit="10" stroke-linecap="round" stroke-linejoin="round"/>
<path d="M1012.57 275.997L994.753 218.718C985.161 215.52 969.083 198.163 981.324 186.835C982.694 181.537 985.983 179.344 990.916 179.801L980.502 158.972C979.223 156.506 980.228 153.491 982.694 152.212C985.07 150.933 988.084 151.755 989.455 154.039L1001.42 173.771L999.869 151.481C999.686 148.558 1001.88 146.091 1004.8 146H1004.89C1007.45 145.909 1009.64 147.736 1010.01 150.202L1014.85 177.334C1029.69 175.828 1024.88 202.911 1020.24 209.4L1051.09 275.997H1012.57Z" fill="#FFC7B1"/>
<path d="M990.916 179.801C997.22 189.942 1003.61 200.082 998.499 202.731C993.018 205.198 981.416 186.836 981.416 186.836" stroke="#F09897" stroke-width="2.5" stroke-miterlimit="10" stroke-linecap="round" stroke-linejoin="round"/>
<path d="M988.633 196.61C996.58 210.039 988.815 213.419 980.411 200.903" stroke="#F09897" stroke-width="2.5" stroke-miterlimit="10" stroke-linecap="round" stroke-linejoin="round"/>
<path d="M1014.94 177.334C1006.63 176.786 1002.79 180.532 1003.34 192.316C1003.34 192.316 1003.71 200.812 1008.18 200.812C1015.67 200.812 1013.94 188.662 1013.94 188.662" stroke="#F09897" stroke-width="2.5" stroke-miterlimit="10" stroke-linecap="round" stroke-linejoin="round"/>
<path d="M120.689 139.265L118.471 110.425L158.101 138.459V163.265L155.883 190.593L140.454 188.677L113.529 158.122L120.689 139.265Z" fill="#FFC7B1"/>
<path d="M118.471 110.425C119.58 132.61 143.479 154.173 158.101 156.089V138.358L118.471 110.425Z" fill="#F09897"/>
<path d="M189.16 232.946L197.832 250.997H236.051L220.118 219.535L189.16 232.946Z" fill="#FFC7B1"/>
<path d="M107.176 156.408C93.5629 162.963 79.4452 168.408 64.9241 172.442C62.6048 173.047 60.588 174.358 58.9745 176.173C37.2938 201.08 18.2349 225.988 1.89868 250.996H183.714L181.193 233.047C198.74 235.265 211.244 227.702 222.135 217.618C213.16 203.702 205.395 188.879 198.941 173.147C197.227 169.013 193.799 165.786 189.563 164.374C180.185 161.349 171.311 158.122 162.639 154.794L150.336 188.778L107.176 156.408Z" fill="#F69B36"/>
<path d="M113.529 239.501L93.8654 192.307" stroke="#0D0E39" stroke-width="4" stroke-miterlimit="10" stroke-linecap="round" stroke-linejoin="round"/>
<path d="M0.285103 250.997C-2.03423 245.753 10.2683 233.551 20.2516 222.459C25.4953 220.543 32.3524 219.938 38.5037 221.047C46.7727 222.257 67.5458 231.333 75.6131 231.333C85.5963 231.131 94.672 229.013 103.042 231.938C106.37 233.148 110.101 236.98 113.529 239.299C118.47 242.728 123.815 245.249 125.933 250.795H0.285103V250.997Z" fill="#FFC7B1"/>
<path d="M56.2519 226.492C43.7476 220.946 31.5459 218.324 20.2517 222.56L57.0586 178.492" stroke="#0D0E39" stroke-width="4" stroke-miterlimit="10" stroke-linecap="round" stroke-linejoin="round"/>
<path d="M28.6212 230.324C37.4952 223.467 52.7222 224.98 52.7222 224.98" stroke="#0D0E39" stroke-width="3" stroke-miterlimit="10" stroke-linecap="round" stroke-linejoin="round"/>
<path d="M222.336 217.618C211.345 228.61 198.135 234.862 181.395 233.047V208.442" stroke="#0D0E39" stroke-width="4" stroke-miterlimit="10" stroke-linecap="round" stroke-linejoin="round"/>
<path d="M188.656 168.408C184.824 175.77 182.706 183.131 182.303 190.492" stroke="#0D0E39" stroke-width="3" stroke-miterlimit="10" stroke-linecap="round" stroke-linejoin="round"/>
<path d="M66.336 175.568C73.7983 177.686 77.731 182.828 79.2437 190.19" stroke="#0D0E39" stroke-width="3" stroke-miterlimit="10" stroke-linecap="round" stroke-linejoin="round"/>
<path d="M81.7646 199.77C81.9663 210.459 79.7478 212.274 76.6217 227.4" stroke="#0D0E39" stroke-width="3" stroke-miterlimit="10" stroke-linecap="round" stroke-linejoin="round"/>
<path d="M157.395 143.702C157.402 160.764 155.932 169.813 150.336 184.946C139.244 174.257 123.311 157.618 120.185 137.147C120.084 136.744 119.681 136.643 119.479 137.046C114.235 145.719 108.689 153.988 102.74 161.954C101.63 163.366 101.328 165.282 101.933 166.996C105.261 176.677 108.387 190.29 112.42 203.198C113.328 206.021 116.555 207.534 119.278 206.223L140.454 196.643L142.975 231.332C143.177 234.055 147.009 234.358 147.715 231.736C150.336 221.652 153.059 209.853 155.883 197.45C159.614 199.467 163.95 201.181 168.689 202.694C171.916 203.702 175.143 201.484 175.547 198.156C177.563 178.189 172.32 159.937 159.815 143.298C159.009 142.29 157.597 142.693 157.395 143.702Z" fill="#904FBE"/>
<circle cx="148.511" cy="195.337" r="3" fill="white"/>
<path d="M150.336 184.946C135.21 171.332 124.117 155.702 119.479 137.046" stroke="white" stroke-width="3" stroke-miterlimit="10" stroke-linecap="round" stroke-linejoin="round"/>
<path d="M209.63 53.3491C249.261 148.039 141.361 176.173 116.554 111.232C105.159 114.963 86.2013 93.6854 94.3694 85.5173L99.2097 67.2651L195.513 30.1558L209.63 53.3491Z" fill="#FFC7B1"/>
<path d="M218.303 54.2564C218.303 70.6934 215.177 64.4413 209.429 56.5757C209.429 56.5757 207.21 57.7858 205.496 57.5841C203.782 57.3825 196.521 47.2984 196.521 47.2984C195.311 45.6849 192.79 46.29 192.79 48.4076V58.9959C192.79 60.0043 192.084 60.811 191.176 61.0127L175.244 64.9455C174.538 65.1472 173.731 64.8447 173.227 64.3405L165.26 55.6682L169.092 64.0379C169.697 65.248 168.992 66.6598 167.681 66.9623L153.361 70.5926C152.655 70.7943 151.949 70.5926 151.445 70.0884L144.386 63.4329C142.269 61.4161 139.647 63.4329 140.655 65.6514L142.874 69.9875C143.075 70.4917 142.975 71.0968 142.47 71.3993C132.891 77.2481 123.21 85.0128 123.311 101.45C123.311 104.374 119.176 104.273 119.176 101.45C119.176 87.8363 103.546 76.1388 94.4702 85.517C80.9576 49.416 104.353 18.4579 125.529 10.2898C122.806 7.56714 118.168 8.37387 114.437 8.17219C113.529 8.07135 113.126 6.9621 113.731 6.35706C117.563 2.62595 124.42 3.43268 128.252 7.16378C128.252 7.16378 129.563 0.00409222 132.79 1.11334C135.412 2.22259 132.487 7.06294 132.487 7.06294C168.185 -3.92869 207.513 13.3151 219.412 49.7186C220.219 52.1387 220.017 53.853 218.303 54.2564Z" fill="#0D0E39"/>
<path d="M110.504 92.1724C108.084 88.7438 105.26 87.0295 101.428 88.7438" stroke="#F09897" stroke-width="2.1016" stroke-miterlimit="10" stroke-linecap="round" stroke-linejoin="round"/>
<path d="M209.126 68.3741C205.395 66.2564 199.143 65.3489 195.815 68.8783" stroke="#6B3A52" stroke-width="2.1016" stroke-miterlimit="10" stroke-linecap="round" stroke-linejoin="round"/>
<path d="M172.319 72.811C166.874 71.1975 159.513 72.7101 154.37 78.2564" stroke="#6B3A52" stroke-width="2.1016" stroke-miterlimit="10" stroke-linecap="round" stroke-linejoin="round"/>
<path d="M195.412 85.4158C195.513 87.836 196.017 89.9537 196.824 91.668C202.067 89.0461 206 91.4663 206 91.4663C206.706 89.6511 207.109 87.4326 207.009 85.0125C206.807 79.2645 204.084 74.6259 200.958 74.7267C197.731 74.9284 195.311 79.6679 195.412 85.4158Z" fill="white"/>
<path d="M197.966 82.6452C197.683 81.0918 198.461 79.6489 199.704 79.4224C200.946 79.1958 202.183 80.2715 202.466 81.825C202.75 83.3784 201.972 84.8213 200.729 85.0478C199.486 85.2744 198.249 84.1987 197.966 82.6452Z" fill="#6B3A52"/>
<path d="M208.622 92.9793C204.387 89.6516 198.437 89.2482 195.815 93.7861" stroke="#F09897" stroke-width="3.1525" stroke-miterlimit="10" stroke-linecap="round" stroke-linejoin="round"/>
<path d="M160.622 90.7607C161.126 92.8783 162.033 94.8951 163.042 96.4077C163.042 96.4077 167.075 93.5842 174.84 95.2985C175.445 92.9792 175.546 90.2565 174.84 87.3321C173.328 81.08 168.891 76.643 164.958 77.6514C161.025 78.6598 159.109 84.4077 160.622 90.7607Z" fill="white"/>
<path d="M163.17 86.6687C162.82 84.751 163.781 82.9698 165.315 82.6902C166.849 82.4106 168.376 83.7385 168.726 85.6562C169.075 87.5738 168.115 89.3551 166.581 89.6347C165.046 89.9143 163.519 88.5864 163.17 86.6687Z" fill="#6B3A52"/>
<path d="M178.067 95.8024C170.303 93.483 164.353 94.4915 160.118 98.9284" stroke="#F09897" stroke-width="3.1525" stroke-miterlimit="10" stroke-linecap="round" stroke-linejoin="round"/>
<path d="M188.857 84.7104C189.664 93.4836 192.588 101.047 197.025 105.786C191.983 108.408 187.345 108.811 187.345 108.811" stroke="#F09897" stroke-width="3.1525" stroke-miterlimit="10" stroke-linecap="round" stroke-linejoin="round"/>
<path d="M182.097 124.025C173.597 125.525 166.697 122.225 161.597 113.725" stroke="#E5577A" stroke-width="3.1525" stroke-miterlimit="10" stroke-linecap="round" stroke-linejoin="round"/>
<path d="M164.597 110.425C162.097 112.125 160.097 114.225 158.697 116.825" stroke="#E5577A" stroke-width="2.5" stroke-miterlimit="10" stroke-linecap="round" stroke-linejoin="round"/>
<path d="M113.731 28.542C109.798 31.9706 106.672 36.3067 104.454 41.5504" stroke="white" stroke-width="3.6779" stroke-miterlimit="10" stroke-linecap="round" stroke-linejoin="round"/>
<path d="M186.135 54.6595C182.404 44.4745 175.244 34.2896 164.555 24.2056" stroke="white" stroke-width="1.5762" stroke-miterlimit="10" stroke-linecap="round" stroke-linejoin="round"/>
<path d="M176.151 53.853C173.63 48.0043 169.899 42.5589 164.958 37.6177" stroke="white" stroke-width="1.5762" stroke-miterlimit="10" stroke-linecap="round" stroke-linejoin="round"/>
<path d="M157.798 63.8366C155.378 55.0634 152.151 46.9962 148.319 39.4331" stroke="white" stroke-width="1.5762" stroke-miterlimit="10" stroke-linecap="round" stroke-linejoin="round"/>
<mask id="mask0" mask-type="alpha" maskUnits="userSpaceOnUse" x="319" y="109" width="97" height="97">
<path d="M404.949 145.737C406.772 145.765 408.658 145.275 410.322 144.188C414.877 141.424 416.525 135.276 413.91 130.514C411.178 125.338 404.772 123.621 399.804 126.504C398.178 127.448 396.993 128.739 396.054 130.25C395.296 131.656 393.24 131.642 392.46 130.283L380.392 109.273L359.435 121.434C358.08 122.221 358.009 124.194 359.37 125.095C360.963 125.981 362.351 127.35 363.249 129.123C365.811 133.794 364.164 139.942 359.519 142.759C354.564 145.875 348.159 144.159 345.298 139.178C344.361 137.548 343.981 135.837 343.923 134.059C343.97 132.462 342.182 131.447 340.827 132.233L319.87 144.395L331.939 165.405C332.719 166.764 334.684 166.831 335.585 165.463C336.472 163.861 337.837 162.465 339.606 161.56C344.265 158.977 350.385 160.617 353.181 165.274C356.274 170.24 354.55 176.675 349.582 179.558C347.956 180.501 346.251 180.887 344.48 180.949C342.889 180.906 341.874 182.703 342.654 184.061L354.722 205.072L415.334 169.897L403.266 148.887C402.485 147.528 403.411 145.784 404.949 145.737Z" fill="#00BAC7"/>
</mask>
<g mask="url(#mask0)">
<path d="M404.949 145.737C406.772 145.765 408.658 145.275 410.322 144.188C414.877 141.424 416.525 135.276 413.91 130.514C411.178 125.338 404.772 123.621 399.804 126.504C398.178 127.448 396.993 128.739 396.054 130.25C395.296 131.656 393.24 131.642 392.46 130.283L380.392 109.273L359.435 121.434C358.08 122.221 358.009 124.194 359.37 125.095C360.963 125.981 362.351 127.35 363.249 129.123C365.811 133.794 364.164 139.942 359.519 142.759C354.564 145.875 348.159 144.159 345.298 139.178C344.361 137.548 343.981 135.837 343.923 134.059C343.97 132.462 342.182 131.447 340.827 132.233L319.87 144.395L331.939 165.405C332.719 166.764 334.684 166.831 335.585 165.463C336.472 163.861 337.837 162.465 339.606 161.56C344.265 158.977 350.385 160.617 353.181 165.274C356.274 170.24 354.55 176.675 349.582 179.558C347.956 180.501 346.251 180.887 344.48 180.949C342.889 180.906 341.874 182.703 342.654 184.061L354.722 205.072L415.334 169.897L403.266 148.887C402.485 147.528 403.411 145.784 404.949 145.737Z" fill="#F63C8F"/>
<path d="M318.565 160.593C333.442 150.385 338.715 143.13 340.287 126.283" stroke="white" stroke-width="1.5" stroke-linecap="round" stroke-linejoin="round"/>
<path d="M371.322 108.375C368.946 128.997 385.754 159.711 419.283 167.102" stroke="white" stroke-width="1.5" stroke-linecap="round" stroke-linejoin="round"/>
<path d="M412.723 155.706C399.16 163.875 394.54 179.849 399.493 198.497" stroke="white" stroke-width="1.5" stroke-linecap="round" stroke-linejoin="round"/>
<path d="M335.376 193.084C346.065 162.034 364.476 147.469 376.445 151.767C386.733 155.462 388.037 165.178 378.38 168.396C364.096 173.157 362.167 142.769 399.503 121.213" stroke="white" stroke-width="1.5" stroke-linecap="round" stroke-linejoin="round"/>
</g>
<path d="M334.085 240.397L348.285 159.797C348.385 159.197 347.885 158.597 347.285 158.597C316.685 159.597 278.385 153.297 233.185 153.797C231.285 153.797 229.685 155.397 229.685 157.297C229.385 176.697 226.285 212.297 223.385 240.297L334.085 240.397Z" fill="white"/>
<path d="M338.485 250.997L353.885 167.597C354.185 165.797 352.785 164.197 350.885 164.197C317.985 165.097 277.285 160.797 229.585 161.197C225.785 161.197 222.785 164.097 222.685 167.697C222.085 188.597 213.885 222.597 210.785 250.997H338.485Z" fill="white"/>
<path d="M341.485 250.997L356.885 163.897C357.185 161.997 355.785 160.297 353.885 160.397C320.985 161.297 280.285 156.897 232.585 157.197C228.785 157.197 225.785 160.297 225.685 163.997C225.085 185.797 218.885 221.297 215.785 250.997H341.485Z" fill="#C6C6C6"/>
<path d="M290.704 226.762C285.837 225.752 282.956 219.805 284.268 213.477C285.58 207.15 290.59 202.839 295.457 203.849C300.324 204.858 303.206 210.806 301.893 217.133C300.581 223.461 295.572 227.772 290.704 226.762Z" fill="white"/>
<path d="M284.885 199.797C280.585 202.997 277.585 207.597 276.785 214.297" stroke="#F63C8F" stroke-width="3" stroke-miterlimit="10" stroke-linecap="round" stroke-linejoin="round"/>
</svg>
