<svg width="336" height="302" viewBox="0 0 336 302" fill="none" xmlns="http://www.w3.org/2000/svg">
<path opacity="0.2" d="M160.6 301.072C185.437 301.072 205.571 296.418 205.571 290.676C205.571 284.934 185.437 280.279 160.6 280.279C135.763 280.279 115.629 284.934 115.629 290.676C115.629 296.418 135.763 301.072 160.6 301.072Z" fill="#00BAC7"/>
<path d="M108.025 141.062L101.966 121.579C98.703 120.491 93.2339 114.587 97.3978 110.734C97.864 108.931 98.9826 108.186 100.661 108.341L97.1182 101.256C96.6831 100.417 97.0249 99.3915 97.864 98.9565C98.6719 98.5214 99.6973 98.8011 100.163 99.5779L104.234 106.29L103.706 98.7079C103.644 97.7135 104.39 96.8745 105.384 96.8434H105.415C106.285 96.8123 107.031 97.4338 107.155 98.2728L108.802 107.502C113.849 106.989 112.214 116.202 110.636 118.409L121.13 141.062H108.025Z" fill="#FFC7B1"/>
<path d="M100.66 108.341C102.804 111.79 104.979 115.24 103.239 116.141C101.375 116.98 97.4283 110.734 97.4283 110.734" stroke="#F09897" stroke-width="0.844793" stroke-miterlimit="10" stroke-linecap="round" stroke-linejoin="round"/>
<path d="M99.8839 114.059C102.587 118.627 99.946 119.777 97.0872 115.519" stroke="#F09897" stroke-width="0.844793" stroke-miterlimit="10" stroke-linecap="round" stroke-linejoin="round"/>
<path d="M108.833 107.502C106.005 107.315 104.7 108.59 104.887 112.598C104.887 112.598 105.011 115.488 106.534 115.488C109.082 115.488 108.491 111.355 108.491 111.355" stroke="#F09897" stroke-width="0.844793" stroke-miterlimit="10" stroke-linecap="round" stroke-linejoin="round"/>
<path d="M138.708 104.895L149.276 99.5269L138.931 129.767L127.289 152.754C125.691 155.909 122.455 157.898 118.918 157.898C115.166 157.898 111.774 155.663 110.294 152.215L99.6225 127.351C99.21 126.39 99.4252 125.263 100.224 124.588C103.442 121.871 107.033 120.319 111.539 119.927C112.964 119.802 114.25 120.708 114.763 122.043L119.216 133.633L130.961 112.294C132.927 108.493 135.521 106.488 138.708 104.895Z" fill="#00BAC7"/>
<path d="M189.199 182.477L189.954 188.935C190.457 191.787 189.87 197.071 191.548 197.574C194.315 198.077 194.399 191.955 194.399 191.955C194.651 193.716 194.735 195.477 194.483 197.49C194.064 199 192.303 200.845 193.393 201.768C194.232 202.355 195.909 202.187 197.251 200.426C198.928 200.929 200.103 200.258 200.438 197.91C207.316 197.826 201.361 186.587 198.174 178.116L189.199 182.477Z" fill="#FFC7B1"/>
<path d="M163.617 99.5269L174.185 104.895C177.372 106.488 179.721 109.424 180.643 112.863C186.431 134.586 192.386 153.457 198.844 175.935C199.263 177.361 198.676 178.871 197.502 179.626C192.386 182.813 185.256 184.155 183.243 178.2L163.617 99.5269Z" fill="#00BAC7"/>
<path d="M191.546 197.574C194.146 198.245 194.565 193.884 193.727 189.271" stroke="#F09897" stroke-width="0.76456" stroke-miterlimit="10" stroke-linecap="round" stroke-linejoin="round"/>
<path d="M197.251 200.426C198.09 199 198.09 196.316 197.335 192.542" stroke="#F09897" stroke-width="0.76456" stroke-miterlimit="10" stroke-linecap="round" stroke-linejoin="round"/>
<path d="M200.101 192.206C200.521 193.8 200.689 196.316 200.437 197.993C203.205 197.909 203.54 195.896 203.121 192.541C202.869 189.438 200.521 184.825 198.508 179.122" stroke="#F09897" stroke-width="0.76456" stroke-miterlimit="10" stroke-linecap="round" stroke-linejoin="round"/>
<path d="M183.496 213.259L189.199 276.415H175.695L165.547 218.878V213.259H183.496Z" fill="#FFC7B1"/>
<path d="M165.547 213.259V218.878L166.264 222.947C171.935 222.767 174.601 222.024 177.65 218.568L183.897 217.706L183.496 213.259H165.547Z" fill="#F09897"/>
<path d="M186.012 240.601L189.2 276.415H175.696L169.657 242.279C173.683 243.704 182.07 243.285 186.012 240.601Z" fill="#F69B36"/>
<path d="M136.443 213.259L130.823 276.415H144.327L155.734 211.078L136.443 213.259Z" fill="#FFC7B1"/>
<path d="M136.443 213.259L155.733 211.078L154.112 220.362L150.142 219.825C145.649 222.747 142.195 222.67 135.676 221.876L136.443 213.259Z" fill="#F09897"/>
<path d="M134.01 240.601L130.823 276.415H144.327L150.366 242.279C146.34 243.704 137.952 243.285 134.01 240.601Z" fill="#F69B36"/>
<path d="M144.745 273.898L144.661 285.892C144.661 286.563 144.326 287.15 143.739 287.402C140.552 288.912 129.984 293.692 125.035 294.867C113.377 297.467 111.867 287.737 117.738 284.299C120.422 282.873 129.564 277.757 131.074 273.898C131.829 275.408 143.403 275.576 144.745 273.898Z" fill="#1B1D58"/>
<path d="M126.377 278.847C129.313 277.841 131.661 279.267 133.758 282.034" stroke="white" stroke-width="1.38257" stroke-miterlimit="10" stroke-linecap="round" stroke-linejoin="round"/>
<path d="M122.687 281.615C125.622 280.608 127.971 282.034 130.067 284.802" stroke="white" stroke-width="1.38257" stroke-miterlimit="10" stroke-linecap="round" stroke-linejoin="round"/>
<path d="M149.862 246.662C144.159 247.92 138.707 247.585 133.759 245.068" stroke="#1B1D58" stroke-width="1.03693" stroke-miterlimit="10" stroke-linecap="round" stroke-linejoin="round"/>
<path d="M134.765 179.961L130.152 213.678C130.068 214.265 130.319 214.852 130.823 215.271C134.849 218.291 145.92 220.807 150.03 215.691C153.72 216.613 157.075 216.613 159.843 215.104C162.023 220.388 174.017 220.555 176.533 214.349C181.146 214.013 185.508 213.091 189.45 211.245C190.54 210.742 191.127 209.568 190.876 208.394L184.166 177.612L134.765 179.961Z" fill="#904FBE"/>
<path d="M187.186 176.187C177.373 182.393 139.63 184.322 130.823 178.116C137.533 153.877 135.432 118.448 149.275 99.5269H163.618C177.373 118.482 177.457 153.457 187.186 176.187Z" fill="#00BAC7"/>
<path d="M163.619 99.946V95.333H149.276V99.946C149.276 108.249 163.619 108.501 163.619 99.946Z" fill="#FFC7B1"/>
<path d="M163.619 100.543V96.8423H149.276C149.276 96.8423 153.135 102.965 162.864 102.965C163.367 102.292 163.619 101.485 163.619 100.543Z" fill="#F09897"/>
<path d="M163.617 99.5269C176.366 106.237 178.714 105.23 182.321 118.985" stroke="black" stroke-width="1.38257" stroke-miterlimit="10" stroke-linecap="round" stroke-linejoin="round"/>
<path d="M140.104 85.2851C148.014 109.817 183.161 99.2144 170.504 63.4554L165.992 54.6543L140.396 61.2936L140.104 85.2851Z" fill="#FFC7B1"/>
<path d="M153.411 89.9517C156.976 90.5575 159.858 89.1943 161.982 85.6726" stroke="#E5577A" stroke-width="1.10605" stroke-miterlimit="10" stroke-linecap="round" stroke-linejoin="round"/>
<path d="M160.693 84.2715C161.755 84.991 162.59 85.8619 163.121 86.9222" stroke="#E5577A" stroke-width="1.10605" stroke-miterlimit="10" stroke-linecap="round" stroke-linejoin="round"/>
<path d="M145.713 70.3347C147.04 69.5773 149.316 69.0093 150.491 70.2968" stroke="#6B3A52" stroke-width="1.02291" stroke-miterlimit="10" stroke-linecap="round" stroke-linejoin="round"/>
<path d="M151.325 76.2439C151.325 77.077 151.135 77.8343 150.87 78.4402C148.746 77.6071 147.153 78.4781 147.153 78.4781C146.85 77.8722 146.66 77.1149 146.66 76.2818C146.66 74.2748 147.684 72.6843 148.974 72.6843C150.263 72.6843 151.287 74.2748 151.325 76.2439Z" fill="white"/>
<path d="M146.887 78.3644C148.29 77.5314 150.11 77.7964 151.058 78.4023" stroke="#F09897" stroke-width="1.1934" stroke-miterlimit="10" stroke-linecap="round" stroke-linejoin="round"/>
<path d="M153.942 75.7136C153.98 78.7809 153.335 81.9997 151.742 83.7037C153.525 84.6125 155.497 84.5747 155.497 84.5747" stroke="#F09897" stroke-width="1.1934" stroke-miterlimit="10" stroke-linecap="round" stroke-linejoin="round"/>
<path d="M149.08 76.3115C149.667 76.3115 150.142 75.8368 150.142 75.2512C150.142 74.6656 149.667 74.1909 149.08 74.1909C148.494 74.1909 148.019 74.6656 148.019 75.2512C148.019 75.8368 148.494 76.3115 149.08 76.3115Z" fill="#6B3A52"/>
<path d="M164.409 76.2839C164.409 77.117 164.219 77.8743 163.916 78.4802C161.64 77.6471 159.971 78.5181 159.971 78.5181C159.63 77.9122 159.44 77.1548 159.44 76.3217C159.44 74.3147 160.54 72.7243 161.906 72.7243C163.271 72.6864 164.409 74.2769 164.409 76.2839Z" fill="white"/>
<path d="M159.44 78.3665C160.919 77.647 163.385 78.1015 164.257 78.5937" stroke="#F09897" stroke-width="1.1934" stroke-miterlimit="10" stroke-linecap="round" stroke-linejoin="round"/>
<path d="M161.603 76.3972C162.189 76.3972 162.665 75.9225 162.665 75.3369C162.665 74.7513 162.189 74.2766 161.603 74.2766C161.016 74.2766 160.541 74.7513 160.541 75.3369C160.541 75.9225 161.016 76.3972 161.603 76.3972Z" fill="#6B3A52"/>
<path d="M166.078 71.0552C164.281 69.2129 161.754 68.4558 159.062 70.1126" stroke="#6B3A52" stroke-width="1.02291" stroke-miterlimit="10" stroke-linecap="round" stroke-linejoin="round"/>
<path d="M137.621 78.0779C136.72 76.7612 135.612 76.1375 134.156 76.7612" stroke="black" stroke-width="0.798295" stroke-miterlimit="10" stroke-linecap="round" stroke-linejoin="round"/>
<path d="M141.503 65.5344C140.048 73.0189 139.285 79.741 142.265 89.3045C142.542 90.2747 141.998 91.4211 140.879 91.3142C137.62 91.0028 134.367 90.0222 129.652 86.879C129.029 86.4632 128.613 85.8395 128.544 85.1465C127.158 71.9101 132.563 48.6252 152.244 47.1699C165.897 46.1997 172.064 52.7832 172.064 52.7832C181.212 62.0001 184.123 79.4458 184.192 83.4832C184.192 83.4832 184.261 85.0658 183.706 85.6202C182.339 87.0927 176.502 88.971 172.706 90.2757C171.593 90.6583 170.372 89.5703 170.601 88.4159C172.116 80.7941 172.334 69.744 169.223 64.0098C169.223 64.0098 168.53 66.7126 165.411 62.3466C165.273 62.901 165.134 63.3861 165.065 63.7326C164.926 64.1484 164.649 64.4256 164.233 64.6335C158.343 67.267 148.364 67.267 141.503 65.5344Z" fill="#802916"/>
<path d="M146.701 52.5757C131.39 60.2101 134.344 82.8643 134.344 82.8643" stroke="white" stroke-width="0.611303" stroke-miterlimit="10" stroke-linecap="round" stroke-linejoin="round"/>
<path d="M150.234 54.6543C147.805 56.5541 145.843 59.3974 144.434 62.8107" stroke="white" stroke-width="0.77569" stroke-miterlimit="10" stroke-linecap="round" stroke-linejoin="round"/>
<path d="M151.135 63.7369C151.564 60.6299 152.171 58.9412 153.907 56.3176" stroke="white" stroke-width="0.611303" stroke-miterlimit="10" stroke-linecap="round" stroke-linejoin="round"/>
<path d="M155.431 62.4159C156.111 60.9318 156.852 59.5406 157.594 58.5203C157.718 58.3348 157.903 58.5203 157.903 58.7058C158.027 62.6014 159.14 62.4159 160.809 59.1695C160.871 59.0768 160.994 59.0768 160.994 59.2623C161.18 63.8072 162.416 62.1376 165.445 56.387" stroke="white" stroke-width="0.611303" stroke-miterlimit="10" stroke-linecap="round" stroke-linejoin="round"/>
<path d="M169.499 55.001C169.499 55.001 179.284 64.4619 178.24 80.8512" stroke="white" stroke-width="0.611303" stroke-miterlimit="10" stroke-linecap="round" stroke-linejoin="round"/>
<path d="M149.946 215.69L151.121 195.142" stroke="black" stroke-width="1.38257" stroke-miterlimit="10" stroke-linecap="round" stroke-linejoin="round"/>
<path d="M159.76 215.104L159.005 187.006" stroke="black" stroke-width="1.38257" stroke-miterlimit="10" stroke-linecap="round" stroke-linejoin="round"/>
<path d="M176.534 214.348L173.85 189.103" stroke="black" stroke-width="1.38257" stroke-miterlimit="10" stroke-linecap="round" stroke-linejoin="round"/>
<path d="M149.276 99.5269C148.773 107.579 161.018 109.088 163.534 100.785" stroke="white" stroke-width="1.38257" stroke-miterlimit="10" stroke-linecap="round" stroke-linejoin="round"/>
<path d="M175.276 273.898L175.36 285.892C175.36 286.563 175.696 287.15 176.283 287.402C179.47 288.912 190.038 293.692 194.987 294.867C206.645 297.551 208.071 287.737 202.2 284.299C199.516 282.873 190.373 277.757 188.864 273.898C188.109 275.408 176.618 275.576 175.276 273.898Z" fill="#1B1D58"/>
<path d="M193.56 278.847C190.624 277.841 188.276 279.267 186.179 282.034" stroke="white" stroke-width="1.38257" stroke-miterlimit="10" stroke-linecap="round" stroke-linejoin="round"/>
<path d="M197.251 281.615C194.315 280.608 191.967 282.034 189.87 284.802" stroke="white" stroke-width="1.38257" stroke-miterlimit="10" stroke-linecap="round" stroke-linejoin="round"/>
<path d="M170.159 246.662C175.863 247.92 181.314 247.585 186.263 245.068" stroke="#1B1D58" stroke-width="1.03693" stroke-miterlimit="10" stroke-linecap="round" stroke-linejoin="round"/>
<path d="M172.676 180.464C147.43 184.071 132.165 178.954 130.823 178.116C133.088 172.916 137.18 137.109 139.193 121.257" stroke="black" stroke-width="1.38257" stroke-miterlimit="10" stroke-linecap="round" stroke-linejoin="round"/>
<path d="M175.272 121.005C177.956 135.599 183.58 169.56 187.187 176.186L184.084 177.696L184.755 180.883" stroke="white" stroke-width="1.38257" stroke-miterlimit="10" stroke-linecap="round" stroke-linejoin="round"/>
<path d="M168.063 134.753C161.102 135.843 154.056 135.843 147.095 134.753V126.366C154.056 127.456 161.102 127.456 168.063 126.366V134.753Z" fill="white"/>
<path opacity="0.2" d="M38.0368 301.137C58.1319 301.137 74.4222 296.489 74.4222 290.755C74.4222 285.02 58.1319 280.372 38.0368 280.372C17.9417 280.372 1.65137 285.02 1.65137 290.755C1.65137 296.489 17.9417 301.137 38.0368 301.137Z" fill="#00BAC7"/>
<path d="M13.5335 203.651L13.6027 208.98C13.5335 211.403 14.5717 215.625 13.2566 216.179C11.0416 216.871 10.3494 211.888 10.3494 211.888C10.3494 213.341 10.4878 214.864 10.9032 216.387C11.3877 217.564 13.1181 218.879 12.2875 219.709C11.6646 220.332 10.2802 220.332 8.96505 219.086C7.6499 219.709 6.61162 219.225 6.05788 217.425C0.451194 218.187 4.05054 208.288 5.71178 200.951L13.5335 203.651Z" fill="#FFC7B1"/>
<path d="M13.5329 203.651L20.69 165.65L21.0361 161.566H10.9026L5.71123 201.021L13.5329 203.651Z" fill="#FFC7B1"/>
<path d="M13.2559 216.179C11.1793 217.01 10.3487 213.48 10.4871 209.604" stroke="#F09897" stroke-width="0.765554" stroke-miterlimit="10" stroke-linecap="round" stroke-linejoin="round"/>
<path d="M8.96484 219.156C8.13422 218.049 7.78813 215.903 8.065 212.719" stroke="#F09897" stroke-width="0.765554" stroke-miterlimit="10" stroke-linecap="round" stroke-linejoin="round"/>
<path d="M5.71153 212.788C5.50387 214.103 5.71153 216.179 6.05762 217.564C3.77341 217.771 3.28889 216.249 3.28889 213.411C3.15045 211.126 4.18873 207.735 5.15778 203.651" stroke="#F09897" stroke-width="0.765554" stroke-miterlimit="10" stroke-linecap="round" stroke-linejoin="round"/>
<path d="M63.9239 203.651L63.8546 208.98C63.9239 211.403 62.8856 215.625 64.2007 216.179C66.4157 216.871 67.1079 211.888 67.1079 211.888C67.1079 213.341 66.9695 214.864 66.5541 216.387C66.0696 217.564 64.3392 218.879 65.1698 219.709C65.7927 220.332 67.1771 220.332 68.4923 219.086C69.8074 219.709 70.8457 219.225 71.3994 217.425C77.0061 218.187 73.4068 208.288 71.7455 200.951L63.9239 203.651Z" fill="#FFC7B1"/>
<path d="M18.5174 227.739L13.8105 279.791H24.9547L33.3301 232.307V227.739H18.5174Z" fill="#FFC7B1"/>
<path d="M33.3301 227.739V232.307L26.087 273.371C21.2782 273.727 18.7253 273.521 14.4935 272.238L18.5174 227.739H33.3301Z" fill="#F09897"/>
<path d="M57.3477 227.739L61.9854 279.791H50.8412L41.4275 225.939L57.3477 227.739Z" fill="#FFC7B1"/>
<path d="M57.3485 227.739L41.4283 225.939L49.7902 273.774C54.3705 274.68 56.8393 274.509 61.4062 273.283L57.3485 227.739Z" fill="#F09897"/>
<path d="M50.4957 277.715L50.5649 287.613C50.5649 288.167 50.8418 288.651 51.3263 288.859C53.9566 290.105 62.6781 294.05 66.762 295.019C76.3833 297.234 77.6292 289.136 72.784 286.298C70.569 285.121 63.0242 280.899 61.7782 277.715C61.1553 279.03 51.6032 279.168 50.4957 277.715Z" fill="#802916"/>
<path d="M65.6553 281.799C63.2326 280.968 61.2945 282.145 59.5641 284.429" stroke="white" stroke-width="1.38437" stroke-miterlimit="10" stroke-linecap="round" stroke-linejoin="round"/>
<path d="M68.7002 284.152C66.2776 283.321 64.3394 284.498 62.609 286.782" stroke="white" stroke-width="1.38437" stroke-miterlimit="10" stroke-linecap="round" stroke-linejoin="round"/>
<path d="M56.9328 200.744L61.0859 269.616C56.3099 270.654 51.5338 270.654 46.7578 269.616L38.3131 220.194L28.9687 269.616C24.0541 270.585 19.2781 270.723 14.7097 269.616L19.8318 200.744H56.9328Z" fill="#2E2F74"/>
<path d="M63.9244 203.651L57.0026 165.788L56.6565 161.705L66.5547 161.566L71.7461 201.021L63.9244 203.651Z" fill="#FFC7B1"/>
<path d="M32.5678 135.748C28.1378 137.894 23.5694 138.655 18.8625 139.762C17.5474 140.109 16.3707 140.87 15.5401 141.908C11.5254 147.1 10.141 151.737 5.91872 157.759C12.979 163.366 20.8006 162.051 20.8006 162.051L18.1011 200.19C30.9065 204.066 45.4424 203.859 58.8707 200.19L57.0018 163.227C63.0238 163.989 66.9692 161.428 70.707 157.967C67.6614 153.191 64.9619 148.138 62.7469 142.739C62.124 141.285 60.9473 140.247 59.4937 139.693C56.3096 138.655 52.7575 137.249 49.8504 136.141L46.0653 148.138L32.5678 135.748Z" fill="#F69B36"/>
<path d="M20.5778 162.032C13.7964 162.214 10.7156 161.076 5.96484 157.738" stroke="#0D0E39" stroke-width="1.38437" stroke-linecap="round" stroke-linejoin="round"/>
<path d="M20.2471 166.896L13.5329 203.651" stroke="#0D0E39" stroke-width="0.976393" stroke-miterlimit="10" stroke-linecap="round" stroke-linejoin="round"/>
<path d="M70.707 158.036C66.9 161.774 63.093 163.92 57.3479 163.297L56.6557 154.852" stroke="#0D0E39" stroke-width="1.38063" stroke-miterlimit="10" stroke-linecap="round" stroke-linejoin="round"/>
<path d="M59.1475 141.216C57.8323 143.708 57.0709 146.269 56.9325 148.761" stroke="#0D0E39" stroke-width="1.03544" stroke-miterlimit="10" stroke-linecap="round" stroke-linejoin="round"/>
<path d="M18.6556 141.562C18.6556 141.562 21.1474 143.777 21.7012 148.622" stroke="#0D0E39" stroke-width="1.03544" stroke-miterlimit="10" stroke-linecap="round" stroke-linejoin="round"/>
<path d="M22.6011 151.945C22.6703 155.613 21.9089 156.929 20.8014 162.051" stroke="#0D0E39" stroke-width="1.03544" stroke-miterlimit="10" stroke-linecap="round" stroke-linejoin="round"/>
<path d="M46.8272 132.771L44.4046 146.892C39.9309 143.553 35.0613 138.123 34.9217 130.418C33.6065 131.318 32.6375 132.564 31.8761 133.74C29.315 137.686 28.4844 142.531 29.7303 147.1C30.284 149.038 30.8378 151.114 31.4607 153.122C31.8068 154.091 32.8451 154.575 33.8142 154.16L41.0129 150.907L41.8435 162.743C41.9127 163.643 43.2278 163.781 43.4355 162.881C44.3353 159.42 45.2352 155.406 46.2042 151.114C47.5194 151.806 48.973 152.429 50.6342 152.914C51.7417 153.26 52.8492 152.499 52.9876 151.391C53.6798 144.538 51.8801 138.309 47.5886 132.564C47.3809 132.287 46.8964 132.356 46.8272 132.771Z" fill="#904FBE"/>
<path d="M42.9513 156.098C43.505 156.306 46.3429 148.484 44.4048 148.138C42.6052 147.861 42.3975 155.89 42.9513 156.098Z" fill="#0D0E39"/>
<path d="M46.7578 134.156V130.349H34.9215V134.156C36.3829 139.45 41.5311 144.723 44.4278 146.461C45.2709 143.746 46.5977 136.606 46.7578 134.156Z" fill="#FFC7B1"/>
<path d="M44.4043 146.892C39.2129 142.185 34.6445 137.686 34.6445 130.764" stroke="white" stroke-width="1.38437" stroke-miterlimit="10" stroke-linecap="round" stroke-linejoin="round"/>
<path d="M46.7578 134.156V130.349H34.9215C34.9215 130.349 38.341 137.126 46.3703 137.126C46.6129 136.184 46.7578 135.125 46.7578 134.156Z" fill="#F09897"/>
<path d="M64.1316 216.179C66.2081 217.01 67.0387 213.48 66.9003 209.604" stroke="#F09897" stroke-width="0.765554" stroke-miterlimit="10" stroke-linecap="round" stroke-linejoin="round"/>
<path d="M68.4926 219.156C69.3232 218.049 69.6693 215.903 69.3925 212.719" stroke="#F09897" stroke-width="0.765554" stroke-miterlimit="10" stroke-linecap="round" stroke-linejoin="round"/>
<path d="M71.7455 212.788C71.9532 214.103 71.7455 216.179 71.3995 217.564C73.6837 217.771 74.1682 216.249 74.1682 213.411C74.3066 211.126 73.2683 207.735 72.2993 203.651" stroke="#F09897" stroke-width="0.765554" stroke-miterlimit="10" stroke-linecap="round" stroke-linejoin="round"/>
<path d="M25.2998 277.715L25.2306 287.613C25.2306 288.167 24.9537 288.651 24.4692 288.859C21.8389 290.105 13.1174 294.05 9.03351 295.019C-0.587835 297.234 -1.76455 289.136 3.08073 286.298C5.29572 285.121 12.8405 280.899 14.0864 277.715C14.7094 279.03 24.1923 279.168 25.2998 277.715Z" fill="#802916"/>
<path d="M10.2105 281.799C12.6332 280.968 14.5713 282.145 16.3018 284.429" stroke="white" stroke-width="1.38437" stroke-miterlimit="10" stroke-linecap="round" stroke-linejoin="round"/>
<path d="M7.16465 284.152C9.58729 283.321 11.5254 284.498 13.2559 286.782" stroke="white" stroke-width="1.38437" stroke-miterlimit="10" stroke-linecap="round" stroke-linejoin="round"/>
<path d="M60.1168 99.8927C74.445 134.087 35.4751 144.262 26.546 120.797C22.3929 122.181 15.6095 114.498 18.5167 111.521L20.2471 104.946L54.9947 91.5173L60.1168 99.8927Z" fill="#FFC7B1"/>
<path d="M63.2317 100.239C63.2317 106.192 62.1242 103.907 60.0476 101.069C60.0476 101.069 59.217 101.485 58.594 101.415C57.9711 101.346 55.3408 97.6777 55.3408 97.6777C54.9255 97.1239 53.9564 97.3316 54.0256 98.093V101.9C54.0256 102.246 53.818 102.592 53.4719 102.661L47.7268 104.046C47.4499 104.115 47.173 104.046 46.9654 103.838L44.0582 100.723L45.4426 103.769C45.6502 104.184 45.3734 104.738 44.958 104.807L39.8359 106.122C39.559 106.192 39.2821 106.122 39.1437 105.915L36.5826 103.492C35.8212 102.731 34.8522 103.492 35.2675 104.323L35.9597 105.915C36.0289 106.122 35.9597 106.33 35.8212 106.399C32.3603 108.545 28.8302 111.314 28.8994 117.266C28.8994 118.305 27.3766 118.305 27.3766 117.266C27.3766 112.352 21.7699 108.13 18.4474 111.521C13.5329 98.5083 22.0468 87.295 29.6608 84.3878C28.6917 83.4187 26.9613 83.6956 25.6461 83.6264C25.3 83.6264 25.1616 83.2111 25.3693 83.0034C26.7536 81.6191 29.2455 81.9651 30.6299 83.2803C30.6299 83.2803 31.1144 80.65 32.2911 81.1345C33.2602 81.5498 32.1527 83.2803 32.1527 83.2803C45.1657 79.1964 59.3554 85.4261 63.647 98.5775C63.9239 99.4774 63.8546 100.1 63.2317 100.239Z" fill="#0D0E39"/>
<path d="M24.3311 115.328C23.5004 114.082 22.4622 113.459 21.0086 114.082" stroke="#F09897" stroke-width="1.03827" stroke-miterlimit="10" stroke-linecap="round" stroke-linejoin="round"/>
<path d="M25.4385 90.9634C24.0541 92.2093 22.8774 93.7321 22.0468 95.6702" stroke="white" stroke-width="1.33965" stroke-miterlimit="10" stroke-linecap="round" stroke-linejoin="round"/>
<path d="M51.6025 100.377C50.2874 96.7085 47.6571 93.0399 43.7809 89.3713" stroke="white" stroke-width="0.574166" stroke-miterlimit="10" stroke-linecap="round" stroke-linejoin="round"/>
<path d="M48.0039 100.1C47.1041 97.9543 45.7197 96.0162 43.9892 94.2166" stroke="white" stroke-width="0.574166" stroke-miterlimit="10" stroke-linecap="round" stroke-linejoin="round"/>
<path d="M41.4277 103.699C40.5279 100.515 39.4204 97.6082 38.036 94.9087" stroke="white" stroke-width="0.574166" stroke-miterlimit="10" stroke-linecap="round" stroke-linejoin="round"/>
<path d="M59.9785 105.291C58.6634 104.53 56.3792 104.184 55.1332 105.43" stroke="#6B3A52" stroke-width="0.765554" stroke-miterlimit="10" stroke-linecap="round" stroke-linejoin="round"/>
<path d="M46.6191 106.953C44.681 106.33 41.9815 106.884 40.1126 108.96" stroke="#6B3A52" stroke-width="0.765554" stroke-miterlimit="10" stroke-linecap="round" stroke-linejoin="round"/>
<path d="M54.9953 111.521C54.9953 112.352 55.2029 113.182 55.4798 113.805C57.3487 112.836 58.8023 113.736 58.8023 113.736C59.0792 113.113 59.2176 112.283 59.1484 111.383C59.0792 109.306 58.1101 107.645 56.9334 107.645C55.8259 107.714 54.9261 109.445 54.9953 111.521Z" fill="white"/>
<path d="M55.6034 110.883C55.4663 110.131 55.8125 109.437 56.3766 109.335C56.9408 109.232 57.5092 109.758 57.6463 110.51C57.7834 111.263 57.4372 111.956 56.8731 112.058C56.3089 112.161 55.7405 111.635 55.6034 110.883Z" fill="#6B3A52"/>
<path d="M59.7705 114.221C58.2477 113.044 56.1019 112.906 55.1329 114.498" stroke="#F09897" stroke-width="1.14826" stroke-miterlimit="10" stroke-linecap="round" stroke-linejoin="round"/>
<path d="M42.397 113.39C42.6047 114.152 42.8816 114.844 43.2969 115.467C43.2969 115.467 44.7504 114.428 47.5884 115.051C47.7961 114.221 47.7961 113.252 47.5884 112.213C47.0347 109.929 45.4426 108.337 44.0583 108.683C42.6047 109.029 41.9125 111.106 42.397 113.39Z" fill="white"/>
<path d="M42.9915 112.208C42.8681 111.531 43.2254 110.899 43.7895 110.796C44.3537 110.693 44.911 111.159 45.0344 111.836C45.1578 112.513 44.8005 113.145 44.2364 113.248C43.6722 113.35 43.1149 112.885 42.9915 112.208Z" fill="#6B3A52"/>
<path d="M48.7646 115.259C45.9959 114.428 43.7809 114.774 42.2581 116.367" stroke="#F09897" stroke-width="1.14826" stroke-miterlimit="10" stroke-linecap="round" stroke-linejoin="round"/>
<path d="M52.6418 111.244C52.9187 114.428 53.9569 117.128 55.6182 118.858C53.8185 119.758 52.1572 119.966 52.1572 119.966" stroke="#F09897" stroke-width="1.14826" stroke-miterlimit="10" stroke-linecap="round" stroke-linejoin="round"/>
<path d="M51.8799 125.226C49.5957 125.849 47.6576 125.088 46.0655 122.942" stroke="#E5577A" stroke-width="1.14826" stroke-miterlimit="10" stroke-linecap="round" stroke-linejoin="round"/>
<path d="M46.7578 121.904C46.1348 122.458 45.6503 123.011 45.3042 123.773" stroke="#E5577A" stroke-width="1.14826" stroke-miterlimit="10" stroke-linecap="round" stroke-linejoin="round"/>
<path d="M57.1406 204.205C46.5502 207.181 31.253 207.112 19.5551 204.066" stroke="black" stroke-width="0.976393" stroke-miterlimit="10" stroke-linecap="round" stroke-linejoin="round"/>
<path d="M39.0742 215.972L28.8991 269.616C25.6459 270.446 22.8079 270.654 20.2468 270.377" stroke="black" stroke-width="1.38437" stroke-miterlimit="10" stroke-linecap="round" stroke-linejoin="round"/>
<path d="M46.7578 269.686C51.3262 270.931 56.1022 270.793 61.0859 269.686" stroke="black" stroke-width="1.38437" stroke-miterlimit="10" stroke-linecap="round" stroke-linejoin="round"/>
<path d="M57.383 163.315L63.9238 203.651" stroke="#0D0E39" stroke-width="1.38437" stroke-miterlimit="10" stroke-linecap="round" stroke-linejoin="round"/>
<path opacity="0.2" d="M284.742 301.137C309.546 301.137 329.653 296.489 329.653 290.755C329.653 285.02 309.546 280.372 284.742 280.372C259.938 280.372 239.83 285.02 239.83 290.755C239.83 296.489 259.938 301.137 284.742 301.137Z" fill="#00BAC7"/>
<path d="M310.853 206.304L316.199 265.419L316.845 272.564H302.659L301.509 266.047L291.997 212.119V206.304H310.853Z" fill="#FFC7B1"/>
<path d="M291.997 206.304V212.119L301.398 265.419C306.679 266.225 309.796 266.334 316.145 264.82L310.853 206.304H291.997Z" fill="#F09897"/>
<path d="M258.948 206.304L252.956 272.564H267.142L277.804 212.119V206.304H258.948Z" fill="#FFC7B1"/>
<path d="M277.804 206.304V212.119L268.282 266.099C262.544 266.982 259.32 266.858 253.576 265.705L258.948 206.304H277.804Z" fill="#F09897"/>
<path d="M260.451 141.945L250.665 261.111C256.745 262.433 267.324 262.433 273.404 261.111L284.153 176.453L296.049 261.111C302.305 262.345 310.698 263.11 318.699 261.111L307.679 141.945H260.451Z" fill="#2E2F74"/>
<path d="M298.592 254.353C304.761 255.27 310.675 255.168 316.071 253.669" stroke="white" stroke-width="1.38437" stroke-miterlimit="10" stroke-linecap="round" stroke-linejoin="round"/>
<path d="M271.07 255.046C264.901 255.962 258.987 255.86 253.591 254.361" stroke="white" stroke-width="1.38437" stroke-miterlimit="10" stroke-linecap="round" stroke-linejoin="round"/>
<path d="M308.077 169.625C304.708 169.625 302.461 164.008 301.338 157.943" stroke="black" stroke-width="1.38437" stroke-miterlimit="10" stroke-linecap="round" stroke-linejoin="round"/>
<path d="M261.205 169.625C264.575 169.625 266.821 164.008 267.944 157.943" stroke="black" stroke-width="1.38437" stroke-miterlimit="10" stroke-linecap="round" stroke-linejoin="round"/>
<path d="M283.373 171.13L296.548 260.956C299.297 261.94 304.454 262.135 309.73 262.135" stroke="black" stroke-width="1.38437" stroke-miterlimit="10" stroke-linecap="round" stroke-linejoin="round"/>
<path d="M273.348 261.276C268.399 263.547 256.113 263.055 250.714 261.035" stroke="#222965" stroke-width="1.38437" stroke-miterlimit="10" stroke-linecap="round" stroke-linejoin="round"/>
<path d="M246.881 116.598L249.828 94.2817" stroke="white" stroke-width="1.03544" stroke-miterlimit="10" stroke-linecap="round" stroke-linejoin="round"/>
<path d="M317.411 158.025L317.317 165.294C317.411 168.598 315.995 174.357 317.789 175.112C320.81 176.056 321.754 169.259 321.754 169.259C321.754 171.241 321.565 173.318 320.999 175.395C320.338 177 317.978 178.794 319.111 179.927C319.96 180.777 321.848 180.777 323.642 179.077C325.436 179.927 326.852 179.266 327.607 176.811C335.254 177.85 330.345 164.35 328.079 154.343L317.411 158.025Z" fill="#FFC7B1"/>
<path d="M317.411 158.025L307.971 106.385L307.499 100.815L320.999 100.626L328.079 154.437L317.411 158.025Z" fill="#FFC7B1"/>
<path d="M317.695 175.112C320.527 176.245 321.66 171.43 321.471 166.144" stroke="#F09897" stroke-width="0.765554" stroke-miterlimit="10" stroke-linecap="round" stroke-linejoin="round"/>
<path d="M323.643 179.172C324.776 177.661 325.248 174.735 324.87 170.392" stroke="#F09897" stroke-width="0.765554" stroke-miterlimit="10" stroke-linecap="round" stroke-linejoin="round"/>
<path d="M328.079 170.486C328.362 172.28 328.079 175.112 327.607 177C330.723 177.284 331.383 175.207 331.383 171.336C331.572 168.221 330.156 163.595 328.834 158.025" stroke="#F09897" stroke-width="0.765554" stroke-miterlimit="10" stroke-linecap="round" stroke-linejoin="round"/>
<path d="M251.215 158.025L251.309 165.294C251.215 168.598 252.631 174.357 250.837 175.112C247.816 176.056 246.872 169.259 246.872 169.259C246.872 171.241 247.061 173.318 247.627 175.395C248.288 177 250.648 178.794 249.515 179.927C248.666 180.777 246.778 180.777 244.984 179.077C243.19 179.927 241.774 179.266 241.019 176.811C233.372 177.85 238.281 164.35 240.547 154.343L251.215 158.025Z" fill="#FFC7B1"/>
<path d="M251.215 158.025L260.655 106.385L261.127 100.815L247.627 100.626L240.547 154.437L251.215 158.025Z" fill="#FFC7B1"/>
<path d="M250.931 175.112C248.099 176.245 246.966 171.43 247.155 166.144" stroke="#F09897" stroke-width="0.765554" stroke-miterlimit="10" stroke-linecap="round" stroke-linejoin="round"/>
<path d="M244.983 179.172C243.85 177.661 243.378 174.735 243.756 170.392" stroke="#F09897" stroke-width="0.765554" stroke-miterlimit="10" stroke-linecap="round" stroke-linejoin="round"/>
<path d="M240.547 170.486C240.264 172.28 240.547 175.112 241.019 177C237.903 177.284 237.243 175.207 237.243 171.336C237.054 168.221 238.47 163.595 239.792 158.025" stroke="#F09897" stroke-width="0.765554" stroke-miterlimit="10" stroke-linecap="round" stroke-linejoin="round"/>
<path d="M291.175 62.8711C296.564 65.4816 308.017 68.0922 313.743 69.4395C315.343 69.8606 316.775 70.7869 317.785 72.05C322.67 78.3658 329.759 150.856 329.759 150.856C324.143 154.308 321.677 155.43 314.34 155.068L306.333 94.8711L310.334 153.903C294.755 158.619 273.236 158.366 256.899 153.903L260.607 96.3027L253.619 156.296C247.349 157.008 243.781 156.228 237.26 151.17C237.26 151.17 244.185 82.1553 246.88 75.5869C247.638 73.8185 249.516 71.1776 252.522 70.1974C256.396 68.9343 266.838 65.0606 270.375 63.7132L274.754 77.9448L291.175 62.8711Z" fill="#904FBE"/>
<path d="M253.662 156.335C247.185 156.688 240.894 154.871 237.333 151.212L241.013 118.113" stroke="#0D0E39" stroke-width="1.38437" stroke-linecap="round" stroke-linejoin="round"/>
<path d="M306.187 94.8708L314.367 154.881C319.823 155.84 325.566 154.003 329.781 150.778" stroke="#0D0E39" stroke-width="1.38437" stroke-miterlimit="10" stroke-linecap="round" stroke-linejoin="round"/>
<circle r="1.43334" transform="matrix(-1 0 0 1 280.307 108.289)" fill="white"/>
<circle r="1.43334" transform="matrix(-1 0 0 1 280.307 124.772)" fill="white"/>
<circle r="1.43334" transform="matrix(-1 0 0 1 280.307 142.689)" fill="white"/>
<path d="M258.839 73.1377C260.439 75.7502 261.753 86.1918 260.852 95.6683" stroke="#0D0E39" stroke-width="1.03544" stroke-miterlimit="10" stroke-linecap="round" stroke-linejoin="round"/>
<path d="M308.102 69.9443C308.102 69.9443 305.07 72.6391 304.396 78.5338" stroke="#0D0E39" stroke-width="1.03544" stroke-miterlimit="10" stroke-linecap="round" stroke-linejoin="round"/>
<path d="M304.019 82.5762C303.935 87.0393 304.861 88.6393 306.208 94.8709" stroke="#0D0E39" stroke-width="1.38437" stroke-miterlimit="10" stroke-linecap="round" stroke-linejoin="round"/>
<path d="M278.544 87.6288C277.871 87.8814 274.418 78.3656 276.776 77.9445C278.966 77.6077 279.218 87.3761 278.544 87.6288Z" fill="black"/>
<path d="M273.828 59.2499L276.776 76.4288C281.492 71.8815 287.218 65.1446 288.313 56.3867C289.913 57.4815 291.092 58.9972 292.018 60.4288C295.134 65.2288 296.144 71.1236 294.628 76.6815C293.955 79.0394 293.281 81.5657 292.523 84.0078C292.102 85.1867 290.839 85.7762 289.66 85.2709L280.902 81.3131L279.892 95.7131C279.807 96.8078 278.207 96.9762 277.955 95.8815C276.86 91.671 275.765 86.7867 274.586 81.5657C272.986 82.4078 271.218 83.1657 269.197 83.7552C267.849 84.1762 266.502 83.2499 266.334 81.9025C265.492 73.5657 267.681 65.9867 272.902 58.9972C273.155 58.6604 273.744 58.7446 273.828 59.2499Z" fill="#00BAC7"/>
<circle r="1.03827" transform="matrix(-1 0 0 1 277.418 80.5202)" fill="white"/>
<path d="M273.912 60.9341V56.3025H288.312V60.9341C288.312 65.2185 279.989 74.5275 276.708 76.3917C275.8 71.3192 274.867 65.0211 273.912 60.9341Z" fill="#FFC7B1"/>
<path d="M276.775 76.4289C283.091 70.7026 288.649 65.2289 288.649 56.8079" stroke="white" stroke-width="1.38437" stroke-miterlimit="10" stroke-linecap="round" stroke-linejoin="round"/>
<path d="M273.912 60.9498V56.3025H288.312C288.312 56.3025 284.283 63.9466 274.514 63.9466C274.287 62.9799 274.135 62.1237 273.912 60.9498Z" fill="#F09897"/>
<path d="M302.219 269.921L302.307 283.271C302.307 283.976 302.659 284.593 303.276 284.857C306.624 286.443 319.226 293.715 324.425 294.949C336.673 297.768 338.171 285.959 332.003 282.347C329.183 280.849 318.079 273.974 316.493 269.921C315.7 271.595 303.629 271.771 302.219 269.921Z" fill="#802916"/>
<path d="M267.583 269.921L267.495 283.271C267.495 283.976 267.142 284.593 266.526 284.857C263.177 286.443 250.575 293.715 245.377 294.949C233.129 297.768 231.631 285.959 237.799 282.347C240.619 280.849 251.723 273.974 253.309 269.921C254.102 271.595 266.173 271.771 267.583 269.921Z" fill="#802916"/>
<path d="M321.427 275.119C318.343 274.062 315.876 275.56 313.673 278.468" stroke="white" stroke-width="1.38437" stroke-miterlimit="10" stroke-linecap="round" stroke-linejoin="round"/>
<path d="M248.374 275.119C251.458 274.062 253.925 275.56 256.128 278.468" stroke="white" stroke-width="1.38437" stroke-miterlimit="10" stroke-linecap="round" stroke-linejoin="round"/>
<path d="M325.304 278.115C322.22 277.058 319.753 278.556 317.55 281.464" stroke="white" stroke-width="1.38437" stroke-miterlimit="10" stroke-linecap="round" stroke-linejoin="round"/>
<path d="M329.18 280.746C326.398 279.792 324.173 281.143 322.186 283.766" stroke="white" stroke-width="1.38437" stroke-miterlimit="10" stroke-linecap="round" stroke-linejoin="round"/>
<path d="M244.497 278.115C247.581 277.058 250.048 278.556 252.251 281.464" stroke="white" stroke-width="1.38437" stroke-miterlimit="10" stroke-linecap="round" stroke-linejoin="round"/>
<path d="M240.64 280.729C243.422 279.775 245.648 281.126 247.635 283.749" stroke="white" stroke-width="1.38437" stroke-miterlimit="10" stroke-linecap="round" stroke-linejoin="round"/>
<ellipse cx="298.392" cy="36.7439" rx="5.92961" ry="4.05059" transform="rotate(-40.2916 298.392 36.7439)" fill="#FFC7B1"/>
<path d="M299.149 36.9631C299.823 35.7946 300.61 35.2104 301.677 35.7946" stroke="#F09897" stroke-width="1.03827" stroke-miterlimit="10" stroke-linecap="round" stroke-linejoin="round"/>
<ellipse rx="5.92961" ry="4.05059" transform="matrix(-0.762763 -0.646678 -0.646678 0.762763 261.671 36.7439)" fill="#FFC7B1"/>
<path d="M261.312 36.9631C260.638 35.7946 259.852 35.2104 258.785 35.7946" stroke="#F09897" stroke-width="1.03827" stroke-miterlimit="10" stroke-linecap="round" stroke-linejoin="round"/>
<path d="M293.653 10.0791C301.971 8.37165 305.14 17.9953 301.971 32.1743C298.512 31.7287 297.07 35.3945 296.249 39.1392C291.917 45.4225 287.079 50.432 280.14 50.4622C273.83 50.4897 268.056 46.5347 263.928 39.1392C263.928 39.1392 262.401 31.6394 258.713 31.9537C256.994 26.9583 256.418 20.9844 257.797 15.512C262.076 -1.46209 290.083 -4.9772 293.653 10.0791Z" fill="#0D0E39"/>
<path d="M264.051 25.5884C262.829 32.6985 261.681 59.102 280.234 59.102C295.38 59.102 298.306 37.0312 295.824 27.7363C292.323 27.7363 291.447 26.2277 289.176 23.6783C286.114 20.2394 271.271 27.7363 264.051 25.5884Z" fill="#FFC7B1"/>
<path d="M277.012 50.4363C280.493 51.0288 283.307 49.6956 285.381 46.2517" stroke="#E5577A" stroke-width="1.26937" stroke-miterlimit="10" stroke-linecap="round" stroke-linejoin="round"/>
<path d="M284.122 44.8816C285.159 45.5852 285.974 46.4369 286.492 47.4738" stroke="#E5577A" stroke-width="1.26937" stroke-miterlimit="10" stroke-linecap="round" stroke-linejoin="round"/>
<path d="M269.495 31.2537C270.791 30.5131 273.013 29.9576 274.161 31.2167" stroke="#6B3A52" stroke-width="1.26937" stroke-miterlimit="10" stroke-linecap="round" stroke-linejoin="round"/>
<path d="M274.976 37.0313C274.976 37.846 274.791 38.5866 274.531 39.1791C272.458 38.3644 270.902 39.2161 270.902 39.2161C270.606 38.6236 270.421 37.883 270.421 37.0683C270.421 35.1056 271.421 33.5503 272.68 33.5503C273.939 33.5503 274.939 35.1056 274.976 37.0313Z" fill="white"/>
<path d="M270.643 39.1048C272.013 38.2901 273.79 38.5493 274.716 39.1418" stroke="#F09897" stroke-width="1.48093" stroke-miterlimit="10" stroke-linecap="round" stroke-linejoin="round"/>
<path d="M277.531 36.5125C277.568 39.512 276.938 42.6597 275.383 44.3261C277.123 45.2149 279.049 45.1778 279.049 45.1778" stroke="#F09897" stroke-width="1.48093" stroke-miterlimit="10" stroke-linecap="round" stroke-linejoin="round"/>
<path d="M272.953 36.9197C273.526 36.9197 273.99 36.4555 273.99 35.8828C273.99 35.3102 273.526 34.8459 272.953 34.8459C272.38 34.8459 271.916 35.3102 271.916 35.8828C271.916 36.4555 272.38 36.9197 272.953 36.9197Z" fill="#6B3A52"/>
<path d="M287.752 36.4018C287.752 37.2165 287.566 37.9571 287.27 38.5496C285.048 37.7349 283.419 38.5866 283.419 38.5866C283.086 37.9941 282.9 37.2535 282.9 36.4388C282.9 34.4761 283.974 32.9208 285.307 32.9208C286.641 32.8838 287.752 34.4391 287.752 36.4018Z" fill="white"/>
<path d="M282.9 38.4381C284.345 37.7345 286.752 38.1789 287.603 38.6603" stroke="#F09897" stroke-width="1.48093" stroke-miterlimit="10" stroke-linecap="round" stroke-linejoin="round"/>
<path d="M285.358 36.5125C285.931 36.5125 286.395 36.0483 286.395 35.4756C286.395 34.903 285.931 34.4387 285.358 34.4387C284.786 34.4387 284.321 34.903 284.321 35.4756C284.321 36.0483 284.786 36.5125 285.358 36.5125Z" fill="#6B3A52"/>
<path d="M289.38 32.2909C287.38 30.6245 285.307 30.2171 282.529 30.032" stroke="#6B3A52" stroke-width="1.26937" stroke-miterlimit="10" stroke-linecap="round" stroke-linejoin="round"/>
<path d="M263.92 11.1858C267.253 6.89014 272.289 4.48309 278.621 4.33496" stroke="white" stroke-width="1.48093" stroke-miterlimit="10" stroke-linecap="round" stroke-linejoin="round"/>
<path d="M261.291 16.0371C261.587 15.3335 261.884 14.6299 262.217 13.9634" stroke="white" stroke-width="1.48093" stroke-miterlimit="10" stroke-linecap="round" stroke-linejoin="round"/>
</svg>
