<svg width="688" height="435" viewBox="0 0 688 435" fill="none" xmlns="http://www.w3.org/2000/svg">
<path opacity="0.2" d="M55.2258 434.697C84.2573 434.697 107.792 427.982 107.792 419.697C107.792 411.413 84.2573 404.697 55.2258 404.697C26.1943 404.697 2.65967 411.413 2.65967 419.697C2.65967 427.982 26.1943 434.697 55.2258 434.697Z" fill="#00BAC7"/>
<path opacity="0.2" d="M613.899 434.697C649.734 434.697 678.783 427.982 678.783 419.697C678.783 411.413 649.734 404.697 613.899 404.697C578.065 404.697 549.015 411.413 549.015 419.697C549.015 427.982 578.065 434.697 613.899 434.697Z" fill="#00BAC7"/>
<path opacity="0.2" d="M326.08 434.697C361.914 434.697 390.964 427.982 390.964 419.697C390.964 411.413 361.914 404.697 326.08 404.697C290.245 404.697 261.196 411.413 261.196 419.697C261.196 427.982 290.245 434.697 326.08 434.697Z" fill="#00BAC7"/>
<path d="M250.226 203.837L241.484 175.726C236.776 174.157 228.885 165.639 234.893 160.079C235.565 157.479 237.18 156.403 239.601 156.627L234.489 146.405C233.862 145.195 234.355 143.715 235.565 143.087C236.731 142.46 238.211 142.863 238.883 143.984L244.756 153.668L243.994 142.729C243.905 141.294 244.981 140.084 246.415 140.039H246.46C247.715 139.994 248.791 140.891 248.971 142.101L251.347 155.417C258.629 154.677 256.27 167.969 253.992 171.153L269.133 203.837H250.226Z" fill="#FFC7B1"/>
<path d="M239.601 156.627C242.694 161.604 245.832 166.58 243.322 167.88C240.632 169.091 234.938 160.079 234.938 160.079" stroke="#F09897" stroke-width="1.22206" stroke-miterlimit="10" stroke-linecap="round" stroke-linejoin="round"/>
<path d="M238.48 164.876C242.38 171.467 238.569 173.125 234.445 166.983" stroke="#F09897" stroke-width="1.22206" stroke-miterlimit="10" stroke-linecap="round" stroke-linejoin="round"/>
<path d="M251.392 155.416C247.312 155.147 245.429 156.986 245.698 162.769C245.698 162.769 245.877 166.939 248.074 166.939C251.75 166.939 250.898 160.976 250.898 160.976" stroke="#F09897" stroke-width="1.22206" stroke-miterlimit="10" stroke-linecap="round" stroke-linejoin="round"/>
<path d="M294.494 151.654L309.741 143.91L294.815 187.54L278.018 220.705C275.712 225.257 271.043 228.127 265.94 228.127C260.527 228.127 255.633 224.902 253.498 219.928L238.101 184.054C237.506 182.667 237.816 181.041 238.969 180.068C243.61 176.149 248.788 173.911 255.285 173.343C257.346 173.163 259.206 174.473 259.949 176.405L266.371 193.117L283.315 162.329C286.152 156.846 289.895 153.954 294.494 151.654Z" fill="#00BAC7"/>
<path d="M367.342 263.589L368.431 272.907C369.157 277.022 368.31 284.645 370.731 285.371C374.724 286.097 374.845 277.264 374.845 277.264C375.208 279.805 375.329 282.346 374.966 285.25C374.361 287.429 371.82 290.091 373.393 291.422C374.603 292.269 377.023 292.027 378.959 289.486C381.38 290.212 383.074 289.244 383.558 285.855C393.481 285.734 384.889 269.519 380.29 257.297L367.342 263.589Z" fill="#FFC7B1"/>
<path d="M330.434 143.91L345.681 151.654C350.279 153.954 353.668 158.189 354.999 163.15C363.349 194.492 371.94 221.72 381.258 254.151C381.863 256.208 381.016 258.386 379.322 259.475C371.94 264.073 361.654 266.01 358.75 257.418L330.434 143.91Z" fill="#00BAC7"/>
<path d="M370.73 285.371C374.482 286.339 375.087 280.047 373.877 273.391" stroke="#F09897" stroke-width="1.106" stroke-miterlimit="10" stroke-linecap="round" stroke-linejoin="round"/>
<path d="M378.959 289.486C380.17 287.429 380.17 283.556 379.08 278.111" stroke="#F09897" stroke-width="1.106" stroke-miterlimit="10" stroke-linecap="round" stroke-linejoin="round"/>
<path d="M383.074 277.627C383.679 279.926 383.921 283.556 383.558 285.976C387.551 285.855 388.035 282.951 387.43 278.111C387.067 273.633 383.679 266.978 380.774 258.749" stroke="#F09897" stroke-width="1.106" stroke-miterlimit="10" stroke-linecap="round" stroke-linejoin="round"/>
<path d="M359.114 308L367.342 399.122H347.86L333.217 316.108V308H359.114Z" fill="#FFC7B1"/>
<path d="M333.217 308V316.108L334.253 321.978C342.435 321.719 346.281 320.647 350.68 315.66L359.693 314.416L359.114 308H333.217Z" fill="#F09897"/>
<path d="M362.744 347.45L367.342 399.122H347.859L339.146 349.87C344.955 351.928 357.056 351.323 362.744 347.45Z" fill="#F69B36"/>
<path d="M291.226 308.001L283.119 399.122H302.601L319.059 304.854L291.226 308.001Z" fill="#FFC7B1"/>
<path d="M291.226 308.001L319.059 304.854L316.72 318.25L310.992 317.474C304.51 321.69 299.526 321.579 290.12 320.434L291.226 308.001Z" fill="#F09897"/>
<path d="M287.717 347.45L283.119 399.122H302.601L311.314 349.87C305.506 351.928 293.405 351.323 287.717 347.45Z" fill="#F69B36"/>
<path d="M303.206 395.491L303.085 412.796C303.085 413.764 302.601 414.611 301.754 414.974C297.156 417.152 281.909 424.05 274.769 425.744C257.948 429.495 255.77 415.458 264.241 410.497C268.113 408.439 281.303 401.058 283.482 395.491C284.571 397.669 301.27 397.911 303.206 395.491Z" fill="#1B1D58"/>
<path d="M276.705 402.631C280.94 401.179 284.329 403.236 287.354 407.229" stroke="white" stroke-width="2" stroke-miterlimit="10" stroke-linecap="round" stroke-linejoin="round"/>
<path d="M271.38 406.624C275.616 405.172 279.004 407.229 282.029 411.222" stroke="white" stroke-width="2" stroke-miterlimit="10" stroke-linecap="round" stroke-linejoin="round"/>
<path d="M310.588 356.195C302.359 358.01 294.494 357.526 287.354 353.896" stroke="#1B1D58" stroke-width="1.5" stroke-miterlimit="10" stroke-linecap="round" stroke-linejoin="round"/>
<path d="M288.806 259.959L282.15 308.605C282.029 309.453 282.392 310.3 283.118 310.905C288.927 315.261 304.9 318.891 310.83 311.51C316.154 312.841 320.995 312.841 324.988 310.663C328.135 318.286 345.439 318.528 349.069 309.574C355.725 309.09 362.018 307.758 367.705 305.096C369.278 304.37 370.125 302.676 369.762 300.982L360.081 256.571L288.806 259.959Z" fill="#904FBE"/>
<path d="M364.438 254.514C350.28 263.468 295.825 266.252 283.119 257.297C292.8 222.325 289.768 171.208 309.741 143.91H330.434C350.28 171.258 350.401 221.72 364.438 254.514Z" fill="#00BAC7"/>
<path d="M330.434 144.514V137.859H309.741V144.514C309.741 156.495 330.434 156.858 330.434 144.514Z" fill="#FFC7B1"/>
<path d="M330.434 145.376V140.037H309.741C309.741 140.037 315.308 148.871 329.345 148.871C330.071 147.9 330.434 146.735 330.434 145.376Z" fill="#F09897"/>
<path d="M330.434 143.91C348.827 153.591 352.216 152.138 357.419 171.984" stroke="black" stroke-width="2" stroke-miterlimit="10" stroke-linecap="round" stroke-linejoin="round"/>
<path d="M296.507 123.362C307.92 158.757 358.629 143.459 340.369 91.8666L333.859 79.1685L296.93 88.7476L296.507 123.362Z" fill="#FFC7B1"/>
<path d="M315.705 130.096C320.848 130.97 325.007 129.003 328.071 123.922" stroke="#E5577A" stroke-width="1.6" stroke-miterlimit="10" stroke-linecap="round" stroke-linejoin="round"/>
<path d="M326.21 121.9C327.742 122.938 328.946 124.195 329.712 125.725" stroke="#E5577A" stroke-width="1.6" stroke-miterlimit="10" stroke-linecap="round" stroke-linejoin="round"/>
<path d="M304.597 101.794C306.512 100.701 309.795 99.8813 311.491 101.739" stroke="#6B3A52" stroke-width="1.47973" stroke-miterlimit="10" stroke-linecap="round" stroke-linejoin="round"/>
<path d="M312.695 110.318C312.695 111.52 312.421 112.613 312.038 113.487C308.974 112.285 306.676 113.541 306.676 113.541C306.238 112.667 305.965 111.574 305.965 110.372C305.965 107.477 307.442 105.182 309.303 105.182C311.163 105.182 312.64 107.477 312.695 110.318Z" fill="white"/>
<path d="M306.293 113.377C308.317 112.175 310.944 112.558 312.312 113.432" stroke="#F09897" stroke-width="1.72635" stroke-miterlimit="10" stroke-linecap="round" stroke-linejoin="round"/>
<path d="M316.47 109.553C316.525 113.978 315.595 118.622 313.296 121.081C315.868 122.392 318.713 122.338 318.713 122.338" stroke="#F09897" stroke-width="1.72635" stroke-miterlimit="10" stroke-linecap="round" stroke-linejoin="round"/>
<path d="M309.456 110.416C310.303 110.416 310.988 109.731 310.988 108.886C310.988 108.041 310.303 107.356 309.456 107.356C308.61 107.356 307.924 108.041 307.924 108.886C307.924 109.731 308.61 110.416 309.456 110.416Z" fill="#6B3A52"/>
<path d="M331.573 110.375C331.573 111.577 331.299 112.67 330.861 113.544C327.578 112.342 325.171 113.599 325.171 113.599C324.678 112.725 324.405 111.632 324.405 110.43C324.405 107.534 325.992 105.24 327.961 105.24C329.931 105.185 331.573 107.48 331.573 110.375Z" fill="white"/>
<path d="M324.405 113.38C326.539 112.342 330.095 112.998 331.354 113.708" stroke="#F09897" stroke-width="1.72635" stroke-miterlimit="10" stroke-linecap="round" stroke-linejoin="round"/>
<path d="M327.524 110.539C328.37 110.539 329.056 109.854 329.056 109.01C329.056 108.165 328.37 107.48 327.524 107.48C326.678 107.48 325.992 108.165 325.992 109.01C325.992 109.854 326.678 110.539 327.524 110.539Z" fill="#6B3A52"/>
<path d="M333.98 102.832C331.388 100.173 327.741 99.0812 323.857 101.472" stroke="#6B3A52" stroke-width="1.47973" stroke-miterlimit="10" stroke-linecap="round" stroke-linejoin="round"/>
<path d="M292.927 112.964C291.627 111.064 290.027 110.164 287.927 111.064" stroke="black" stroke-width="1.1548" stroke-miterlimit="10" stroke-linecap="round" stroke-linejoin="round"/>
<path d="M298.526 94.866C296.426 105.664 295.326 115.363 299.626 129.161C300.026 130.561 299.241 132.215 297.626 132.061C292.925 131.611 288.231 130.197 281.428 125.662C280.529 125.062 279.929 124.162 279.829 123.162C277.829 104.065 285.628 70.4695 314.024 68.3698C333.721 66.97 342.62 76.4686 342.62 76.4686C355.818 89.7668 360.017 114.937 360.117 120.762C360.117 120.762 360.216 123.046 359.416 123.845C357.445 125.969 349.033 128.676 343.557 130.559C341.947 131.112 340.179 129.538 340.511 127.868C342.694 116.872 343.007 100.937 338.52 92.6663C338.52 92.6663 337.52 96.5658 333.021 90.2667C332.821 91.0666 332.621 91.7665 332.521 92.2664C332.321 92.8663 331.921 93.2663 331.321 93.5662C322.822 97.3657 308.425 97.3657 298.526 94.866Z" fill="#802916"/>
<path d="M306.025 76.1689C283.933 87.1837 288.196 119.869 288.196 119.869" stroke="white" stroke-width="0.8843" stroke-miterlimit="10" stroke-linecap="round" stroke-linejoin="round"/>
<path d="M311.124 79.1685C307.621 81.9095 304.789 86.0118 302.756 90.9364" stroke="white" stroke-width="1.1221" stroke-miterlimit="10" stroke-linecap="round" stroke-linejoin="round"/>
<path d="M312.424 92.2722C313.043 87.7895 313.919 85.3532 316.423 81.5679" stroke="white" stroke-width="0.8843" stroke-miterlimit="10" stroke-linecap="round" stroke-linejoin="round"/>
<path d="M318.623 90.3664C319.604 88.2253 320.674 86.2179 321.745 84.7459C321.923 84.4782 322.191 84.7459 322.191 85.0135C322.369 90.6341 323.975 90.3664 326.383 85.6826C326.472 85.5488 326.65 85.5488 326.65 85.8165C326.918 92.3738 328.702 89.965 333.072 81.668" stroke="white" stroke-width="0.8843" stroke-miterlimit="10" stroke-linecap="round" stroke-linejoin="round"/>
<path d="M338.92 79.6685C338.92 79.6685 353.038 93.3185 351.531 116.965" stroke="white" stroke-width="0.8843" stroke-miterlimit="10" stroke-linecap="round" stroke-linejoin="round"/>
<path d="M310.709 311.509L312.403 281.862" stroke="black" stroke-width="2" stroke-miterlimit="10" stroke-linecap="round" stroke-linejoin="round"/>
<path d="M324.867 310.663L323.778 270.124" stroke="black" stroke-width="2" stroke-miterlimit="10" stroke-linecap="round" stroke-linejoin="round"/>
<path d="M349.07 309.573L345.197 273.149" stroke="black" stroke-width="2" stroke-miterlimit="10" stroke-linecap="round" stroke-linejoin="round"/>
<path d="M309.741 143.91C309.015 155.527 326.683 157.705 330.313 145.725" stroke="white" stroke-width="2" stroke-miterlimit="10" stroke-linecap="round" stroke-linejoin="round"/>
<path d="M347.254 395.491L347.375 412.796C347.375 413.764 347.859 414.611 348.707 414.974C353.305 417.152 368.552 424.05 375.692 425.744C392.512 429.616 394.57 415.458 386.099 410.497C382.227 408.439 369.036 401.058 366.858 395.491C365.769 397.669 349.191 397.911 347.254 395.491Z" fill="#1B1D58"/>
<path d="M373.635 402.631C369.399 401.179 366.011 403.236 362.986 407.229" stroke="white" stroke-width="2" stroke-miterlimit="10" stroke-linecap="round" stroke-linejoin="round"/>
<path d="M378.959 406.624C374.724 405.172 371.335 407.229 368.31 411.222" stroke="white" stroke-width="2" stroke-miterlimit="10" stroke-linecap="round" stroke-linejoin="round"/>
<path d="M339.873 356.195C348.102 358.01 355.967 357.526 363.107 353.896" stroke="#1B1D58" stroke-width="1.5" stroke-miterlimit="10" stroke-linecap="round" stroke-linejoin="round"/>
<path d="M343.503 260.685C307.079 265.889 285.055 258.507 283.119 257.297C286.386 249.794 292.29 198.133 295.194 175.262" stroke="black" stroke-width="2" stroke-miterlimit="10" stroke-linecap="round" stroke-linejoin="round"/>
<path d="M347.248 174.899C351.12 195.955 359.234 244.954 364.438 254.513L359.96 256.692L360.928 261.29" stroke="white" stroke-width="2" stroke-miterlimit="10" stroke-linecap="round" stroke-linejoin="round"/>
<path d="M336.847 194.734C326.804 196.307 316.639 196.307 306.595 194.734V182.633C316.639 184.206 326.804 184.206 336.847 182.633V194.734Z" fill="white"/>
<path d="M19.8253 293.859L19.9253 301.559C19.8253 305.059 21.3253 311.159 19.4253 311.959C16.2253 312.959 15.2253 305.759 15.2253 305.759C15.2253 307.859 15.4253 310.059 16.0253 312.259C16.7253 313.959 19.2253 315.859 18.0253 317.059C17.1253 317.959 15.1253 317.959 13.2253 316.159C11.3253 317.059 9.82534 316.359 9.02534 313.759C0.925341 314.859 6.12534 300.559 8.52534 289.959L19.8253 293.859Z" fill="#FFC7B1"/>
<path d="M19.8251 293.859L30.165 238.959L30.665 233.059H16.0251L8.52508 290.059L19.8251 293.859Z" fill="#FFC7B1"/>
<path d="M19.4253 311.959C16.4253 313.159 15.2253 308.059 15.4253 302.459" stroke="#F09897" stroke-width="1.106" stroke-miterlimit="10" stroke-linecap="round" stroke-linejoin="round"/>
<path d="M13.2251 316.259C12.0251 314.659 11.5251 311.559 11.9251 306.959" stroke="#F09897" stroke-width="1.106" stroke-miterlimit="10" stroke-linecap="round" stroke-linejoin="round"/>
<path d="M8.52539 307.059C8.22539 308.959 8.52539 311.959 9.02539 313.959C5.72539 314.259 5.02539 312.059 5.02539 307.959C4.82539 304.659 6.3254 299.759 7.7254 293.859" stroke="#F09897" stroke-width="1.106" stroke-miterlimit="10" stroke-linecap="round" stroke-linejoin="round"/>
<path d="M92.6255 293.859L92.5255 301.559C92.6255 305.059 91.1255 311.159 93.0255 311.959C96.2255 312.959 97.2255 305.759 97.2255 305.759C97.2255 307.859 97.0255 310.059 96.4255 312.259C95.7255 313.959 93.2255 315.859 94.4255 317.059C95.3254 317.959 97.3255 317.959 99.2255 316.159C101.125 317.059 102.625 316.359 103.425 313.759C111.525 314.859 106.325 300.559 103.925 289.959L92.6255 293.859Z" fill="#FFC7B1"/>
<path d="M27.0253 328.659L20.2253 403.859H36.3253L48.4253 335.259V328.659H27.0253Z" fill="#FFC7B1"/>
<path d="M48.4253 328.659V335.259L37.9611 394.584C31.0138 395.098 27.3257 394.8 21.212 392.947L27.0253 328.659H48.4253Z" fill="#F09897"/>
<path d="M83.1252 328.659L89.8252 403.859H73.7252L60.1252 326.059L83.1252 328.659Z" fill="#FFC7B1"/>
<path d="M83.1251 328.659L60.1251 326.059L72.2055 395.166C78.8228 396.475 82.3895 396.227 88.9873 394.456L83.1251 328.659Z" fill="#F09897"/>
<path d="M73.2253 400.859L73.3253 415.159C73.3253 415.959 73.7253 416.659 74.4253 416.959C78.2253 418.759 90.8253 424.459 96.7253 425.859C110.625 429.059 112.425 417.359 105.425 413.259C102.225 411.559 91.3253 405.459 89.5253 400.859C88.6253 402.759 74.8253 402.959 73.2253 400.859Z" fill="#802916"/>
<path d="M95.1255 406.759C91.6255 405.559 88.8255 407.259 86.3255 410.559" stroke="white" stroke-width="2" stroke-miterlimit="10" stroke-linecap="round" stroke-linejoin="round"/>
<path d="M99.5254 410.159C96.0254 408.959 93.2254 410.659 90.7254 413.959" stroke="white" stroke-width="2" stroke-miterlimit="10" stroke-linecap="round" stroke-linejoin="round"/>
<path d="M82.5254 289.659L88.5254 389.159C81.6254 390.659 74.7254 390.659 67.8254 389.159L55.6254 317.759L42.1254 389.159C35.0254 390.559 28.1254 390.759 21.5254 389.159L28.9254 289.659H82.5254Z" fill="#2E2F74"/>
<path d="M92.6253 293.859L82.6253 239.159L82.1253 233.259L96.4253 233.059L103.925 290.059L92.6253 293.859Z" fill="#FFC7B1"/>
<path d="M47.3253 195.759C40.9253 198.859 34.3253 199.959 27.5253 201.559C25.6253 202.059 23.9253 203.159 22.7253 204.659C16.9253 212.159 14.9253 218.859 8.82529 227.559C19.0253 235.659 30.3253 233.759 30.3253 233.759L26.4253 288.859C44.9253 294.459 65.9253 294.159 85.3253 288.859L82.6253 235.459C91.3253 236.559 97.0253 232.859 102.425 227.859C98.0253 220.959 94.1253 213.659 90.9253 205.859C90.0253 203.759 88.3253 202.259 86.2253 201.459C81.6253 199.959 76.4936 197.927 72.2936 196.327L66.8253 213.659L47.3253 195.759Z" fill="#F69B36"/>
<path d="M30.0026 233.732C20.2054 233.994 15.7545 232.35 8.89111 227.528" stroke="#0D0E39" stroke-width="2" stroke-linecap="round" stroke-linejoin="round"/>
<path d="M29.5254 240.759L19.8254 293.859" stroke="#0D0E39" stroke-width="1.4106" stroke-miterlimit="10" stroke-linecap="round" stroke-linejoin="round"/>
<path d="M102.425 227.959C96.9253 233.359 91.4253 236.459 83.1253 235.559L82.1253 223.359" stroke="#0D0E39" stroke-width="1.9946" stroke-miterlimit="10" stroke-linecap="round" stroke-linejoin="round"/>
<path d="M85.7251 203.659C83.8251 207.259 82.7251 210.959 82.5251 214.559" stroke="#0D0E39" stroke-width="1.4959" stroke-miterlimit="10" stroke-linecap="round" stroke-linejoin="round"/>
<path d="M27.2255 204.159C27.2255 204.159 30.8255 207.359 31.6255 214.359" stroke="#0D0E39" stroke-width="1.4959" stroke-miterlimit="10" stroke-linecap="round" stroke-linejoin="round"/>
<path d="M32.9253 219.159C33.0253 224.459 31.9253 226.359 30.3253 233.759" stroke="#0D0E39" stroke-width="1.4959" stroke-miterlimit="10" stroke-linecap="round" stroke-linejoin="round"/>
<path d="M67.9254 191.459L64.4254 211.859C57.9622 207.035 50.9271 199.191 50.7254 188.059C48.8254 189.359 47.4254 191.159 46.3254 192.859C42.6254 198.559 41.4254 205.559 43.2254 212.159C44.0254 214.959 44.8254 217.959 45.7254 220.859C46.2254 222.259 47.7254 222.959 49.1254 222.359L59.5254 217.659L60.7254 234.759C60.8254 236.059 62.7254 236.259 63.0254 234.959C64.3254 229.959 65.6254 224.159 67.0254 217.959C68.9254 218.959 71.0254 219.859 73.4254 220.559C75.0254 221.059 76.6254 219.959 76.8254 218.359C77.8254 208.459 75.2254 199.459 69.0254 191.159C68.7254 190.759 68.0254 190.859 67.9254 191.459Z" fill="#904FBE"/>
<path d="M62.3255 225.159C63.1255 225.459 67.2255 214.159 64.4255 213.659C61.8255 213.259 61.5255 224.859 62.3255 225.159Z" fill="#0D0E39"/>
<path d="M67.8252 193.459V187.959H50.7252V193.459C52.8365 201.108 60.2742 208.725 64.459 211.237C65.677 207.314 67.5939 196.999 67.8252 193.459Z" fill="#FFC7B1"/>
<path d="M64.4253 211.859C56.9253 205.059 50.3253 198.559 50.3253 188.559" stroke="white" stroke-width="2" stroke-miterlimit="10" stroke-linecap="round" stroke-linejoin="round"/>
<path d="M67.8252 193.459V187.959H50.7252C50.7252 187.959 55.6653 197.75 67.2653 197.75C67.6159 196.389 67.8252 194.859 67.8252 193.459Z" fill="#F09897"/>
<path d="M92.9255 311.959C95.9255 313.159 97.1255 308.059 96.9255 302.459" stroke="#F09897" stroke-width="1.106" stroke-miterlimit="10" stroke-linecap="round" stroke-linejoin="round"/>
<path d="M99.2255 316.259C100.426 314.659 100.926 311.559 100.526 306.959" stroke="#F09897" stroke-width="1.106" stroke-miterlimit="10" stroke-linecap="round" stroke-linejoin="round"/>
<path d="M103.925 307.059C104.225 308.959 103.925 311.959 103.425 313.959C106.725 314.259 107.425 312.059 107.425 307.959C107.625 304.659 106.125 299.759 104.725 293.859" stroke="#F09897" stroke-width="1.106" stroke-miterlimit="10" stroke-linecap="round" stroke-linejoin="round"/>
<path d="M36.8252 400.859L36.7252 415.159C36.7252 415.959 36.3252 416.659 35.6252 416.959C31.8252 418.759 19.2252 424.459 13.3252 425.859C-0.574806 429.059 -2.2748 417.359 4.7252 413.259C7.9252 411.559 18.8252 405.459 20.6252 400.859C21.5252 402.759 35.2252 402.959 36.8252 400.859Z" fill="#802916"/>
<path d="M15.0252 406.759C18.5252 405.559 21.3252 407.259 23.8252 410.559" stroke="white" stroke-width="2" stroke-miterlimit="10" stroke-linecap="round" stroke-linejoin="round"/>
<path d="M10.6253 410.159C14.1253 408.959 16.9253 410.659 19.4253 413.959" stroke="white" stroke-width="2" stroke-miterlimit="10" stroke-linecap="round" stroke-linejoin="round"/>
<path d="M87.1253 143.959C107.825 193.359 51.5253 208.059 38.6253 174.159C32.6253 176.159 22.8253 165.059 27.0253 160.759L29.5253 151.259L79.7253 131.859L87.1253 143.959Z" fill="#FFC7B1"/>
<path d="M91.6251 144.459C91.6251 153.059 90.0251 149.759 87.0251 145.659C87.0251 145.659 85.8251 146.259 84.9251 146.159C84.0251 146.059 80.2251 140.759 80.2251 140.759C79.6251 139.959 78.2251 140.259 78.3251 141.359V146.859C78.3251 147.359 78.0251 147.859 77.5251 147.959L69.2251 149.959C68.8251 150.059 68.4251 149.959 68.1251 149.659L63.9251 145.159L65.9251 149.559C66.2251 150.159 65.8251 150.959 65.2251 151.059L57.8251 152.959C57.4251 153.059 57.0251 152.959 56.8251 152.659L53.1251 149.159C52.0251 148.059 50.6251 149.159 51.2251 150.359L52.2251 152.659C52.3251 152.959 52.2251 153.259 52.0251 153.359C47.0251 156.459 41.9251 160.459 42.0251 169.059C42.0251 170.559 39.8251 170.559 39.8251 169.059C39.8251 161.959 31.7251 155.859 26.9251 160.759C19.8251 141.959 32.1251 125.759 43.1251 121.559C41.7251 120.159 39.2251 120.559 37.3251 120.459C36.8251 120.459 36.6251 119.859 36.9251 119.559C38.9251 117.559 42.5251 118.059 44.5251 119.959C44.5251 119.959 45.2251 116.159 46.9251 116.859C48.3251 117.459 46.7251 119.959 46.7251 119.959C65.5251 114.059 86.0251 123.059 92.2251 142.059C92.6251 143.359 92.5251 144.259 91.6251 144.459Z" fill="#0D0E39"/>
<path d="M35.4248 166.259C34.2248 164.459 32.7248 163.559 30.6248 164.459" stroke="#F09897" stroke-width="1.5" stroke-miterlimit="10" stroke-linecap="round" stroke-linejoin="round"/>
<path d="M37.0249 131.059C35.0249 132.859 33.3249 135.059 32.1249 137.859" stroke="white" stroke-width="1.9354" stroke-miterlimit="10" stroke-linecap="round" stroke-linejoin="round"/>
<path d="M74.8252 144.659C72.9252 139.359 69.1252 134.059 63.5252 128.759" stroke="white" stroke-width="0.8295" stroke-miterlimit="10" stroke-linecap="round" stroke-linejoin="round"/>
<path d="M69.625 144.259C68.325 141.159 66.325 138.359 63.825 135.759" stroke="white" stroke-width="0.8295" stroke-miterlimit="10" stroke-linecap="round" stroke-linejoin="round"/>
<path d="M60.125 149.459C58.825 144.859 57.225 140.659 55.225 136.759" stroke="white" stroke-width="0.8295" stroke-miterlimit="10" stroke-linecap="round" stroke-linejoin="round"/>
<path d="M86.9253 151.759C85.0253 150.659 81.7253 150.159 79.9253 151.959" stroke="#6B3A52" stroke-width="1.106" stroke-miterlimit="10" stroke-linecap="round" stroke-linejoin="round"/>
<path d="M67.6255 154.159C64.8255 153.259 60.9255 154.059 58.2255 157.059" stroke="#6B3A52" stroke-width="1.106" stroke-miterlimit="10" stroke-linecap="round" stroke-linejoin="round"/>
<path d="M79.7255 160.759C79.7255 161.959 80.0255 163.159 80.4255 164.059C83.1255 162.659 85.2255 163.959 85.2255 163.959C85.6255 163.059 85.8255 161.859 85.7255 160.559C85.6255 157.559 84.2255 155.159 82.5255 155.159C80.9255 155.259 79.6255 157.759 79.7255 160.759Z" fill="white"/>
<path d="M80.6036 159.837C80.4056 158.75 80.9057 157.749 81.7207 157.6C82.5357 157.452 83.3569 158.212 83.555 159.299C83.753 160.385 83.2529 161.387 82.4379 161.535C81.6229 161.684 80.8016 160.923 80.6036 159.837Z" fill="#6B3A52"/>
<path d="M86.6255 164.659C84.4255 162.959 81.3255 162.759 79.9255 165.059" stroke="#F09897" stroke-width="1.6589" stroke-miterlimit="10" stroke-linecap="round" stroke-linejoin="round"/>
<path d="M61.5255 163.459C61.8255 164.559 62.2255 165.559 62.8255 166.459C62.8255 166.459 64.9255 164.959 69.0255 165.859C69.3255 164.659 69.3255 163.259 69.0255 161.759C68.2255 158.459 65.9255 156.159 63.9255 156.659C61.8255 157.159 60.8255 160.159 61.5255 163.459Z" fill="white"/>
<path d="M62.3841 161.751C62.2058 160.773 62.722 159.86 63.537 159.711C64.352 159.563 65.1572 160.235 65.3355 161.213C65.5137 162.191 64.9975 163.105 64.1825 163.253C63.3675 163.402 62.5623 162.729 62.3841 161.751Z" fill="#6B3A52"/>
<path d="M70.7251 166.159C66.7251 164.959 63.5251 165.459 61.3251 167.759" stroke="#F09897" stroke-width="1.6589" stroke-miterlimit="10" stroke-linecap="round" stroke-linejoin="round"/>
<path d="M76.3255 160.359C76.7255 164.959 78.2255 168.859 80.6255 171.359C78.0255 172.659 75.6255 172.959 75.6255 172.959" stroke="#F09897" stroke-width="1.6589" stroke-miterlimit="10" stroke-linecap="round" stroke-linejoin="round"/>
<path d="M75.2251 180.559C71.9251 181.459 69.1251 180.359 66.8251 177.259" stroke="#E5577A" stroke-width="1.6589" stroke-miterlimit="10" stroke-linecap="round" stroke-linejoin="round"/>
<path d="M67.8252 175.759C66.9252 176.559 66.2252 177.359 65.7252 178.459" stroke="#E5577A" stroke-width="1.6589" stroke-miterlimit="10" stroke-linecap="round" stroke-linejoin="round"/>
<path d="M82.8252 294.659C67.5252 298.959 45.4252 298.859 28.5252 294.459" stroke="black" stroke-width="1.4106" stroke-miterlimit="10" stroke-linecap="round" stroke-linejoin="round"/>
<path d="M56.7251 311.659L42.0251 389.159C37.3251 390.359 33.2251 390.659 29.5251 390.259" stroke="black" stroke-width="2" stroke-miterlimit="10" stroke-linecap="round" stroke-linejoin="round"/>
<path d="M67.8254 389.259C74.4254 391.059 81.3254 390.859 88.5254 389.259" stroke="black" stroke-width="2" stroke-miterlimit="10" stroke-linecap="round" stroke-linejoin="round"/>
<path d="M83.1759 235.585L92.6255 293.859" stroke="#0D0E39" stroke-width="2" stroke-miterlimit="10" stroke-linecap="round" stroke-linejoin="round"/>
<path d="M651.623 297.691L659.345 383.094L660.279 393.418H639.784L638.123 384.003L624.381 306.093V297.691H651.623Z" fill="#FFC7B1"/>
<path d="M624.381 297.691V306.093L637.963 383.094C645.593 384.259 650.095 384.417 659.267 382.23L651.623 297.691H624.381Z" fill="#F09897"/>
<path d="M576.635 297.691L567.979 393.418H588.474L603.876 306.093V297.691H576.635Z" fill="#FFC7B1"/>
<path d="M603.876 297.691V306.093L590.121 384.077C581.831 385.353 577.174 385.175 568.875 383.509L576.635 297.691H603.876Z" fill="#F09897"/>
<path d="M578.806 204.711L564.668 376.872C573.452 378.782 588.735 378.782 597.519 376.872L613.049 254.565L630.234 376.872C639.272 378.654 651.398 379.76 662.957 376.872L647.037 204.711H578.806Z" fill="#2E2F74"/>
<path d="M633.909 367.109C642.821 368.433 651.366 368.285 659.16 366.119" stroke="white" stroke-width="2" stroke-miterlimit="10" stroke-linecap="round" stroke-linejoin="round"/>
<path d="M594.148 368.109C585.237 369.433 576.691 369.286 568.897 367.12" stroke="white" stroke-width="2" stroke-miterlimit="10" stroke-linecap="round" stroke-linejoin="round"/>
<path d="M647.612 244.701C642.744 244.701 639.498 236.587 637.875 227.824" stroke="black" stroke-width="2" stroke-miterlimit="10" stroke-linecap="round" stroke-linejoin="round"/>
<path d="M579.895 244.701C584.763 244.701 588.009 236.587 589.631 227.824" stroke="black" stroke-width="2" stroke-miterlimit="10" stroke-linecap="round" stroke-linejoin="round"/>
<path d="M611.922 246.875L630.956 376.647C634.927 378.069 642.377 378.35 650 378.35" stroke="black" stroke-width="2" stroke-miterlimit="10" stroke-linecap="round" stroke-linejoin="round"/>
<path d="M597.438 377.109C590.288 380.391 572.539 379.679 564.739 376.762" stroke="#222965" stroke-width="2" stroke-miterlimit="10" stroke-linecap="round" stroke-linejoin="round"/>
<path d="M559.202 168.092L563.46 135.852" stroke="white" stroke-width="1.4959" stroke-miterlimit="10" stroke-linecap="round" stroke-linejoin="round"/>
<path d="M661.098 227.942L660.961 238.444C661.098 243.218 659.052 251.538 661.643 252.629C666.008 253.993 667.372 244.173 667.372 244.173C667.372 247.037 667.099 250.037 666.28 253.038C665.326 255.356 661.916 257.948 663.553 259.584C664.78 260.812 667.508 260.812 670.099 258.357C672.691 259.584 674.737 258.63 675.828 255.084C686.875 256.584 679.783 237.08 676.51 222.623L661.098 227.942Z" fill="#FFC7B1"/>
<path d="M661.098 227.943L647.459 153.338L646.777 145.291L666.281 145.018L676.51 222.76L661.098 227.943Z" fill="#FFC7B1"/>
<path d="M661.507 252.629C665.598 254.266 667.235 247.31 666.962 239.672" stroke="#F09897" stroke-width="1.106" stroke-miterlimit="10" stroke-linecap="round" stroke-linejoin="round"/>
<path d="M670.099 258.494C671.736 256.312 672.418 252.083 671.872 245.81" stroke="#F09897" stroke-width="1.106" stroke-miterlimit="10" stroke-linecap="round" stroke-linejoin="round"/>
<path d="M676.509 245.946C676.919 248.537 676.509 252.629 675.827 255.357C680.328 255.766 681.283 252.765 681.283 247.173C681.556 242.672 679.51 235.989 677.601 227.942" stroke="#F09897" stroke-width="1.106" stroke-miterlimit="10" stroke-linecap="round" stroke-linejoin="round"/>
<path d="M565.463 227.942L565.599 238.444C565.463 243.218 567.509 251.538 564.917 252.629C560.553 253.993 559.189 244.173 559.189 244.173C559.189 247.037 559.462 250.037 560.28 253.038C561.235 255.356 564.645 257.948 563.008 259.584C561.78 260.812 559.053 260.812 556.461 258.357C553.87 259.584 551.824 258.63 550.733 255.084C539.685 256.584 546.778 237.08 550.051 222.623L565.463 227.942Z" fill="#FFC7B1"/>
<path d="M565.463 227.943L579.102 153.338L579.784 145.291L560.28 145.018L550.051 222.76L565.463 227.943Z" fill="#FFC7B1"/>
<path d="M565.054 252.629C560.962 254.266 559.326 247.31 559.598 239.672" stroke="#F09897" stroke-width="1.106" stroke-miterlimit="10" stroke-linecap="round" stroke-linejoin="round"/>
<path d="M556.461 258.494C554.825 256.312 554.143 252.083 554.688 245.81" stroke="#F09897" stroke-width="1.106" stroke-miterlimit="10" stroke-linecap="round" stroke-linejoin="round"/>
<path d="M550.051 245.946C549.642 248.537 550.051 252.629 550.733 255.357C546.232 255.766 545.278 252.765 545.278 247.173C545.005 242.672 547.051 235.989 548.96 227.942" stroke="#F09897" stroke-width="1.106" stroke-miterlimit="10" stroke-linecap="round" stroke-linejoin="round"/>
<path d="M623.194 90.4731C630.98 94.2446 647.526 98.016 655.799 99.9626C658.111 100.571 660.179 101.909 661.639 103.734C668.695 112.858 678.938 217.585 678.938 217.585C670.823 222.573 667.261 224.194 656.661 223.671L645.093 136.704L650.873 221.987C628.366 228.8 597.278 228.435 573.676 221.987L579.032 138.772L568.937 225.445C559.879 226.473 554.724 225.346 545.303 218.039C545.303 218.039 555.308 118.333 559.201 108.844C560.296 106.289 563.01 102.474 567.353 101.058C572.949 99.2326 588.035 93.6363 593.144 91.6897L599.471 112.25L623.194 90.4731Z" fill="#904FBE"/>
<path d="M568.997 225.501C559.64 226.012 550.552 223.386 545.407 218.1L550.723 170.281" stroke="#0D0E39" stroke-width="2" stroke-linecap="round" stroke-linejoin="round"/>
<path d="M644.882 136.704L656.701 223.401C664.582 224.787 672.879 222.132 678.97 217.473" stroke="#0D0E39" stroke-width="2" stroke-miterlimit="10" stroke-linecap="round" stroke-linejoin="round"/>
<circle r="2.07075" transform="matrix(-1 0 0 1 607.492 156.089)" fill="white"/>
<circle r="2.07075" transform="matrix(-1 0 0 1 607.492 179.902)" fill="white"/>
<circle r="2.07075" transform="matrix(-1 0 0 1 607.492 205.787)" fill="white"/>
<path d="M576.478 105.305C578.789 109.079 580.688 124.165 579.386 137.855" stroke="#0D0E39" stroke-width="1.4959" stroke-miterlimit="10" stroke-linecap="round" stroke-linejoin="round"/>
<path d="M647.648 100.692C647.648 100.692 643.269 104.585 642.295 113.102" stroke="#0D0E39" stroke-width="1.4959" stroke-miterlimit="10" stroke-linecap="round" stroke-linejoin="round"/>
<path d="M641.749 118.941C641.627 125.389 642.965 127.701 644.912 136.704" stroke="#0D0E39" stroke-width="2" stroke-miterlimit="10" stroke-linecap="round" stroke-linejoin="round"/>
<path d="M604.945 126.241C603.972 126.606 598.984 112.858 602.391 112.25C605.554 111.763 605.919 125.876 604.945 126.241Z" fill="black"/>
<path d="M598.133 85.2419L602.391 110.06C609.204 103.491 617.477 93.7581 619.058 81.1055C621.37 82.687 623.073 84.8769 624.411 86.9451C628.913 93.8797 630.373 102.396 628.183 110.425C627.21 113.832 626.236 117.482 625.141 121.01C624.533 122.713 622.708 123.565 621.005 122.835L608.352 117.117L606.892 137.92C606.771 139.502 604.459 139.745 604.094 138.164C602.513 132.081 600.931 125.025 599.228 117.482C596.916 118.698 594.361 119.793 591.442 120.645C589.495 121.253 587.549 119.915 587.305 117.968C586.089 105.924 589.252 94.9746 596.795 84.8769C597.16 84.3903 598.011 84.5119 598.133 85.2419Z" fill="#00BAC7"/>
<circle r="1.5" transform="matrix(-1 0 0 1 603.319 115.971)" fill="white"/>
<path d="M598.254 87.6747V80.9834H619.058V87.6747C619.058 93.8644 607.033 107.313 602.293 110.006C600.982 102.678 599.634 93.5792 598.254 87.6747Z" fill="#FFC7B1"/>
<path d="M602.391 110.06C611.515 101.787 619.545 93.8793 619.545 81.7134" stroke="white" stroke-width="2" stroke-miterlimit="10" stroke-linecap="round" stroke-linejoin="round"/>
<path d="M598.254 87.6974V80.9834H619.058C619.058 80.9834 613.237 92.0268 599.124 92.0268C598.795 90.6303 598.576 89.3934 598.254 87.6974Z" fill="#F09897"/>
<path d="M639.148 389.599L639.275 408.885C639.275 409.904 639.784 410.795 640.676 411.177C645.513 413.468 663.719 423.974 671.229 425.756C688.924 429.83 691.088 412.769 682.177 407.55C678.103 405.386 662.061 395.454 659.77 389.599C658.624 392.017 641.185 392.272 639.148 389.599Z" fill="#802916"/>
<path d="M589.11 389.599L588.983 408.885C588.983 409.904 588.473 410.795 587.582 411.177C582.745 413.468 564.539 423.974 557.028 425.756C539.334 429.83 537.17 412.769 546.081 407.55C550.154 405.386 566.196 395.454 568.488 389.599C569.633 392.017 587.073 392.272 589.11 389.599Z" fill="#802916"/>
<path d="M666.898 397.109C662.443 395.582 658.879 397.746 655.696 401.947" stroke="white" stroke-width="2" stroke-miterlimit="10" stroke-linecap="round" stroke-linejoin="round"/>
<path d="M561.359 397.109C565.814 395.582 569.379 397.746 572.561 401.947" stroke="white" stroke-width="2" stroke-miterlimit="10" stroke-linecap="round" stroke-linejoin="round"/>
<path d="M672.499 401.438C668.044 399.91 664.48 402.074 661.297 406.275" stroke="white" stroke-width="2" stroke-miterlimit="10" stroke-linecap="round" stroke-linejoin="round"/>
<path d="M678.101 405.238C674.082 403.86 670.867 405.812 667.996 409.602" stroke="white" stroke-width="2" stroke-miterlimit="10" stroke-linecap="round" stroke-linejoin="round"/>
<path d="M555.758 401.438C560.213 399.91 563.778 402.074 566.96 406.275" stroke="white" stroke-width="2" stroke-miterlimit="10" stroke-linecap="round" stroke-linejoin="round"/>
<path d="M550.185 405.213C554.204 403.835 557.42 405.788 560.291 409.577" stroke="white" stroke-width="2" stroke-miterlimit="10" stroke-linecap="round" stroke-linejoin="round"/>
<ellipse cx="633.62" cy="52.7273" rx="8.56654" ry="5.85191" transform="rotate(-40.2916 633.62 52.7273)" fill="#FFC7B1"/>
<path d="M634.714 53.0439C635.688 51.3558 636.824 50.5117 638.366 51.3558" stroke="#F09897" stroke-width="1.5" stroke-miterlimit="10" stroke-linecap="round" stroke-linejoin="round"/>
<ellipse rx="8.56654" ry="5.85191" transform="matrix(-0.762763 -0.646678 -0.646678 0.762763 580.57 52.7273)" fill="#FFC7B1"/>
<path d="M580.052 53.0439C579.078 51.3558 577.942 50.5117 576.4 51.3558" stroke="#F09897" stroke-width="1.5" stroke-miterlimit="10" stroke-linecap="round" stroke-linejoin="round"/>
<path d="M626.773 14.2045C638.789 11.7377 643.368 25.6411 638.789 46.1255C633.793 45.4818 631.709 50.7778 630.524 56.1878C624.264 65.2652 617.275 72.5025 607.25 72.5462C598.135 72.5859 589.792 66.872 583.828 56.1877C583.828 56.1877 581.622 45.3528 576.295 45.8068C573.811 38.59 572.979 29.9594 574.972 22.0535C581.153 -2.46912 621.615 -7.54742 626.773 14.2045Z" fill="#0D0E39"/>
<path d="M584.007 36.6109C582.241 46.8828 580.583 85.0281 607.386 85.0281C629.268 85.0281 633.494 53.1423 629.91 39.7138C624.85 39.7138 623.585 37.5344 620.305 33.8513C615.881 28.8831 594.437 39.7138 584.007 36.6109Z" fill="#FFC7B1"/>
<path d="M602.732 72.5088C607.761 73.3648 611.827 71.4388 614.823 66.4634" stroke="#E5577A" stroke-width="1.83386" stroke-miterlimit="10" stroke-linecap="round" stroke-linejoin="round"/>
<path d="M613.004 64.4839C614.502 65.5004 615.679 66.7309 616.428 68.2289" stroke="#E5577A" stroke-width="1.83386" stroke-miterlimit="10" stroke-linecap="round" stroke-linejoin="round"/>
<path d="M591.872 44.7961C593.744 43.7261 596.954 42.9236 598.613 44.7426" stroke="#6B3A52" stroke-width="1.83386" stroke-miterlimit="10" stroke-linecap="round" stroke-linejoin="round"/>
<path d="M599.789 53.1422C599.789 54.3192 599.522 55.3892 599.147 56.2452C596.151 55.0682 593.904 56.2987 593.904 56.2987C593.476 55.4427 593.209 54.3727 593.209 53.1957C593.209 50.3603 594.653 48.1133 596.472 48.1133C598.291 48.1133 599.736 50.3603 599.789 53.1422Z" fill="white"/>
<path d="M593.53 56.138C595.51 54.961 598.078 55.3355 599.415 56.1915" stroke="#F09897" stroke-width="2.13951" stroke-miterlimit="10" stroke-linecap="round" stroke-linejoin="round"/>
<path d="M603.481 52.3931C603.534 56.7265 602.625 61.274 600.378 63.6815C602.892 64.9655 605.674 64.912 605.674 64.912" stroke="#F09897" stroke-width="2.13951" stroke-miterlimit="10" stroke-linecap="round" stroke-linejoin="round"/>
<path d="M596.868 52.9818C597.695 52.9818 598.366 52.3111 598.366 51.4838C598.366 50.6565 597.695 49.9858 596.868 49.9858C596.04 49.9858 595.37 50.6565 595.37 51.4838C595.37 52.3111 596.04 52.9818 596.868 52.9818Z" fill="#6B3A52"/>
<path d="M618.247 52.233C618.247 53.41 617.979 54.48 617.551 55.336C614.341 54.159 611.987 55.3895 611.987 55.3895C611.506 54.5335 611.238 53.4635 611.238 52.2865C611.238 49.451 612.79 47.2041 614.716 47.2041C616.642 47.1506 618.247 49.3975 618.247 52.233Z" fill="white"/>
<path d="M611.238 55.175C613.325 54.1585 616.802 54.8005 618.033 55.496" stroke="#F09897" stroke-width="2.13951" stroke-miterlimit="10" stroke-linecap="round" stroke-linejoin="round"/>
<path d="M614.79 52.393C615.617 52.393 616.288 51.7223 616.288 50.895C616.288 50.0676 615.617 49.397 614.79 49.397C613.963 49.397 613.292 50.0676 613.292 50.895C613.292 51.7223 613.963 52.393 614.79 52.393Z" fill="#6B3A52"/>
<path d="M620.601 46.2942C617.712 43.8868 614.716 43.2983 610.703 43.0308" stroke="#6B3A52" stroke-width="1.83386" stroke-miterlimit="10" stroke-linecap="round" stroke-linejoin="round"/>
<path d="M583.818 15.8037C588.633 9.59773 595.909 6.12025 605.057 5.90625" stroke="white" stroke-width="2.13951" stroke-miterlimit="10" stroke-linecap="round" stroke-linejoin="round"/>
<path d="M580.019 22.8121C580.447 21.7957 580.875 20.7792 581.357 19.8162" stroke="white" stroke-width="2.13951" stroke-miterlimit="10" stroke-linecap="round" stroke-linejoin="round"/>
</svg>
