<svg width="375" height="168" viewBox="0 0 375 168" fill="none" xmlns="http://www.w3.org/2000/svg">
<path d="M341.493 82.8772L342.846 65.3506L318.616 82.3852V97.5749L320.031 114.179L329.44 113.072L345.859 94.3771L341.493 82.8772Z" fill="#FFC7B1"/>
<path d="M342.846 65.3506C342.17 78.8799 327.595 90.8103 318.678 91.9787V82.3852L342.846 65.3506Z" fill="#F09897"/>
<path d="M299.737 140.008L294.386 151.077H271.079L280.796 131.89L299.737 140.008Z" fill="#FFC7B1"/>
<path d="M271.079 151.077H285.777L277.967 137.475L271.079 151.077Z" fill="#F09897"/>
<path d="M349.672 93.3931C357.974 97.3904 366.583 100.711 375.439 103.171C376.853 103.54 378.083 104.34 379.067 105.447C392.289 120.636 403.912 135.826 413.874 151.077H302.996L303.918 140.131C293.218 141.484 286.207 136.871 279.565 130.722C285.039 122.235 289.774 113.195 293.71 103.602C294.755 101.08 296.846 99.1123 299.429 98.2514C305.148 96.4065 310.56 94.4386 315.849 92.4092L323.413 113.134L349.672 93.3931Z" fill="#904FBE"/>
<path d="M345.859 144.067L357.851 115.225" stroke="#0D0E39" stroke-width="2.45987" stroke-miterlimit="10" stroke-linecap="round" stroke-linejoin="round"/>
<path d="M414.92 151.077C416.334 147.879 408.832 140.438 402.744 133.674C399.546 132.505 395.364 132.136 391.613 132.813C386.57 133.551 373.902 139.085 368.982 139.085C362.894 138.962 357.359 137.671 352.255 139.454C350.225 140.192 347.95 142.529 345.859 143.944C342.846 146.035 339.586 147.572 338.295 150.954H414.92V151.077Z" fill="#FFC7B1"/>
<path d="M279.504 130.722C286.207 137.425 293.033 141.238 303.242 140.131L304.472 125.125" stroke="#0D0E39" stroke-width="2.45987" stroke-miterlimit="10" stroke-linecap="round" stroke-linejoin="round"/>
<path d="M299.982 100.711C302.319 105.201 303.611 109.69 303.857 114.179" stroke="#0D0E39" stroke-width="1.8449" stroke-miterlimit="10" stroke-linecap="round" stroke-linejoin="round"/>
<path d="M374.639 105.078C370.088 106.369 367.69 109.505 366.768 113.995" stroke="#0D0E39" stroke-width="1.8449" stroke-miterlimit="10" stroke-linecap="round" stroke-linejoin="round"/>
<path d="M365.169 119.837C365.046 126.356 366.399 127.463 368.305 136.687" stroke="#0D0E39" stroke-width="1.8449" stroke-miterlimit="10" stroke-linecap="round" stroke-linejoin="round"/>
<path d="M319.046 85.6258L323.351 110.666C330.116 104.176 339.832 94.0746 341.739 81.6463C341.8 81.4014 342.046 81.3402 342.169 81.5851C345.367 86.8503 348.749 91.8706 352.378 96.7072C353.054 97.5644 353.239 98.7276 352.87 99.7684C350.84 105.646 348.934 113.911 346.474 121.748C345.92 123.462 343.953 124.38 342.292 123.584L329.439 117.768C326.022 116.043 321.845 132.36 318.677 151.073H315.723L320.03 118.258C317.755 119.482 315.111 120.523 312.22 121.441C310.252 122.054 308.284 120.707 308.038 118.686C306.809 106.564 310.006 95.4828 317.632 85.3809C318.062 84.7687 318.923 84.9524 319.046 85.6258Z" fill="#0D0E39"/>
<circle r="1.8449" transform="matrix(-1 0 0 1 323.951 116.024)" fill="white"/>
<circle r="1.8449" transform="matrix(-1 0 0 1 326.587 137.412)" fill="white"/>
<path d="M323.352 110.797C332.576 102.495 339.341 92.9628 342.17 81.5859" stroke="white" stroke-width="1.8449" stroke-miterlimit="10" stroke-linecap="round" stroke-linejoin="round"/>
<path d="M287.192 30.5432C263.024 88.2887 328.825 105.446 343.953 65.8424C350.902 68.1177 362.464 55.1419 357.483 50.1607L354.531 39.0298L295.801 16.3989L287.192 30.5432Z" fill="#FFC7B1"/>
<path d="M347.704 54.2198C349.18 52.1289 350.902 51.0834 353.239 52.1289" stroke="#0D0E39" stroke-width="1.29242" stroke-miterlimit="10" stroke-linecap="round" stroke-linejoin="round"/>
<path d="M287.5 39.6447C289.775 38.3533 293.588 37.7998 295.618 39.9522" stroke="#6B3A52" stroke-width="1.29242" stroke-miterlimit="10" stroke-linecap="round" stroke-linejoin="round"/>
<path d="M310.007 42.4124C313.328 41.4284 317.817 42.3509 320.953 45.7332" stroke="#6B3A52" stroke-width="1.29242" stroke-miterlimit="10" stroke-linecap="round" stroke-linejoin="round"/>
<path d="M295.863 50.0998C295.801 51.5757 295.494 52.8671 295.002 53.9126C291.865 52.3136 289.406 53.8511 289.406 53.8511C288.975 52.7441 288.729 51.3912 288.791 49.9153C288.914 46.4099 290.574 43.5811 292.48 43.6426C294.448 43.7041 295.986 46.5944 295.863 50.0998Z" fill="white"/>
<path d="M294.778 49.0291C294.952 48.0738 294.474 47.1864 293.71 47.0471C292.945 46.9078 292.185 47.5693 292.011 48.5247C291.836 49.48 292.315 50.3673 293.079 50.5066C293.843 50.6459 294.604 49.9844 294.778 49.0291Z" fill="#6B3A52"/>
<path d="M287.807 54.7117C290.39 52.6823 294.018 52.4363 295.617 55.2037" stroke="#F09897" stroke-width="1.93869" stroke-miterlimit="10" stroke-linecap="round" stroke-linejoin="round"/>
<path d="M317.08 53.2972C316.772 54.5886 316.219 55.8185 315.604 56.741C315.604 56.741 313.144 55.0191 308.409 56.0645C308.04 54.6501 307.978 52.9897 308.409 51.2063C309.331 47.3935 312.037 44.6876 314.435 45.3026C316.834 45.9176 318.002 49.4844 317.08 53.2972Z" fill="white"/>
<path d="M315.919 51.0234C316.133 49.8539 315.547 48.7676 314.611 48.5971C313.676 48.4266 312.745 49.2364 312.531 50.4059C312.318 51.5754 312.904 52.6617 313.84 52.8322C314.775 53.0027 315.706 52.1929 315.919 51.0234Z" fill="#6B3A52"/>
<path d="M306.44 56.4336C311.176 55.0191 314.804 55.6341 317.387 58.34" stroke="#F09897" stroke-width="1.93869" stroke-miterlimit="10" stroke-linecap="round" stroke-linejoin="round"/>
<path d="M301.151 48.9922C300.659 54.3424 298.876 58.9547 296.17 61.845C299.245 63.4439 302.074 63.6899 302.074 63.6899" stroke="#F09897" stroke-width="1.93869" stroke-miterlimit="10" stroke-linecap="round" stroke-linejoin="round"/>
<path d="M304.771 72.7302C309.999 73.6526 314.242 71.6232 317.378 66.396" stroke="#E5577A" stroke-width="1.93869" stroke-miterlimit="10" stroke-linecap="round" stroke-linejoin="round"/>
<path d="M315.533 64.3667C317.071 65.4121 318.301 66.7036 319.162 68.3025" stroke="#E5577A" stroke-width="1.53742" stroke-miterlimit="10" stroke-linecap="round" stroke-linejoin="round"/>
<path d="M327.964 33.9873C330.301 46.0406 330.485 56.9871 325.565 72.3613C325.073 73.8987 326.18 75.4976 327.841 75.5591C334.175 75.7436 348.442 75.1901 360.557 68.364C361.603 67.8105 362.279 66.7651 362.402 65.5966C364.677 44.2572 355.883 6.55968 324.151 4.22281C302.012 2.62389 292.05 13.2628 292.05 13.2628C277.29 28.1451 281.472 44.3802 272.432 55.1422C271.633 56.0646 271.694 57.479 272.555 58.4015C275.446 61.5378 279.935 64.4897 283.871 66.2116C280.488 54.2197 281.964 42.0433 287.683 31.5274C287.683 31.5274 289.897 35.9552 295.002 28.8215C295.186 29.744 295.432 30.4819 295.555 31.0354C295.74 31.6504 296.231 32.2039 296.846 32.4498C306.378 36.6931 316.894 36.6931 327.964 33.9873Z" fill="#802916"/>
<path d="M333.068 13.0166C345.737 18.1823 352.194 35.4629 353.485 52.3746" stroke="white" stroke-width="2.45987" stroke-miterlimit="10" stroke-linecap="round" stroke-linejoin="round"/>
<path d="M327.287 16.3379C337.577 23.6758 343.276 45.2414 339.463 64.3669" stroke="white" stroke-width="0.990099" stroke-miterlimit="10" stroke-linecap="round" stroke-linejoin="round"/>
<path d="M325.812 31.9578C325.996 28.76 323.721 23.9632 321.384 19.0435" stroke="white" stroke-width="0.98973" stroke-miterlimit="10" stroke-linecap="round" stroke-linejoin="round"/>
<path d="M318.924 28.8831C317.694 27.0382 316.341 25.4393 314.988 24.2093C314.803 24.0248 314.496 24.1478 314.435 24.4553C314.189 29.1906 312.221 28.8831 309.146 25.0088C309.023 24.8858 308.838 24.9473 308.838 25.1318C308.531 30.6665 306.317 28.6371 300.782 21.6265" stroke="white" stroke-width="0.98973" stroke-miterlimit="10" stroke-linecap="round" stroke-linejoin="round"/>
<path d="M298.384 19.228C297.4 22.1184 297.462 25.7467 298.384 30.0515" stroke="white" stroke-width="0.98973" stroke-miterlimit="10" stroke-linecap="round" stroke-linejoin="round"/>
<path d="M262.931 167.066L251.976 131.842C246.077 129.875 236.189 119.201 243.718 112.235C244.56 108.977 246.583 107.628 249.616 107.909L243.212 95.1002C242.425 93.5833 243.043 91.7294 244.56 90.9428C246.021 90.1563 247.875 90.6619 248.718 92.0664L256.077 104.201L255.122 90.4934C255.01 88.6957 256.358 87.1788 258.156 87.1226H258.212C259.785 87.0664 261.133 88.19 261.358 89.7069L264.336 106.392C273.461 105.466 270.504 122.121 267.65 126.111L286.623 167.066H262.931Z" fill="#FFC7B1"/>
<path d="M249.617 107.909C253.493 114.145 257.426 120.381 254.28 122.01C250.909 123.527 243.774 112.235 243.774 112.235" stroke="#F09897" stroke-width="1.53742" stroke-miterlimit="10" stroke-linecap="round" stroke-linejoin="round"/>
<path d="M248.212 118.246C253.1 126.505 248.324 128.583 243.156 120.887" stroke="#F09897" stroke-width="1.53742" stroke-miterlimit="10" stroke-linecap="round" stroke-linejoin="round"/>
<path d="M264.392 106.392C259.279 106.055 256.92 108.358 257.257 115.606C257.257 115.606 257.481 120.83 260.234 120.83C264.841 120.83 263.774 113.358 263.774 113.358" stroke="#F09897" stroke-width="1.53742" stroke-miterlimit="10" stroke-linecap="round" stroke-linejoin="round"/>
<path d="M36.8692 83.5232L35.5294 66.106L59.4629 83.036V98.0173L58.1231 114.521L48.8055 113.364L32.5453 94.9115L36.8692 83.5232Z" fill="#FFC7B1"/>
<path d="M35.5294 66.106C36.1993 79.5039 50.6325 92.5262 59.4629 93.6833V82.9751L35.5294 66.106Z" fill="#F09897"/>
<path d="M78.2198 140.099L83.4571 151H106.538L96.916 132L78.2198 140.099Z" fill="#FFC7B1"/>
<path d="M28.7083 93.8763C20.4868 97.8347 11.9609 101.123 3.19137 103.559C1.79068 103.925 0.572678 104.716 -0.401711 105.813C-13.4951 120.855 -25.0051 135.897 -34.8709 151H74.9311L73.4086 140.16C84.0051 141.5 91.5566 136.932 98.1338 130.842C92.7137 122.438 88.0245 113.486 84.1269 103.986C83.0916 101.489 81.021 99.5399 78.4632 98.6873C72.7996 96.8603 67.4404 94.9115 62.203 92.9019L54.7733 113.425L28.7083 93.8763Z" fill="#F69B36"/>
<path d="M32.5449 144.058L20.6695 115.557" stroke="#0D0E39" stroke-width="2.41567" stroke-miterlimit="10" stroke-linecap="round" stroke-linejoin="round"/>
<path d="M-35.8447 151C-37.2454 147.833 -29.8157 140.465 -23.7866 133.766C-20.6198 132.608 -16.4787 132.243 -12.7638 132.913C-7.77003 133.644 4.77528 139.125 9.64724 139.125C15.6763 139.003 21.1573 137.724 26.2119 139.49C28.2216 140.221 30.4749 142.535 32.5455 143.936C35.5296 146.006 38.7572 147.529 40.0361 150.878H-35.8447V151Z" fill="#FFC7B1"/>
<path d="M98.2559 130.842C91.6178 137.48 83.64 141.256 73.5306 140.16V125.3" stroke="#0D0E39" stroke-width="2.41567" stroke-miterlimit="10" stroke-linecap="round" stroke-linejoin="round"/>
<path d="M77.915 101.123C75.6009 105.569 74.322 110.014 74.0784 114.46" stroke="#0D0E39" stroke-width="1.81176" stroke-miterlimit="10" stroke-linecap="round" stroke-linejoin="round"/>
<path d="M4.04372 105.447C8.55029 106.726 10.9254 109.832 11.8389 114.278" stroke="#0D0E39" stroke-width="1.81176" stroke-miterlimit="10" stroke-linecap="round" stroke-linejoin="round"/>
<path d="M13.3615 120.063C13.4833 126.518 12.1435 127.615 10.2556 136.749" stroke="#0D0E39" stroke-width="1.81176" stroke-miterlimit="10" stroke-linecap="round" stroke-linejoin="round"/>
<path d="M59.0363 86.2028C59.0401 96.5071 58.1525 101.972 54.7733 111.111C48.0744 104.655 38.4522 94.6069 36.5643 82.2443C36.5034 82.0007 36.2598 81.9398 36.138 82.1834C32.9713 87.4208 29.6218 92.4145 26.0287 97.2256C25.3588 98.0782 25.1761 99.2353 25.5415 100.271C27.5512 106.117 29.4391 114.338 31.8751 122.134C32.4232 123.839 34.372 124.752 36.0162 123.96L48.8052 118.175L50.3276 139.124C50.4494 140.769 52.7636 140.951 53.1899 139.368C54.7733 133.278 56.4176 126.153 58.1228 118.662C60.3761 119.88 62.9948 120.916 65.857 121.829C67.8058 122.438 69.7546 121.098 69.9982 119.089C71.2162 107.03 68.0494 96.0076 60.4979 85.9592C60.0107 85.3502 59.1581 85.5938 59.0363 86.2028Z" fill="#904FBE"/>
<circle cx="53.6711" cy="117.386" r="1.81176" fill="white"/>
<path d="M54.7734 111.111C45.6385 102.889 38.9396 93.45 36.1382 82.1836" stroke="white" stroke-width="1.81176" stroke-miterlimit="10" stroke-linecap="round" stroke-linejoin="round"/>
<path d="M90.5821 31.6368C114.516 88.8215 49.3531 105.812 34.3718 66.5931C27.4902 68.8464 16.0411 55.9966 20.9739 51.0637L23.8971 40.0409L82.0562 17.6299L90.5821 31.6368Z" fill="#FFC7B1"/>
<path d="M95.8195 32.1851C95.8195 42.1117 93.9316 38.3359 90.4603 33.5858C90.4603 33.5858 89.1205 34.3166 88.0852 34.1948C87.0499 34.073 82.6652 27.983 82.6652 27.983C81.9344 27.0086 80.4119 27.374 80.4119 28.6529V35.0474C80.4119 35.6564 79.9856 36.1436 79.4375 36.2654L69.8154 38.6404C69.3891 38.7622 68.9019 38.5795 68.5974 38.275L63.7863 33.0377L66.1005 38.0923C66.4659 38.8231 66.0396 39.6757 65.2479 39.8584L56.6002 42.0508C56.1739 42.1726 55.7476 42.0508 55.4431 41.7463L51.1801 37.727C49.9012 36.509 48.3178 37.7269 48.9268 39.0667L50.2666 41.6854C50.3884 41.9899 50.3275 42.3553 50.023 42.538C44.2375 46.0702 38.3912 50.7595 38.4521 60.6861C38.4521 62.4522 35.9552 62.3913 35.9552 60.6861C35.9552 52.4646 26.5158 45.4003 21.0348 51.064C12.8743 29.2619 27.003 10.5657 39.7919 5.63288C38.1476 3.98859 35.3462 4.47579 33.0929 4.35399C32.5448 4.29309 32.3012 3.62319 32.6666 3.2578C34.9808 1.00451 39.122 1.49171 41.4362 3.74499C41.4362 3.74499 42.2279 -0.578875 44.1766 0.0910201C45.76 0.760915 43.9939 3.68409 43.9939 3.68409C65.5524 -2.95396 89.3032 7.45987 96.4894 29.4446C96.9766 30.9062 96.8548 31.9415 95.8195 32.1851Z" fill="#0D0E39"/>
<path d="M30.7178 55.0832C29.2562 53.0126 27.551 51.9773 25.2368 53.0126" stroke="#F09897" stroke-width="1.2692" stroke-miterlimit="10" stroke-linecap="round" stroke-linejoin="round"/>
<path d="M90.2773 40.7113C88.0241 39.4324 84.2483 38.8843 82.2386 41.0158" stroke="#6B3A52" stroke-width="1.2692" stroke-miterlimit="10" stroke-linecap="round" stroke-linejoin="round"/>
<path d="M68.0498 43.3907C64.7612 42.4163 60.3156 43.3298 57.2097 46.6793" stroke="#6B3A52" stroke-width="1.2692" stroke-miterlimit="10" stroke-linecap="round" stroke-linejoin="round"/>
<path d="M81.9951 51.0032C82.056 52.4648 82.3605 53.7437 82.8477 54.779C86.0145 53.1956 88.3896 54.6572 88.3896 54.6572C88.8159 53.561 89.0595 52.2212 88.9986 50.7596C88.8768 47.2883 87.2325 44.4869 85.3446 44.5478C83.3958 44.6696 81.9342 47.5319 81.9951 51.0032Z" fill="white"/>
<path d="M83.538 49.3299C83.367 48.3917 83.8368 47.5203 84.5873 47.3835C85.3378 47.2468 86.0848 47.8964 86.2558 48.8345C86.4268 49.7727 85.957 50.6441 85.2065 50.7809C84.456 50.9176 83.709 50.268 83.538 49.3299Z" fill="#0D0E39"/>
<path d="M89.9736 55.5706C87.4159 53.5609 83.8228 53.3173 82.2394 56.0578" stroke="#F09897" stroke-width="1.90385" stroke-miterlimit="10" stroke-linecap="round" stroke-linejoin="round"/>
<path d="M60.985 54.2309C61.2895 55.5098 61.8376 56.7278 62.4466 57.6413C62.4466 57.6413 64.8826 55.9361 69.5718 56.9714C69.9372 55.5707 69.9981 53.9264 69.5718 52.1603C68.6583 48.3845 65.9787 45.705 63.6037 46.3139C61.2286 46.9229 60.0715 50.3942 60.985 54.2309Z" fill="white"/>
<path d="M62.5233 51.7595C62.3122 50.6014 62.8922 49.5257 63.8187 49.3569C64.7452 49.1881 65.6674 49.9901 65.8785 51.1482C66.0896 52.3063 65.5097 53.382 64.5832 53.5508C63.6567 53.7196 62.7345 52.9176 62.5233 51.7595Z" fill="#0D0E39"/>
<path d="M71.5205 57.2755C66.8312 55.8748 63.2382 56.4838 60.6804 59.1634" stroke="#F09897" stroke-width="1.90385" stroke-miterlimit="10" stroke-linecap="round" stroke-linejoin="round"/>
<path d="M78.0369 50.5767C78.5241 55.8749 80.2901 60.4424 82.9697 63.3047C79.9247 64.8881 77.1234 65.1317 77.1234 65.1317" stroke="#F09897" stroke-width="1.90385" stroke-miterlimit="10" stroke-linecap="round" stroke-linejoin="round"/>
<path d="M73.9541 74.3195C68.8208 75.2254 64.6538 73.2324 61.5738 68.0991" stroke="#E5577A" stroke-width="1.90385" stroke-miterlimit="10" stroke-linecap="round" stroke-linejoin="round"/>
<path d="M63.3857 66.1064C61.8759 67.1331 60.6681 68.4013 59.8226 69.9715" stroke="#E5577A" stroke-width="1.5098" stroke-miterlimit="10" stroke-linecap="round" stroke-linejoin="round"/>
<path d="M32.667 16.6558C30.2919 18.7263 28.404 21.345 27.0642 24.5118" stroke="white" stroke-width="2.22115" stroke-miterlimit="10" stroke-linecap="round" stroke-linejoin="round"/>
<path d="M76.3926 32.4288C74.1393 26.2779 69.8154 20.1271 63.3601 14.0371" stroke="white" stroke-width="0.951896" stroke-miterlimit="10" stroke-linecap="round" stroke-linejoin="round"/>
<path d="M70.3633 31.9416C68.8408 28.4094 66.5875 25.1208 63.6034 22.1367" stroke="white" stroke-width="0.951896" stroke-miterlimit="10" stroke-linecap="round" stroke-linejoin="round"/>
<path d="M59.2803 37.9706C57.8187 32.6723 55.8699 27.8004 53.5557 23.2329" stroke="white" stroke-width="0.951896" stroke-miterlimit="10" stroke-linecap="round" stroke-linejoin="round"/>
<path d="M165.743 144.599L174.318 95.9228C174.379 95.5605 174.077 95.1981 173.715 95.1981C155.235 95.8021 132.105 91.9974 104.807 92.2993C103.66 92.2993 102.694 93.2656 102.694 94.413C102.513 106.129 100.64 127.629 98.889 144.538L165.743 144.599Z" fill="white"/>
<path d="M168.4 151L177.7 100.633C177.881 99.5459 177.036 98.5796 175.888 98.5796C156.019 99.1231 131.44 96.5263 102.633 96.7679C100.338 96.7679 98.5264 98.5192 98.466 100.693C98.1037 113.315 93.1515 133.848 91.2794 151H168.4Z" fill="white"/>
<path d="M170.211 151L179.512 98.3989C179.693 97.2514 178.847 96.2248 177.7 96.2852C157.831 96.8287 133.251 94.1715 104.445 94.3526C102.15 94.3526 100.338 96.2248 100.278 98.4593C99.9152 111.625 96.1709 133.064 94.2987 151H170.211Z" fill="#C6C6C6"/>
<path d="M139.544 136.364C136.604 135.754 134.864 132.162 135.657 128.341C136.449 124.52 139.475 121.916 142.414 122.526C145.353 123.136 147.094 126.728 146.301 130.549C145.509 134.37 142.483 136.973 139.544 136.364Z" fill="white"/>
<path d="M136.029 120.079C133.432 122.012 131.621 124.79 131.138 128.836" stroke="#F63C8F" stroke-width="1.81176" stroke-miterlimit="10" stroke-linecap="round" stroke-linejoin="round"/>
</svg>
