<svg width="327" height="230" viewBox="0 0 327 230" fill="none" xmlns="http://www.w3.org/2000/svg">
<path d="M133.946 24.456C133.946 23.748 133.844 23.142 133.64 22.638C133.436 22.122 133.154 21.702 132.794 21.378C132.434 21.054 132.014 20.814 131.534 20.658C131.054 20.502 130.538 20.424 129.986 20.424C129.35 20.424 128.822 20.466 128.402 20.55V28.488C128.642 28.548 128.906 28.59 129.194 28.614C129.494 28.626 129.794 28.632 130.094 28.632C131.342 28.632 132.296 28.284 132.956 27.588C133.616 26.88 133.946 25.836 133.946 24.456ZM135.926 24.438C135.926 25.41 135.788 26.262 135.512 26.994C135.236 27.714 134.84 28.314 134.324 28.794C133.82 29.274 133.208 29.634 132.488 29.874C131.768 30.102 130.97 30.216 130.094 30.216C129.71 30.216 129.26 30.198 128.744 30.162C128.228 30.126 127.748 30.036 127.304 29.892C126.752 29.712 126.476 29.388 126.476 28.92V19.902C126.476 19.698 126.53 19.542 126.638 19.434C126.758 19.314 126.92 19.224 127.124 19.164C127.544 19.032 128 18.948 128.492 18.912C128.984 18.864 129.464 18.84 129.932 18.84C130.82 18.84 131.63 18.954 132.362 19.182C133.106 19.41 133.742 19.758 134.27 20.226C134.798 20.694 135.206 21.282 135.494 21.99C135.782 22.686 135.926 23.502 135.926 24.438ZM146.154 25.788C146.154 26.472 146.052 27.09 145.848 27.642C145.644 28.194 145.356 28.662 144.984 29.046C144.624 29.43 144.18 29.73 143.652 29.946C143.124 30.15 142.536 30.252 141.888 30.252C141.24 30.252 140.652 30.15 140.124 29.946C139.596 29.73 139.146 29.43 138.774 29.046C138.414 28.662 138.132 28.194 137.928 27.642C137.724 27.09 137.622 26.472 137.622 25.788C137.622 25.104 137.724 24.486 137.928 23.934C138.132 23.382 138.42 22.914 138.792 22.53C139.164 22.146 139.614 21.852 140.142 21.648C140.67 21.432 141.252 21.324 141.888 21.324C142.524 21.324 143.106 21.432 143.634 21.648C144.162 21.852 144.612 22.152 144.984 22.548C145.356 22.932 145.644 23.4 145.848 23.952C146.052 24.492 146.154 25.104 146.154 25.788ZM141.888 22.836C141.168 22.836 140.598 23.094 140.178 23.61C139.758 24.126 139.548 24.852 139.548 25.788C139.548 26.724 139.752 27.45 140.16 27.966C140.568 28.47 141.144 28.722 141.888 28.722C142.632 28.722 143.208 28.47 143.616 27.966C144.024 27.45 144.228 26.724 144.228 25.788C144.228 24.864 144.018 24.144 143.598 23.628C143.19 23.1 142.62 22.836 141.888 22.836ZM153.582 24.168C153.438 24.696 153.282 25.23 153.114 25.77C152.958 26.298 152.796 26.814 152.628 27.318C152.472 27.822 152.316 28.29 152.16 28.722C152.016 29.154 151.884 29.532 151.764 29.856C151.644 29.94 151.5 30.006 151.332 30.054C151.164 30.102 150.954 30.126 150.702 30.126C150.426 30.126 150.18 30.084 149.964 30C149.748 29.916 149.604 29.784 149.532 29.604C149.388 29.316 149.22 28.854 149.028 28.218C148.836 27.582 148.644 26.886 148.452 26.13C148.26 25.374 148.074 24.612 147.894 23.844C147.714 23.076 147.57 22.404 147.462 21.828C147.558 21.72 147.69 21.624 147.858 21.54C148.038 21.444 148.236 21.396 148.452 21.396C148.992 21.396 149.316 21.702 149.424 22.314C149.532 22.926 149.646 23.544 149.766 24.168C149.898 24.792 150.024 25.38 150.144 25.932C150.264 26.472 150.372 26.958 150.468 27.39C150.576 27.81 150.654 28.128 150.702 28.344H150.774C150.834 28.128 150.924 27.816 151.044 27.408C151.176 26.988 151.32 26.514 151.476 25.986C151.644 25.446 151.824 24.87 152.016 24.258C152.208 23.634 152.406 23.016 152.61 22.404C152.886 22.236 153.216 22.152 153.6 22.152C153.876 22.152 154.104 22.2 154.284 22.296C154.476 22.392 154.602 22.53 154.662 22.71C154.854 23.31 155.04 23.904 155.22 24.492C155.4 25.068 155.562 25.608 155.706 26.112C155.862 26.616 155.994 27.06 156.102 27.444C156.222 27.828 156.312 28.128 156.372 28.344H156.462C156.702 27.312 156.954 26.22 157.218 25.068C157.482 23.916 157.704 22.764 157.884 21.612C158.004 21.552 158.136 21.504 158.28 21.468C158.424 21.42 158.568 21.396 158.712 21.396C158.976 21.396 159.186 21.456 159.342 21.576C159.51 21.696 159.594 21.888 159.594 22.152C159.594 22.308 159.558 22.572 159.486 22.944C159.414 23.316 159.312 23.754 159.18 24.258C159.06 24.75 158.922 25.278 158.766 25.842C158.622 26.394 158.472 26.928 158.316 27.444C158.172 27.96 158.028 28.434 157.884 28.866C157.74 29.298 157.62 29.628 157.524 29.856C157.428 29.928 157.284 29.988 157.092 30.036C156.9 30.096 156.684 30.126 156.444 30.126C155.808 30.126 155.436 29.976 155.328 29.676C155.22 29.388 155.094 29.034 154.95 28.614C154.806 28.194 154.656 27.744 154.5 27.264C154.344 26.772 154.188 26.262 154.032 25.734C153.876 25.206 153.726 24.684 153.582 24.168ZM167.192 24.546C167.192 23.958 167.024 23.526 166.688 23.25C166.364 22.974 165.92 22.836 165.356 22.836C164.936 22.836 164.558 22.89 164.222 22.998C163.898 23.106 163.616 23.226 163.376 23.358V29.964C163.292 30 163.172 30.03 163.016 30.054C162.872 30.09 162.71 30.108 162.53 30.108C162.182 30.108 161.924 30.042 161.756 29.91C161.588 29.778 161.504 29.556 161.504 29.244V23.304C161.504 23.028 161.558 22.806 161.666 22.638C161.774 22.47 161.954 22.302 162.206 22.134C162.542 21.93 162.98 21.744 163.52 21.576C164.06 21.408 164.672 21.324 165.356 21.324C166.52 21.324 167.432 21.588 168.092 22.116C168.752 22.632 169.082 23.418 169.082 24.474V29.964C168.998 30 168.878 30.03 168.722 30.054C168.566 30.09 168.398 30.108 168.218 30.108C167.87 30.108 167.612 30.042 167.444 29.91C167.276 29.778 167.192 29.556 167.192 29.244V24.546ZM172.71 30.108C172.362 30.108 172.104 30.042 171.936 29.91C171.768 29.778 171.684 29.556 171.684 29.244V18.318C171.768 18.294 171.888 18.264 172.044 18.228C172.2 18.192 172.368 18.174 172.548 18.174C172.896 18.174 173.154 18.24 173.322 18.372C173.49 18.504 173.574 18.726 173.574 19.038V29.964C173.478 30 173.352 30.03 173.196 30.054C173.052 30.09 172.89 30.108 172.71 30.108ZM184.246 25.788C184.246 26.472 184.144 27.09 183.94 27.642C183.736 28.194 183.448 28.662 183.076 29.046C182.716 29.43 182.272 29.73 181.744 29.946C181.216 30.15 180.628 30.252 179.98 30.252C179.332 30.252 178.744 30.15 178.216 29.946C177.688 29.73 177.238 29.43 176.866 29.046C176.506 28.662 176.224 28.194 176.02 27.642C175.816 27.09 175.714 26.472 175.714 25.788C175.714 25.104 175.816 24.486 176.02 23.934C176.224 23.382 176.512 22.914 176.884 22.53C177.256 22.146 177.706 21.852 178.234 21.648C178.762 21.432 179.344 21.324 179.98 21.324C180.616 21.324 181.198 21.432 181.726 21.648C182.254 21.852 182.704 22.152 183.076 22.548C183.448 22.932 183.736 23.4 183.94 23.952C184.144 24.492 184.246 25.104 184.246 25.788ZM179.98 22.836C179.26 22.836 178.69 23.094 178.27 23.61C177.85 24.126 177.64 24.852 177.64 25.788C177.64 26.724 177.844 27.45 178.252 27.966C178.66 28.47 179.236 28.722 179.98 28.722C180.724 28.722 181.3 28.47 181.708 27.966C182.116 27.45 182.32 26.724 182.32 25.788C182.32 24.864 182.11 24.144 181.69 23.628C181.282 23.1 180.712 22.836 179.98 22.836ZM189.474 28.794C189.894 28.794 190.26 28.752 190.572 28.668C190.884 28.584 191.106 28.494 191.238 28.398V26.112L189.276 26.31C188.724 26.37 188.31 26.496 188.034 26.688C187.758 26.868 187.62 27.15 187.62 27.534C187.62 27.93 187.77 28.242 188.07 28.47C188.37 28.686 188.838 28.794 189.474 28.794ZM189.438 21.324C190.554 21.324 191.442 21.57 192.102 22.062C192.762 22.542 193.092 23.304 193.092 24.348V28.542C193.092 28.818 193.026 29.034 192.894 29.19C192.774 29.334 192.606 29.472 192.39 29.604C192.078 29.784 191.676 29.94 191.184 30.072C190.692 30.204 190.122 30.27 189.474 30.27C188.31 30.27 187.398 30.042 186.738 29.586C186.09 29.13 185.766 28.458 185.766 27.57C185.766 26.778 186.018 26.172 186.522 25.752C187.038 25.332 187.776 25.074 188.736 24.978L191.238 24.726V24.33C191.238 23.802 191.064 23.418 190.716 23.178C190.38 22.938 189.906 22.818 189.294 22.818C188.814 22.818 188.352 22.884 187.908 23.016C187.464 23.148 187.068 23.298 186.72 23.466C186.6 23.37 186.498 23.256 186.414 23.124C186.33 22.98 186.288 22.824 186.288 22.656C186.288 22.452 186.336 22.284 186.432 22.152C186.54 22.02 186.702 21.906 186.918 21.81C187.254 21.642 187.638 21.522 188.07 21.45C188.502 21.366 188.958 21.324 189.438 21.324ZM199.28 21.324C199.64 21.324 199.976 21.366 200.288 21.45C200.612 21.522 200.894 21.618 201.134 21.738V18.318C201.218 18.294 201.338 18.264 201.494 18.228C201.65 18.192 201.818 18.174 201.998 18.174C202.346 18.174 202.604 18.24 202.772 18.372C202.94 18.504 203.024 18.726 203.024 19.038V28.47C203.024 28.722 202.97 28.932 202.862 29.1C202.754 29.256 202.586 29.406 202.358 29.55C202.082 29.73 201.704 29.892 201.224 30.036C200.756 30.18 200.216 30.252 199.604 30.252C198.92 30.252 198.296 30.168 197.732 30C197.168 29.82 196.688 29.55 196.292 29.19C195.896 28.818 195.59 28.356 195.374 27.804C195.158 27.24 195.05 26.58 195.05 25.824C195.05 25.044 195.158 24.372 195.374 23.808C195.602 23.232 195.908 22.764 196.292 22.404C196.676 22.032 197.12 21.762 197.624 21.594C198.14 21.414 198.692 21.324 199.28 21.324ZM201.152 23.322C200.948 23.19 200.708 23.076 200.432 22.98C200.156 22.884 199.85 22.836 199.514 22.836C199.154 22.836 198.818 22.89 198.506 22.998C198.206 23.106 197.942 23.286 197.714 23.538C197.486 23.778 197.306 24.09 197.174 24.474C197.042 24.846 196.976 25.302 196.976 25.842C196.976 26.85 197.21 27.582 197.678 28.038C198.158 28.494 198.794 28.722 199.586 28.722C199.946 28.722 200.246 28.686 200.486 28.614C200.738 28.53 200.96 28.434 201.152 28.326V23.322ZM210.598 26.742C210.766 27.426 211.09 27.936 211.57 28.272C212.062 28.596 212.686 28.758 213.442 28.758C213.946 28.758 214.408 28.68 214.828 28.524C215.248 28.368 215.584 28.2 215.836 28.02C216.172 28.212 216.34 28.482 216.34 28.83C216.34 29.034 216.262 29.226 216.106 29.406C215.95 29.574 215.734 29.724 215.458 29.856C215.194 29.976 214.876 30.072 214.504 30.144C214.144 30.216 213.754 30.252 213.334 30.252C212.638 30.252 212.002 30.156 211.426 29.964C210.862 29.772 210.376 29.484 209.968 29.1C209.56 28.716 209.242 28.242 209.014 27.678C208.798 27.114 208.69 26.46 208.69 25.716C208.69 24.996 208.798 24.366 209.014 23.826C209.23 23.274 209.524 22.818 209.896 22.458C210.268 22.086 210.706 21.804 211.21 21.612C211.714 21.42 212.254 21.324 212.83 21.324C213.406 21.324 213.928 21.42 214.396 21.612C214.876 21.792 215.284 22.05 215.62 22.386C215.968 22.71 216.232 23.1 216.412 23.556C216.604 24.012 216.7 24.51 216.7 25.05C216.7 25.35 216.628 25.572 216.484 25.716C216.34 25.848 216.13 25.938 215.854 25.986L210.598 26.742ZM212.83 22.782C212.17 22.782 211.618 23.004 211.174 23.448C210.742 23.892 210.514 24.528 210.49 25.356L214.918 24.726C214.87 24.186 214.672 23.73 214.324 23.358C213.976 22.974 213.478 22.782 212.83 22.782ZM218.614 28.29C218.962 27.846 219.316 27.414 219.676 26.994C220.036 26.562 220.39 26.13 220.738 25.698C220.282 25.122 219.838 24.57 219.406 24.042C218.986 23.514 218.548 22.974 218.092 22.422C218.152 22.122 218.266 21.882 218.434 21.702C218.614 21.522 218.836 21.432 219.1 21.432C219.352 21.432 219.55 21.498 219.694 21.63C219.838 21.762 219.994 21.936 220.162 22.152C220.438 22.524 220.72 22.92 221.008 23.34C221.308 23.748 221.614 24.156 221.926 24.564C222.334 24.036 222.724 23.532 223.096 23.052C223.468 22.56 223.852 22.026 224.248 21.45C224.308 21.438 224.386 21.432 224.482 21.432C224.818 21.432 225.082 21.51 225.274 21.666C225.466 21.822 225.562 22.02 225.562 22.26C225.562 22.44 225.52 22.608 225.436 22.764C225.364 22.908 225.232 23.1 225.04 23.34C224.716 23.736 224.38 24.132 224.032 24.528C223.696 24.924 223.366 25.32 223.042 25.716L225.742 29.19C225.706 29.478 225.598 29.706 225.418 29.874C225.238 30.042 225.01 30.126 224.734 30.126C224.47 30.126 224.254 30.054 224.086 29.91C223.93 29.766 223.75 29.568 223.546 29.316C223.27 28.932 222.982 28.536 222.682 28.128C222.394 27.708 222.112 27.3 221.836 26.904C221.44 27.432 221.044 27.966 220.648 28.506C220.252 29.034 219.868 29.568 219.496 30.108H219.208C218.836 30.108 218.554 30.03 218.362 29.874C218.182 29.718 218.092 29.526 218.092 29.298C218.092 29.142 218.128 28.998 218.2 28.866C218.272 28.722 218.41 28.53 218.614 28.29ZM229.435 27.534C229.435 27.966 229.561 28.272 229.813 28.452C230.065 28.632 230.419 28.722 230.875 28.722C231.079 28.722 231.295 28.692 231.523 28.632C231.751 28.572 231.949 28.5 232.117 28.416C232.201 28.512 232.273 28.62 232.333 28.74C232.405 28.86 232.441 29.004 232.441 29.172C232.441 29.484 232.279 29.742 231.955 29.946C231.643 30.15 231.163 30.252 230.515 30.252C229.615 30.252 228.895 30.054 228.355 29.658C227.827 29.25 227.563 28.584 227.563 27.66V19.254C227.647 19.23 227.767 19.2 227.923 19.164C228.079 19.128 228.247 19.11 228.427 19.11C228.775 19.11 229.027 19.176 229.183 19.308C229.351 19.44 229.435 19.662 229.435 19.974V21.756H232.225C232.273 21.828 232.315 21.93 232.351 22.062C232.399 22.194 232.423 22.332 232.423 22.476C232.423 22.992 232.201 23.25 231.757 23.25H229.435V27.534ZM235.612 26.742C235.78 27.426 236.104 27.936 236.584 28.272C237.076 28.596 237.7 28.758 238.456 28.758C238.96 28.758 239.422 28.68 239.842 28.524C240.262 28.368 240.598 28.2 240.85 28.02C241.186 28.212 241.354 28.482 241.354 28.83C241.354 29.034 241.276 29.226 241.12 29.406C240.964 29.574 240.748 29.724 240.472 29.856C240.208 29.976 239.89 30.072 239.518 30.144C239.158 30.216 238.768 30.252 238.348 30.252C237.652 30.252 237.016 30.156 236.44 29.964C235.876 29.772 235.39 29.484 234.982 29.1C234.574 28.716 234.256 28.242 234.028 27.678C233.812 27.114 233.704 26.46 233.704 25.716C233.704 24.996 233.812 24.366 234.028 23.826C234.244 23.274 234.538 22.818 234.91 22.458C235.282 22.086 235.72 21.804 236.224 21.612C236.728 21.42 237.268 21.324 237.844 21.324C238.42 21.324 238.942 21.42 239.41 21.612C239.89 21.792 240.298 22.05 240.634 22.386C240.982 22.71 241.246 23.1 241.426 23.556C241.618 24.012 241.714 24.51 241.714 25.05C241.714 25.35 241.642 25.572 241.498 25.716C241.354 25.848 241.144 25.938 240.868 25.986L235.612 26.742ZM237.844 22.782C237.184 22.782 236.632 23.004 236.188 23.448C235.756 23.892 235.528 24.528 235.504 25.356L239.932 24.726C239.884 24.186 239.686 23.73 239.338 23.358C238.99 22.974 238.492 22.782 237.844 22.782ZM249.334 24.546C249.334 23.958 249.166 23.526 248.83 23.25C248.506 22.974 248.062 22.836 247.498 22.836C247.078 22.836 246.7 22.89 246.364 22.998C246.04 23.106 245.758 23.226 245.518 23.358V29.964C245.434 30 245.314 30.03 245.158 30.054C245.014 30.09 244.852 30.108 244.672 30.108C244.324 30.108 244.066 30.042 243.898 29.91C243.73 29.778 243.646 29.556 243.646 29.244V23.304C243.646 23.028 243.7 22.806 243.808 22.638C243.916 22.47 244.096 22.302 244.348 22.134C244.684 21.93 245.122 21.744 245.662 21.576C246.202 21.408 246.814 21.324 247.498 21.324C248.662 21.324 249.574 21.588 250.234 22.116C250.894 22.632 251.224 23.418 251.224 24.474V29.964C251.14 30 251.02 30.03 250.864 30.054C250.708 30.09 250.54 30.108 250.36 30.108C250.012 30.108 249.754 30.042 249.586 29.91C249.418 29.778 249.334 29.556 249.334 29.244V24.546ZM259.983 27.678C259.983 28.482 259.683 29.112 259.083 29.568C258.483 30.024 257.613 30.252 256.473 30.252C256.005 30.252 255.573 30.216 255.177 30.144C254.781 30.072 254.439 29.97 254.151 29.838C253.875 29.706 253.659 29.55 253.503 29.37C253.347 29.19 253.269 28.992 253.269 28.776C253.269 28.596 253.311 28.428 253.395 28.272C253.491 28.116 253.617 27.99 253.773 27.894C254.109 28.11 254.493 28.308 254.925 28.488C255.357 28.668 255.861 28.758 256.437 28.758C256.977 28.758 257.391 28.668 257.679 28.488C257.967 28.296 258.111 28.026 258.111 27.678C258.111 27.378 258.009 27.138 257.805 26.958C257.613 26.778 257.325 26.64 256.941 26.544L255.717 26.22C254.901 26.004 254.301 25.71 253.917 25.338C253.533 24.966 253.341 24.456 253.341 23.808C253.341 23.46 253.413 23.136 253.557 22.836C253.701 22.524 253.911 22.26 254.187 22.044C254.475 21.816 254.829 21.642 255.249 21.522C255.669 21.39 256.149 21.324 256.689 21.324C257.121 21.324 257.511 21.36 257.859 21.432C258.219 21.492 258.525 21.582 258.777 21.702C259.041 21.81 259.245 21.948 259.389 22.116C259.533 22.284 259.605 22.464 259.605 22.656C259.605 22.848 259.563 23.016 259.479 23.16C259.395 23.292 259.287 23.4 259.155 23.484C258.939 23.352 258.615 23.208 258.183 23.052C257.763 22.896 257.307 22.818 256.815 22.818C256.311 22.818 255.915 22.908 255.627 23.088C255.339 23.256 255.195 23.496 255.195 23.808C255.195 24.048 255.273 24.246 255.429 24.402C255.597 24.558 255.879 24.684 256.275 24.78L257.319 25.05C258.231 25.29 258.903 25.614 259.335 26.022C259.767 26.43 259.983 26.982 259.983 27.678ZM263.925 29.964C263.841 30 263.721 30.03 263.565 30.054C263.421 30.09 263.253 30.108 263.061 30.108C262.713 30.108 262.455 30.042 262.287 29.91C262.119 29.778 262.035 29.556 262.035 29.244V21.63C262.131 21.606 262.251 21.576 262.395 21.54C262.551 21.504 262.725 21.486 262.917 21.486C263.265 21.486 263.517 21.552 263.673 21.684C263.841 21.816 263.925 22.044 263.925 22.368V29.964ZM261.837 18.984C261.837 18.672 261.945 18.414 262.161 18.21C262.377 17.994 262.653 17.886 262.989 17.886C263.325 17.886 263.595 17.994 263.799 18.21C264.003 18.414 264.105 18.672 264.105 18.984C264.105 19.296 264.003 19.56 263.799 19.776C263.595 19.98 263.325 20.082 262.989 20.082C262.653 20.082 262.377 19.98 262.161 19.776C261.945 19.56 261.837 19.296 261.837 18.984ZM274.58 25.788C274.58 26.472 274.478 27.09 274.274 27.642C274.07 28.194 273.782 28.662 273.41 29.046C273.05 29.43 272.606 29.73 272.078 29.946C271.55 30.15 270.962 30.252 270.314 30.252C269.666 30.252 269.078 30.15 268.55 29.946C268.022 29.73 267.572 29.43 267.2 29.046C266.84 28.662 266.558 28.194 266.354 27.642C266.15 27.09 266.048 26.472 266.048 25.788C266.048 25.104 266.15 24.486 266.354 23.934C266.558 23.382 266.846 22.914 267.218 22.53C267.59 22.146 268.04 21.852 268.568 21.648C269.096 21.432 269.678 21.324 270.314 21.324C270.95 21.324 271.532 21.432 272.06 21.648C272.588 21.852 273.038 22.152 273.41 22.548C273.782 22.932 274.07 23.4 274.274 23.952C274.478 24.492 274.58 25.104 274.58 25.788ZM270.314 22.836C269.594 22.836 269.024 23.094 268.604 23.61C268.184 24.126 267.974 24.852 267.974 25.788C267.974 26.724 268.178 27.45 268.586 27.966C268.994 28.47 269.57 28.722 270.314 28.722C271.058 28.722 271.634 28.47 272.042 27.966C272.45 27.45 272.654 26.724 272.654 25.788C272.654 24.864 272.444 24.144 272.024 23.628C271.616 23.1 271.046 22.836 270.314 22.836ZM282.293 24.546C282.293 23.958 282.125 23.526 281.789 23.25C281.465 22.974 281.021 22.836 280.457 22.836C280.037 22.836 279.659 22.89 279.323 22.998C278.999 23.106 278.717 23.226 278.477 23.358V29.964C278.393 30 278.273 30.03 278.117 30.054C277.973 30.09 277.811 30.108 277.631 30.108C277.283 30.108 277.025 30.042 276.857 29.91C276.689 29.778 276.605 29.556 276.605 29.244V23.304C276.605 23.028 276.659 22.806 276.767 22.638C276.875 22.47 277.055 22.302 277.307 22.134C277.643 21.93 278.081 21.744 278.621 21.576C279.161 21.408 279.773 21.324 280.457 21.324C281.621 21.324 282.533 21.588 283.193 22.116C283.853 22.632 284.183 23.418 284.183 24.474V29.964C284.099 30 283.979 30.03 283.823 30.054C283.667 30.09 283.499 30.108 283.319 30.108C282.971 30.108 282.713 30.042 282.545 29.91C282.377 29.778 282.293 29.556 282.293 29.244V24.546Z" fill="black"/>
<path d="M163.476 118.614C163.476 118.866 163.41 119.076 163.278 119.244C163.158 119.4 162.966 119.544 162.702 119.676C162.39 119.844 161.958 119.982 161.406 120.09C160.854 120.198 160.29 120.252 159.714 120.252C158.862 120.252 158.076 120.144 157.356 119.928C156.648 119.7 156.036 119.352 155.52 118.884C155.004 118.416 154.602 117.822 154.314 117.102C154.026 116.382 153.882 115.53 153.882 114.546C153.882 113.586 154.032 112.746 154.332 112.026C154.632 111.306 155.034 110.712 155.538 110.244C156.054 109.764 156.654 109.404 157.338 109.164C158.034 108.924 158.772 108.804 159.552 108.804C160.068 108.804 160.542 108.852 160.974 108.948C161.406 109.032 161.778 109.146 162.09 109.29C162.402 109.434 162.642 109.602 162.81 109.794C162.978 109.974 163.062 110.166 163.062 110.37C163.062 110.574 163.008 110.754 162.9 110.91C162.792 111.054 162.66 111.168 162.504 111.252C162.18 111.048 161.796 110.856 161.352 110.676C160.908 110.496 160.35 110.406 159.678 110.406C159.138 110.406 158.634 110.496 158.166 110.676C157.698 110.856 157.29 111.12 156.942 111.468C156.606 111.816 156.342 112.248 156.15 112.764C155.958 113.28 155.862 113.874 155.862 114.546C155.862 115.254 155.958 115.872 156.15 116.4C156.354 116.916 156.624 117.342 156.96 117.678C157.308 118.014 157.716 118.266 158.184 118.434C158.664 118.59 159.18 118.668 159.732 118.668C160.116 118.668 160.476 118.638 160.812 118.578C161.148 118.506 161.406 118.422 161.586 118.326V115.446H159.102C159.042 115.374 158.988 115.272 158.94 115.14C158.904 114.996 158.886 114.852 158.886 114.708C158.886 114.432 158.946 114.228 159.066 114.096C159.198 113.964 159.372 113.898 159.588 113.898H162.612C162.864 113.898 163.068 113.976 163.224 114.132C163.392 114.276 163.476 114.486 163.476 114.762V118.614ZM174.013 115.788C174.013 116.472 173.911 117.09 173.707 117.642C173.503 118.194 173.215 118.662 172.843 119.046C172.483 119.43 172.039 119.73 171.511 119.946C170.983 120.15 170.395 120.252 169.747 120.252C169.099 120.252 168.511 120.15 167.983 119.946C167.455 119.73 167.005 119.43 166.633 119.046C166.273 118.662 165.991 118.194 165.787 117.642C165.583 117.09 165.481 116.472 165.481 115.788C165.481 115.104 165.583 114.486 165.787 113.934C165.991 113.382 166.279 112.914 166.651 112.53C167.023 112.146 167.473 111.852 168.001 111.648C168.529 111.432 169.111 111.324 169.747 111.324C170.383 111.324 170.965 111.432 171.493 111.648C172.021 111.852 172.471 112.152 172.843 112.548C173.215 112.932 173.503 113.4 173.707 113.952C173.911 114.492 174.013 115.104 174.013 115.788ZM169.747 112.836C169.027 112.836 168.457 113.094 168.037 113.61C167.617 114.126 167.407 114.852 167.407 115.788C167.407 116.724 167.611 117.45 168.019 117.966C168.427 118.47 169.003 118.722 169.747 118.722C170.491 118.722 171.067 118.47 171.475 117.966C171.883 117.45 172.087 116.724 172.087 115.788C172.087 114.864 171.877 114.144 171.457 113.628C171.049 113.1 170.479 112.836 169.747 112.836ZM181.532 117.534C181.532 117.966 181.658 118.272 181.91 118.452C182.162 118.632 182.516 118.722 182.972 118.722C183.176 118.722 183.392 118.692 183.62 118.632C183.848 118.572 184.046 118.5 184.214 118.416C184.298 118.512 184.37 118.62 184.43 118.74C184.502 118.86 184.538 119.004 184.538 119.172C184.538 119.484 184.376 119.742 184.052 119.946C183.74 120.15 183.26 120.252 182.612 120.252C181.712 120.252 180.992 120.054 180.452 119.658C179.924 119.25 179.66 118.584 179.66 117.66V109.254C179.744 109.23 179.864 109.2 180.02 109.164C180.176 109.128 180.344 109.11 180.524 109.11C180.872 109.11 181.124 109.176 181.28 109.308C181.448 109.44 181.532 109.662 181.532 109.974V111.756H184.322C184.37 111.828 184.412 111.93 184.448 112.062C184.496 112.194 184.52 112.332 184.52 112.476C184.52 112.992 184.298 113.25 183.854 113.25H181.532V117.534ZM194.334 115.788C194.334 116.472 194.232 117.09 194.028 117.642C193.824 118.194 193.536 118.662 193.164 119.046C192.804 119.43 192.36 119.73 191.832 119.946C191.304 120.15 190.716 120.252 190.068 120.252C189.42 120.252 188.832 120.15 188.304 119.946C187.776 119.73 187.326 119.43 186.954 119.046C186.594 118.662 186.312 118.194 186.108 117.642C185.904 117.09 185.802 116.472 185.802 115.788C185.802 115.104 185.904 114.486 186.108 113.934C186.312 113.382 186.6 112.914 186.972 112.53C187.344 112.146 187.794 111.852 188.322 111.648C188.85 111.432 189.432 111.324 190.068 111.324C190.704 111.324 191.286 111.432 191.814 111.648C192.342 111.852 192.792 112.152 193.164 112.548C193.536 112.932 193.824 113.4 194.028 113.952C194.232 114.492 194.334 115.104 194.334 115.788ZM190.068 112.836C189.348 112.836 188.778 113.094 188.358 113.61C187.938 114.126 187.728 114.852 187.728 115.788C187.728 116.724 187.932 117.45 188.34 117.966C188.748 118.47 189.324 118.722 190.068 118.722C190.812 118.722 191.388 118.47 191.796 117.966C192.204 117.45 192.408 116.724 192.408 115.788C192.408 114.864 192.198 114.144 191.778 113.628C191.37 113.1 190.8 112.836 190.068 112.836ZM202.141 115.068V119.982C202.045 120.006 201.919 120.036 201.763 120.072C201.607 120.108 201.433 120.126 201.241 120.126C200.869 120.126 200.599 120.06 200.431 119.928C200.275 119.784 200.197 119.55 200.197 119.226V109.074C200.293 109.05 200.419 109.026 200.575 109.002C200.743 108.966 200.917 108.948 201.097 108.948C201.445 108.948 201.703 109.014 201.871 109.146C202.051 109.278 202.141 109.512 202.141 109.848V113.916L206.767 108.984C207.223 108.996 207.553 109.098 207.757 109.29C207.961 109.47 208.063 109.686 208.063 109.938C208.063 110.142 208.009 110.334 207.901 110.514C207.793 110.682 207.637 110.868 207.433 111.072L204.013 114.456C205.009 115.476 205.879 116.382 206.623 117.174C207.379 117.954 208.027 118.59 208.567 119.082C208.543 119.418 208.429 119.682 208.225 119.874C208.033 120.054 207.799 120.144 207.523 120.144C207.235 120.144 206.989 120.066 206.785 119.91C206.593 119.754 206.395 119.574 206.191 119.37L202.141 115.068ZM216.111 114.744C216.111 114.084 215.931 113.604 215.571 113.304C215.223 112.992 214.761 112.836 214.185 112.836C213.801 112.836 213.447 112.902 213.123 113.034C212.811 113.154 212.535 113.304 212.295 113.484V119.964C212.211 120 212.091 120.03 211.935 120.054C211.791 120.09 211.629 120.108 211.449 120.108C211.101 120.108 210.843 120.042 210.675 119.91C210.507 119.778 210.423 119.556 210.423 119.244V108.318C210.507 108.294 210.627 108.264 210.783 108.228C210.939 108.192 211.107 108.174 211.287 108.174C211.635 108.174 211.887 108.24 212.043 108.372C212.211 108.504 212.295 108.726 212.295 109.038V111.882C212.571 111.738 212.889 111.612 213.249 111.504C213.621 111.384 214.035 111.324 214.491 111.324C215.535 111.324 216.375 111.6 217.011 112.152C217.659 112.704 217.983 113.544 217.983 114.672V119.964C217.899 120 217.779 120.03 217.623 120.054C217.467 120.09 217.305 120.108 217.137 120.108C216.777 120.108 216.513 120.042 216.345 119.91C216.189 119.778 216.111 119.556 216.111 119.244V114.744ZM223.627 118.794C224.047 118.794 224.413 118.752 224.725 118.668C225.037 118.584 225.259 118.494 225.391 118.398V116.112L223.429 116.31C222.877 116.37 222.463 116.496 222.187 116.688C221.911 116.868 221.773 117.15 221.773 117.534C221.773 117.93 221.923 118.242 222.223 118.47C222.523 118.686 222.991 118.794 223.627 118.794ZM223.591 111.324C224.707 111.324 225.595 111.57 226.255 112.062C226.915 112.542 227.245 113.304 227.245 114.348V118.542C227.245 118.818 227.179 119.034 227.047 119.19C226.927 119.334 226.759 119.472 226.543 119.604C226.231 119.784 225.829 119.94 225.337 120.072C224.845 120.204 224.275 120.27 223.627 120.27C222.463 120.27 221.551 120.042 220.891 119.586C220.243 119.13 219.919 118.458 219.919 117.57C219.919 116.778 220.171 116.172 220.675 115.752C221.191 115.332 221.929 115.074 222.889 114.978L225.391 114.726V114.33C225.391 113.802 225.217 113.418 224.869 113.178C224.533 112.938 224.059 112.818 223.447 112.818C222.967 112.818 222.505 112.884 222.061 113.016C221.617 113.148 221.221 113.298 220.873 113.466C220.753 113.37 220.651 113.256 220.567 113.124C220.483 112.98 220.441 112.824 220.441 112.656C220.441 112.452 220.489 112.284 220.585 112.152C220.693 112.02 220.855 111.906 221.071 111.81C221.407 111.642 221.791 111.522 222.223 111.45C222.655 111.366 223.111 111.324 223.591 111.324ZM235.34 114.546C235.34 113.958 235.172 113.526 234.836 113.25C234.512 112.974 234.068 112.836 233.504 112.836C233.084 112.836 232.706 112.89 232.37 112.998C232.046 113.106 231.764 113.226 231.524 113.358V119.964C231.44 120 231.32 120.03 231.164 120.054C231.02 120.09 230.858 120.108 230.678 120.108C230.33 120.108 230.072 120.042 229.904 119.91C229.736 119.778 229.652 119.556 229.652 119.244V113.304C229.652 113.028 229.706 112.806 229.814 112.638C229.922 112.47 230.102 112.302 230.354 112.134C230.69 111.93 231.128 111.744 231.668 111.576C232.208 111.408 232.82 111.324 233.504 111.324C234.668 111.324 235.58 111.588 236.24 112.116C236.9 112.632 237.23 113.418 237.23 114.474V119.964C237.146 120 237.026 120.03 236.87 120.054C236.714 120.09 236.546 120.108 236.366 120.108C236.018 120.108 235.76 120.042 235.592 119.91C235.424 119.778 235.34 119.556 235.34 119.244V114.546ZM249.646 117.264H245.254L244.372 120.018C244.264 120.066 244.15 120.102 244.03 120.126C243.91 120.15 243.766 120.162 243.598 120.162C243.298 120.162 243.052 120.096 242.86 119.964C242.668 119.832 242.572 119.634 242.572 119.37C242.572 119.238 242.59 119.112 242.626 118.992C242.662 118.86 242.71 118.716 242.77 118.56C242.926 118.056 243.142 117.408 243.418 116.616C243.706 115.812 244.006 114.966 244.318 114.078C244.642 113.19 244.966 112.32 245.29 111.468C245.614 110.604 245.896 109.866 246.136 109.254C246.256 109.182 246.442 109.116 246.694 109.056C246.946 108.984 247.204 108.948 247.468 108.948C247.816 108.948 248.128 108.996 248.404 109.092C248.68 109.188 248.866 109.356 248.962 109.596C249.226 110.28 249.514 111.06 249.826 111.936C250.138 112.8 250.45 113.694 250.762 114.618C251.074 115.542 251.374 116.448 251.662 117.336C251.95 118.224 252.208 119.028 252.436 119.748C252.328 119.868 252.184 119.964 252.004 120.036C251.836 120.12 251.632 120.162 251.392 120.162C251.068 120.162 250.834 120.102 250.69 119.982C250.546 119.85 250.426 119.634 250.33 119.334L249.646 117.264ZM247.45 110.622C247.33 110.946 247.198 111.312 247.054 111.72C246.91 112.128 246.76 112.56 246.604 113.016C246.448 113.46 246.292 113.916 246.136 114.384C245.98 114.84 245.83 115.284 245.686 115.716H249.232C249.076 115.236 248.914 114.756 248.746 114.276C248.59 113.784 248.434 113.316 248.278 112.872C248.134 112.428 247.996 112.014 247.864 111.63C247.732 111.234 247.624 110.898 247.54 110.622H247.45ZM258.261 112.854C257.877 112.854 257.523 112.92 257.199 113.052C256.875 113.172 256.593 113.358 256.353 113.61C256.125 113.862 255.939 114.174 255.795 114.546C255.663 114.906 255.597 115.326 255.597 115.806C255.597 116.754 255.843 117.48 256.335 117.984C256.827 118.476 257.469 118.722 258.261 118.722C258.717 118.722 259.107 118.662 259.431 118.542C259.755 118.422 260.037 118.278 260.277 118.11C260.433 118.206 260.559 118.32 260.655 118.452C260.751 118.584 260.799 118.746 260.799 118.938C260.799 119.31 260.553 119.622 260.061 119.874C259.581 120.126 258.945 120.252 258.153 120.252C257.493 120.252 256.887 120.162 256.335 119.982C255.795 119.802 255.327 119.526 254.931 119.154C254.535 118.782 254.223 118.32 253.995 117.768C253.779 117.204 253.671 116.55 253.671 115.806C253.671 115.062 253.785 114.408 254.013 113.844C254.253 113.28 254.571 112.812 254.967 112.44C255.375 112.068 255.849 111.792 256.389 111.612C256.929 111.42 257.499 111.324 258.099 111.324C258.495 111.324 258.849 111.36 259.161 111.432C259.485 111.504 259.761 111.606 259.989 111.738C260.217 111.858 260.391 112.002 260.511 112.17C260.643 112.326 260.709 112.494 260.709 112.674C260.709 112.842 260.661 112.998 260.565 113.142C260.481 113.274 260.373 113.376 260.241 113.448C259.989 113.292 259.707 113.154 259.395 113.034C259.095 112.914 258.717 112.854 258.261 112.854ZM266.008 118.794C266.428 118.794 266.794 118.752 267.106 118.668C267.418 118.584 267.64 118.494 267.772 118.398V116.112L265.81 116.31C265.258 116.37 264.844 116.496 264.568 116.688C264.292 116.868 264.154 117.15 264.154 117.534C264.154 117.93 264.304 118.242 264.604 118.47C264.904 118.686 265.372 118.794 266.008 118.794ZM265.972 111.324C267.088 111.324 267.976 111.57 268.636 112.062C269.296 112.542 269.626 113.304 269.626 114.348V118.542C269.626 118.818 269.56 119.034 269.428 119.19C269.308 119.334 269.14 119.472 268.924 119.604C268.612 119.784 268.21 119.94 267.718 120.072C267.226 120.204 266.656 120.27 266.008 120.27C264.844 120.27 263.932 120.042 263.272 119.586C262.624 119.13 262.3 118.458 262.3 117.57C262.3 116.778 262.552 116.172 263.056 115.752C263.572 115.332 264.31 115.074 265.27 114.978L267.772 114.726V114.33C267.772 113.802 267.598 113.418 267.25 113.178C266.914 112.938 266.44 112.818 265.828 112.818C265.348 112.818 264.886 112.884 264.442 113.016C263.998 113.148 263.602 113.298 263.254 113.466C263.134 113.37 263.032 113.256 262.948 113.124C262.864 112.98 262.822 112.824 262.822 112.656C262.822 112.452 262.87 112.284 262.966 112.152C263.074 112.02 263.236 111.906 263.452 111.81C263.788 111.642 264.172 111.522 264.604 111.45C265.036 111.366 265.492 111.324 265.972 111.324ZM275.813 111.324C276.173 111.324 276.509 111.366 276.821 111.45C277.145 111.522 277.427 111.618 277.667 111.738V108.318C277.751 108.294 277.871 108.264 278.027 108.228C278.183 108.192 278.351 108.174 278.531 108.174C278.879 108.174 279.137 108.24 279.305 108.372C279.473 108.504 279.557 108.726 279.557 109.038V118.47C279.557 118.722 279.503 118.932 279.395 119.1C279.287 119.256 279.119 119.406 278.891 119.55C278.615 119.73 278.237 119.892 277.757 120.036C277.289 120.18 276.749 120.252 276.137 120.252C275.453 120.252 274.829 120.168 274.265 120C273.701 119.82 273.221 119.55 272.825 119.19C272.429 118.818 272.123 118.356 271.907 117.804C271.691 117.24 271.583 116.58 271.583 115.824C271.583 115.044 271.691 114.372 271.907 113.808C272.135 113.232 272.441 112.764 272.825 112.404C273.209 112.032 273.653 111.762 274.157 111.594C274.673 111.414 275.225 111.324 275.813 111.324ZM277.685 113.322C277.481 113.19 277.241 113.076 276.965 112.98C276.689 112.884 276.383 112.836 276.047 112.836C275.687 112.836 275.351 112.89 275.039 112.998C274.739 113.106 274.475 113.286 274.247 113.538C274.019 113.778 273.839 114.09 273.707 114.474C273.575 114.846 273.509 115.302 273.509 115.842C273.509 116.85 273.743 117.582 274.211 118.038C274.691 118.494 275.327 118.722 276.119 118.722C276.479 118.722 276.779 118.686 277.019 118.614C277.271 118.53 277.493 118.434 277.685 118.326V113.322ZM283.528 116.742C283.696 117.426 284.02 117.936 284.5 118.272C284.992 118.596 285.616 118.758 286.372 118.758C286.876 118.758 287.338 118.68 287.758 118.524C288.178 118.368 288.514 118.2 288.766 118.02C289.102 118.212 289.27 118.482 289.27 118.83C289.27 119.034 289.192 119.226 289.036 119.406C288.88 119.574 288.664 119.724 288.388 119.856C288.124 119.976 287.806 120.072 287.434 120.144C287.074 120.216 286.684 120.252 286.264 120.252C285.568 120.252 284.932 120.156 284.356 119.964C283.792 119.772 283.306 119.484 282.898 119.1C282.49 118.716 282.172 118.242 281.944 117.678C281.728 117.114 281.62 116.46 281.62 115.716C281.62 114.996 281.728 114.366 281.944 113.826C282.16 113.274 282.454 112.818 282.826 112.458C283.198 112.086 283.636 111.804 284.14 111.612C284.644 111.42 285.184 111.324 285.76 111.324C286.336 111.324 286.858 111.42 287.326 111.612C287.806 111.792 288.214 112.05 288.55 112.386C288.898 112.71 289.162 113.1 289.342 113.556C289.534 114.012 289.63 114.51 289.63 115.05C289.63 115.35 289.558 115.572 289.414 115.716C289.27 115.848 289.06 115.938 288.784 115.986L283.528 116.742ZM285.76 112.782C285.1 112.782 284.548 113.004 284.104 113.448C283.672 113.892 283.444 114.528 283.42 115.356L287.848 114.726C287.8 114.186 287.602 113.73 287.254 113.358C286.906 112.974 286.408 112.782 285.76 112.782ZM302.038 114.366C302.038 113.838 301.888 113.454 301.588 113.214C301.3 112.962 300.904 112.836 300.4 112.836C300.064 112.836 299.74 112.902 299.428 113.034C299.128 113.154 298.852 113.322 298.6 113.538C298.624 113.634 298.642 113.736 298.654 113.844C298.666 113.952 298.672 114.06 298.672 114.168V119.964C298.588 120 298.468 120.03 298.312 120.054C298.156 120.09 297.994 120.108 297.826 120.108C297.478 120.108 297.22 120.042 297.052 119.91C296.884 119.778 296.8 119.556 296.8 119.244V114.366C296.8 113.838 296.65 113.454 296.35 113.214C296.05 112.962 295.648 112.836 295.144 112.836C294.808 112.836 294.49 112.89 294.19 112.998C293.89 113.106 293.638 113.226 293.434 113.358V119.964C293.35 120 293.23 120.03 293.074 120.054C292.93 120.09 292.768 120.108 292.588 120.108C292.24 120.108 291.982 120.042 291.814 119.91C291.646 119.778 291.562 119.556 291.562 119.244V113.304C291.562 113.028 291.616 112.806 291.724 112.638C291.832 112.47 292.012 112.302 292.264 112.134C292.612 111.906 293.05 111.714 293.578 111.558C294.106 111.402 294.64 111.324 295.18 111.324C295.744 111.324 296.248 111.402 296.692 111.558C297.148 111.714 297.52 111.942 297.808 112.242C298.144 111.978 298.54 111.762 298.996 111.594C299.464 111.414 300.004 111.324 300.616 111.324C301.084 111.324 301.522 111.384 301.93 111.504C302.338 111.612 302.686 111.792 302.974 112.044C303.274 112.284 303.508 112.59 303.676 112.962C303.844 113.334 303.928 113.778 303.928 114.294V119.964C303.832 120 303.706 120.03 303.55 120.054C303.406 120.09 303.244 120.108 303.064 120.108C302.716 120.108 302.458 120.042 302.29 119.91C302.122 119.778 302.038 119.556 302.038 119.244V114.366ZM307.754 118.038C307.454 117.45 307.088 116.616 306.656 115.536C306.224 114.456 305.804 113.232 305.396 111.864C305.504 111.732 305.648 111.624 305.828 111.54C306.008 111.444 306.2 111.396 306.404 111.396C306.668 111.396 306.884 111.462 307.052 111.594C307.22 111.714 307.358 111.93 307.466 112.242C307.79 113.214 308.126 114.174 308.474 115.122C308.822 116.058 309.206 117.03 309.626 118.038H309.698C309.878 117.654 310.058 117.204 310.238 116.688C310.43 116.172 310.616 115.626 310.796 115.05C310.976 114.474 311.144 113.892 311.3 113.304C311.456 112.704 311.594 112.134 311.714 111.594C311.834 111.534 311.954 111.486 312.074 111.45C312.206 111.414 312.356 111.396 312.524 111.396C312.788 111.396 313.01 111.462 313.19 111.594C313.37 111.714 313.46 111.906 313.46 112.17C313.46 112.482 313.376 112.962 313.208 113.61C313.052 114.246 312.842 114.954 312.578 115.734C312.314 116.502 312.014 117.282 311.678 118.074C311.342 118.866 311.006 119.568 310.67 120.18C310.07 121.236 309.524 122.04 309.032 122.592C308.552 123.144 308.096 123.42 307.664 123.42C307.328 123.42 307.058 123.324 306.854 123.132C306.662 122.952 306.542 122.724 306.494 122.448C306.686 122.28 306.896 122.076 307.124 121.836C307.352 121.596 307.58 121.338 307.808 121.062C308.036 120.786 308.252 120.498 308.456 120.198C308.66 119.91 308.834 119.628 308.978 119.352C308.774 119.292 308.576 119.178 308.384 119.01C308.192 118.83 307.982 118.506 307.754 118.038Z" fill="black"/>
<path d="M134.532 106.242C134.695 105.811 135.305 105.811 135.468 106.242L137.364 111.278C137.435 111.465 137.61 111.592 137.809 111.601L143.184 111.849C143.645 111.87 143.834 112.451 143.474 112.739L139.271 116.098C139.115 116.223 139.048 116.429 139.101 116.622L140.526 121.81C140.648 122.255 140.154 122.614 139.769 122.36L135.275 119.401C135.108 119.291 134.892 119.291 134.725 119.401L130.231 122.36C129.846 122.614 129.352 122.255 129.474 121.81L130.899 116.622C130.952 116.429 130.885 116.223 130.729 116.098L126.526 112.739C126.166 112.451 126.355 111.87 126.816 111.849L132.191 111.601C132.39 111.592 132.565 111.465 132.636 111.278L134.532 106.242Z" fill="#FFB61C"/>
<path d="M60 9.41801C60 7.11682 61.8655 5.25134 64.1667 5.25134H76.3033V44.7487H64.1667C61.8655 44.7487 60 42.8832 60 40.582V9.41801Z" fill="#444585"/>
<path d="M68.9089 44.7487H105.833C108.134 44.7487 110 42.8832 110 40.582V9.41801C110 7.11682 108.134 5.25134 105.833 5.25134H68.9089C66.6077 5.25134 64.7422 7.11682 64.7422 9.41801V40.582C64.7422 42.8832 66.6077 44.7487 68.9089 44.7487Z" fill="#00BAC7"/>
<path d="M70.2982 41.2764H104.444C105.595 41.2764 106.528 40.3437 106.528 39.1931V9.41801C106.528 7.11682 104.662 5.25134 102.361 5.25134H72.3815C70.0803 5.25134 68.2148 7.11682 68.2148 9.418V39.1931C68.2148 40.3437 69.1476 41.2764 70.2982 41.2764Z" fill="white"/>
<path d="M73.4824 30.5536V33.0999C73.4824 34.2505 74.4152 35.1833 75.5658 35.1833H85.288C86.4386 35.1833 87.3713 34.2505 87.3713 33.0999V30.5536" stroke="#FFB61C" stroke-width="2.08333" stroke-linecap="round"/>
<path d="M80.4268 21.2944L80.4268 31.1324" stroke="#FFB61C" stroke-width="2.08333" stroke-linecap="round" stroke-linejoin="round"/>
<path d="M77.1533 27.8587L80.427 31.1323L83.7006 27.8587" stroke="#FFB61C" stroke-width="2.08333" stroke-linecap="round" stroke-linejoin="round"/>
<path d="M93.4414 25.3892H101.775" stroke="#00BAC7" stroke-width="2.08333" stroke-linecap="round" stroke-linejoin="round"/>
<path d="M93.4404 30.9447H97.607" stroke="#00BAC7" stroke-width="2.08333" stroke-linecap="round" stroke-linejoin="round"/>
<path d="M64.7422 14.9736H110V9.41801C110 7.11682 108.134 5.25134 105.833 5.25134H68.9089C66.6077 5.25134 64.7422 7.11682 64.7422 9.41801V14.9736Z" fill="#F63C8F"/>
<circle cx="69.6037" cy="10.1125" r="1.38889" fill="white"/>
<circle cx="73.7697" cy="10.1125" r="1.38889" fill="white"/>
<circle cx="77.9367" cy="10.1125" r="1.38889" fill="white"/>
<circle cx="20" cy="25" r="19.5" stroke="#F53C8E"/>
<path d="M21.8081 31C21.7015 31.04 21.5615 31.0733 21.3881 31.1C21.2148 31.14 21.0281 31.16 20.8281 31.16C20.4415 31.16 20.1548 31.0867 19.9681 30.94C19.7815 30.7933 19.6881 30.54 19.6881 30.18V20.86L17.2881 21.9C17.1015 21.82 16.9415 21.7 16.8081 21.54C16.6748 21.38 16.6081 21.1667 16.6081 20.9C16.6081 20.6333 16.6815 20.42 16.8281 20.26C16.9748 20.0867 17.2081 19.9333 17.5281 19.8L20.1681 18.7H20.6481C20.9948 18.7 21.2748 18.8067 21.4881 19.02C21.7015 19.22 21.8081 19.4933 21.8081 19.84V31Z" fill="#F53C8E"/>
<path d="M20 45V95" stroke="#414383" stroke-width="1.5" stroke-linecap="round" stroke-linejoin="round" stroke-dasharray="2 8"/>
<path d="M20 135V185" stroke="#414383" stroke-width="1.5" stroke-linecap="round" stroke-linejoin="round" stroke-dasharray="2 8"/>
<path d="M60 99.418C60 97.1168 61.8655 95.2513 64.1667 95.2513H76.3033V134.749H64.1667C61.8655 134.749 60 132.883 60 130.582V99.418Z" fill="#444585"/>
<path d="M68.9089 134.749H105.833C108.134 134.749 110 132.883 110 130.582V99.418C110 97.1168 108.134 95.2513 105.833 95.2513H68.9089C66.6077 95.2513 64.7422 97.1168 64.7422 99.418V130.582C64.7422 132.883 66.6077 134.749 68.9089 134.749Z" fill="#00BAC7"/>
<path d="M70.2982 131.276H104.444C105.595 131.276 106.528 130.344 106.528 129.193V99.418C106.528 97.1168 104.662 95.2513 102.361 95.2513H72.3815C70.0803 95.2513 68.2148 97.1168 68.2148 99.418V129.193C68.2148 130.344 69.1476 131.276 70.2982 131.276Z" fill="white"/>
<path d="M64.7422 104.974H110V99.418C110 97.1168 108.134 95.2513 105.833 95.2513H68.9089C66.6077 95.2513 64.7422 97.1168 64.7422 99.418V104.974Z" fill="#F63C8F"/>
<circle cx="69.6037" cy="100.112" r="1.38889" fill="white"/>
<circle cx="73.7697" cy="100.112" r="1.38889" fill="white"/>
<circle cx="77.9367" cy="100.112" r="1.38889" fill="white"/>
<path d="M93.6514 115.227H101.984" stroke="#FFB61C" stroke-width="2.08333" stroke-linecap="round" stroke-linejoin="round"/>
<path d="M93.6523 120.783H97.8189" stroke="#FFB61C" stroke-width="2.08333" stroke-linecap="round" stroke-linejoin="round"/>
<path d="M73.1292 112.816C72.8213 113.011 72.5643 113.276 72.3793 113.59C72.1943 113.904 72.0867 114.257 72.0654 114.621V121.584C72.0867 121.948 72.1943 122.301 72.3793 122.615C72.5643 122.929 72.8213 123.194 73.1292 123.389L79.3766 126.884C79.7078 127.046 80.0716 127.13 80.4404 127.13C80.8092 127.13 81.1731 127.046 81.5042 126.884L87.758 123.389C88.0659 123.194 88.323 122.929 88.508 122.615C88.693 122.301 88.8005 121.948 88.8218 121.584V114.621C88.8005 114.257 88.693 113.904 88.508 113.59C88.323 113.276 88.0659 113.011 87.758 112.816L81.5107 109.321C81.1795 109.159 80.8156 109.075 80.4469 109.075C80.0781 109.075 79.7142 109.159 79.3831 109.321L73.1292 112.816Z" fill="#14BF96"/>
<path d="M86.8624 116.375C83.3937 116.375 80.8019 119.25 80.8019 122.777V122.925H80.1056V122.777C80.1056 119.25 77.5267 116.388 74.0323 116.375C74.0323 116.594 74.0323 116.819 74.0323 117.019C74.0254 118.322 74.417 119.596 75.1545 120.67C75.892 121.744 76.9402 122.567 78.1586 123.028C78.9 123.3 79.6834 123.44 80.4731 123.441C81.2691 123.44 82.0589 123.3 82.807 123.028C84.0237 122.565 85.07 121.741 85.8062 120.668C86.5423 119.594 86.9333 118.321 86.9268 117.019C86.8946 116.813 86.8817 116.594 86.8624 116.375Z" fill="white"/>
<path d="M80.4469 116.645C81.5151 116.645 82.381 115.779 82.381 114.711C82.381 113.643 81.5151 112.777 80.4469 112.777C79.3787 112.777 78.5127 113.643 78.5127 114.711C78.5127 115.779 79.3787 116.645 80.4469 116.645Z" fill="white"/>
<circle cx="20" cy="115" r="19.5" stroke="#FEB61C"/>
<path d="M16.0428 110.24C16.0428 110.013 16.1295 109.8 16.3028 109.6C16.4761 109.4 16.7161 109.227 17.0228 109.08C17.3428 108.92 17.7095 108.8 18.1228 108.72C18.5495 108.627 19.0095 108.58 19.5028 108.58C20.8761 108.58 21.9361 108.907 22.6828 109.56C23.4295 110.213 23.8028 111.067 23.8028 112.12C23.8028 112.853 23.6028 113.567 23.2028 114.26C22.8028 114.953 22.1295 115.72 21.1828 116.56L18.1028 119.32H23.7228C23.7895 119.4 23.8428 119.513 23.8828 119.66C23.9361 119.807 23.9628 119.967 23.9628 120.14C23.9628 120.42 23.8895 120.633 23.7428 120.78C23.6095 120.927 23.4295 121 23.2028 121H16.1828C15.8095 120.747 15.6228 120.38 15.6228 119.9C15.6228 119.633 15.6761 119.393 15.7828 119.18C15.8895 118.967 16.0361 118.78 16.2228 118.62L19.5828 115.46C19.9695 115.1 20.2961 114.773 20.5628 114.48C20.8295 114.187 21.0428 113.913 21.2028 113.66C21.3628 113.407 21.4761 113.167 21.5428 112.94C21.6095 112.7 21.6428 112.453 21.6428 112.2C21.6428 111.64 21.4428 111.187 21.0428 110.84C20.6561 110.493 20.0828 110.32 19.3228 110.32C18.7361 110.32 18.2161 110.413 17.7628 110.6C17.3228 110.787 16.9561 110.993 16.6628 111.22C16.4895 111.127 16.3428 111 16.2228 110.84C16.1028 110.667 16.0428 110.467 16.0428 110.24Z" fill="#FEB61C"/>
<circle cx="20" cy="205" r="19.5" stroke="#01B7C3"/>
<path d="M19.3321 198.56C20.6788 198.56 21.7454 198.853 22.5321 199.44C23.3188 200.013 23.7121 200.847 23.7121 201.94C23.7121 202.327 23.6521 202.673 23.5321 202.98C23.4121 203.273 23.2588 203.533 23.0721 203.76C22.8854 203.973 22.6788 204.153 22.4521 204.3C22.2388 204.447 22.0321 204.547 21.8321 204.6C22.0988 204.693 22.3654 204.82 22.6321 204.98C22.8988 205.14 23.1321 205.347 23.3321 205.6C23.5454 205.853 23.7188 206.147 23.8521 206.48C23.9854 206.813 24.0521 207.193 24.0521 207.62C24.0521 208.207 23.9388 208.727 23.7121 209.18C23.4854 209.633 23.1654 210.013 22.7521 210.32C22.3388 210.627 21.8454 210.853 21.2721 211C20.6988 211.16 20.0721 211.24 19.3921 211.24C18.8054 211.24 18.2721 211.193 17.7921 211.1C17.3121 211.007 16.8988 210.887 16.5521 210.74C16.2188 210.58 15.9588 210.4 15.7721 210.2C15.5988 209.987 15.5121 209.767 15.5121 209.54C15.5121 209.3 15.5721 209.1 15.6921 208.94C15.8121 208.767 15.9654 208.627 16.1521 208.52C16.4721 208.76 16.8721 208.987 17.3521 209.2C17.8454 209.413 18.4854 209.52 19.2721 209.52C20.0988 209.52 20.7521 209.353 21.2321 209.02C21.7121 208.673 21.9521 208.167 21.9521 207.5C21.9521 206.9 21.7321 206.427 21.2921 206.08C20.8654 205.72 20.2121 205.54 19.3321 205.54H17.6121C17.5454 205.447 17.4854 205.327 17.4321 205.18C17.3921 205.02 17.3721 204.853 17.3721 204.68C17.3721 204.493 17.3921 204.327 17.4321 204.18C17.4854 204.033 17.5454 203.913 17.6121 203.82H19.2321C20.0854 203.82 20.6921 203.667 21.0521 203.36C21.4254 203.04 21.6121 202.607 21.6121 202.06C21.6121 201.5 21.3988 201.067 20.9721 200.76C20.5454 200.453 19.9454 200.3 19.1721 200.3C18.5454 200.3 17.9988 200.387 17.5321 200.56C17.0788 200.733 16.6988 200.927 16.3921 201.14C16.2321 201.047 16.0921 200.92 15.9721 200.76C15.8521 200.6 15.7921 200.407 15.7921 200.18C15.7921 199.953 15.8788 199.747 16.0521 199.56C16.2388 199.36 16.4854 199.187 16.7921 199.04C17.1121 198.893 17.4854 198.78 17.9121 198.7C18.3521 198.607 18.8254 198.56 19.3321 198.56Z" fill="#01B7C3"/>
<path d="M60 189.418C60 187.117 61.8655 185.251 64.1667 185.251H76.3033V224.749H64.1667C61.8655 224.749 60 222.883 60 220.582V189.418Z" fill="#444585"/>
<path d="M68.9089 224.749H105.833C108.134 224.749 110 222.883 110 220.582V189.418C110 187.117 108.134 185.251 105.833 185.251H68.9089C66.6077 185.251 64.7422 187.117 64.7422 189.418V220.582C64.7422 222.883 66.6077 224.749 68.9089 224.749Z" fill="#00BAC7"/>
<path d="M70.2982 221.276H104.444C105.595 221.276 106.528 220.344 106.528 219.193V189.418C106.528 187.117 104.662 185.251 102.361 185.251H72.3815C70.0803 185.251 68.2148 187.117 68.2148 189.418V219.193C68.2148 220.344 69.1476 221.276 70.2982 221.276Z" fill="white"/>
<path d="M94.1855 205.389H102.519" stroke="#00BAC7" stroke-width="2.08333" stroke-linecap="round" stroke-linejoin="round"/>
<path d="M94.1836 210.945H98.3501" stroke="#00BAC7" stroke-width="2.08333" stroke-linecap="round" stroke-linejoin="round"/>
<path d="M72.3809 202.611C72.3809 201.076 73.6245 199.833 75.1586 199.833H86.2697C87.8039 199.833 89.0475 201.076 89.0475 202.611V213.722C89.0475 215.256 87.8039 216.499 86.2697 216.499H75.1586C73.6245 216.499 72.3809 215.256 72.3809 213.722V202.611Z" stroke="#FFB61C" stroke-width="1.38889"/>
<path d="M78.3066 205.488V210.844C78.3066 211.394 78.856 211.668 79.268 211.394L83.9376 208.784C84.3496 208.51 84.3496 207.823 83.9376 207.548L79.268 204.939C78.856 204.664 78.3066 204.939 78.3066 205.488Z" fill="#FFB61C"/>
<path d="M64.7422 194.974H110V189.418C110 187.117 108.134 185.251 105.833 185.251H68.9089C66.6077 185.251 64.7422 187.117 64.7422 189.418V194.974Z" fill="#F63C8F"/>
<circle cx="69.6037" cy="190.112" r="1.38889" fill="white"/>
<circle cx="73.7697" cy="190.112" r="1.38889" fill="white"/>
<circle cx="77.9367" cy="190.112" r="1.38889" fill="white"/>
<path d="M131.39 189.774C131.498 189.714 131.636 189.666 131.804 189.63C131.984 189.582 132.176 189.558 132.38 189.558C133.04 189.558 133.436 189.75 133.568 190.134C133.76 190.746 133.94 191.316 134.108 191.844C134.288 192.372 134.456 192.888 134.612 193.392C134.768 193.884 134.918 194.37 135.062 194.85C135.218 195.33 135.368 195.828 135.512 196.344H135.602C135.758 195.552 135.902 194.784 136.034 194.04C136.178 193.296 136.316 192.552 136.448 191.808C136.592 191.064 136.724 190.314 136.844 189.558C136.964 188.79 137.084 187.992 137.204 187.164C137.432 187.032 137.708 186.966 138.032 186.966C138.32 186.966 138.554 187.032 138.734 187.164C138.926 187.284 139.022 187.482 139.022 187.758C139.022 187.998 138.986 188.358 138.914 188.838C138.854 189.306 138.77 189.846 138.662 190.458C138.566 191.058 138.446 191.7 138.302 192.384C138.158 193.068 138.008 193.74 137.852 194.4C137.696 195.06 137.534 195.684 137.366 196.272C137.21 196.848 137.06 197.334 136.916 197.73C136.784 197.826 136.598 197.91 136.358 197.982C136.13 198.042 135.878 198.072 135.602 198.072C135.254 198.072 134.96 198.024 134.72 197.928C134.48 197.82 134.33 197.676 134.27 197.496C134.162 197.208 134.03 196.854 133.874 196.434C133.73 196.002 133.574 195.54 133.406 195.048C133.25 194.544 133.088 194.016 132.92 193.464C132.764 192.912 132.608 192.36 132.452 191.808C132.308 192.348 132.152 192.906 131.984 193.482C131.816 194.046 131.648 194.592 131.48 195.12C131.324 195.648 131.168 196.14 131.012 196.596C130.868 197.052 130.736 197.436 130.616 197.748C130.496 197.832 130.322 197.91 130.094 197.982C129.878 198.042 129.632 198.072 129.356 198.072C129.008 198.072 128.708 198.018 128.456 197.91C128.216 197.802 128.06 197.664 127.988 197.496C127.88 197.256 127.76 196.908 127.628 196.452C127.496 195.996 127.352 195.48 127.196 194.904C127.052 194.316 126.902 193.692 126.746 193.032C126.59 192.36 126.44 191.694 126.296 191.034C126.164 190.362 126.038 189.714 125.918 189.09C125.798 188.466 125.702 187.902 125.63 187.398C125.738 187.29 125.882 187.194 126.062 187.11C126.254 187.014 126.458 186.966 126.674 186.966C127.238 186.966 127.574 187.248 127.682 187.812C127.838 188.664 127.988 189.456 128.132 190.188C128.276 190.92 128.414 191.628 128.546 192.312C128.678 192.984 128.81 193.65 128.942 194.31C129.074 194.97 129.218 195.648 129.374 196.344H129.446C129.602 195.816 129.746 195.324 129.878 194.868C130.022 194.4 130.166 193.92 130.31 193.428C130.466 192.924 130.628 192.384 130.796 191.808C130.976 191.22 131.174 190.542 131.39 189.774ZM144.158 196.794C144.578 196.794 144.944 196.752 145.256 196.668C145.568 196.584 145.79 196.494 145.922 196.398V194.112L143.96 194.31C143.408 194.37 142.994 194.496 142.718 194.688C142.442 194.868 142.304 195.15 142.304 195.534C142.304 195.93 142.454 196.242 142.754 196.47C143.054 196.686 143.522 196.794 144.158 196.794ZM144.122 189.324C145.238 189.324 146.126 189.57 146.786 190.062C147.446 190.542 147.776 191.304 147.776 192.348V196.542C147.776 196.818 147.71 197.034 147.578 197.19C147.458 197.334 147.29 197.472 147.074 197.604C146.762 197.784 146.36 197.94 145.868 198.072C145.376 198.204 144.806 198.27 144.158 198.27C142.994 198.27 142.082 198.042 141.422 197.586C140.774 197.13 140.45 196.458 140.45 195.57C140.45 194.778 140.702 194.172 141.206 193.752C141.722 193.332 142.46 193.074 143.42 192.978L145.922 192.726V192.33C145.922 191.802 145.748 191.418 145.4 191.178C145.064 190.938 144.59 190.818 143.978 190.818C143.498 190.818 143.036 190.884 142.592 191.016C142.148 191.148 141.752 191.298 141.404 191.466C141.284 191.37 141.182 191.256 141.098 191.124C141.014 190.98 140.972 190.824 140.972 190.656C140.972 190.452 141.02 190.284 141.116 190.152C141.224 190.02 141.386 189.906 141.602 189.81C141.938 189.642 142.322 189.522 142.754 189.45C143.186 189.366 143.642 189.324 144.122 189.324ZM152.073 195.534C152.073 195.966 152.199 196.272 152.451 196.452C152.703 196.632 153.057 196.722 153.513 196.722C153.717 196.722 153.933 196.692 154.161 196.632C154.389 196.572 154.587 196.5 154.755 196.416C154.839 196.512 154.911 196.62 154.971 196.74C155.043 196.86 155.079 197.004 155.079 197.172C155.079 197.484 154.917 197.742 154.593 197.946C154.281 198.15 153.801 198.252 153.153 198.252C152.253 198.252 151.533 198.054 150.993 197.658C150.465 197.25 150.201 196.584 150.201 195.66V187.254C150.285 187.23 150.405 187.2 150.561 187.164C150.717 187.128 150.885 187.11 151.065 187.11C151.413 187.11 151.665 187.176 151.821 187.308C151.989 187.44 152.073 187.662 152.073 187.974V189.756H154.863C154.911 189.828 154.953 189.93 154.989 190.062C155.037 190.194 155.061 190.332 155.061 190.476C155.061 190.992 154.839 191.25 154.395 191.25H152.073V195.534ZM160.933 190.854C160.549 190.854 160.195 190.92 159.871 191.052C159.547 191.172 159.265 191.358 159.025 191.61C158.797 191.862 158.611 192.174 158.467 192.546C158.335 192.906 158.269 193.326 158.269 193.806C158.269 194.754 158.515 195.48 159.007 195.984C159.499 196.476 160.141 196.722 160.933 196.722C161.389 196.722 161.779 196.662 162.103 196.542C162.427 196.422 162.709 196.278 162.949 196.11C163.105 196.206 163.231 196.32 163.327 196.452C163.423 196.584 163.471 196.746 163.471 196.938C163.471 197.31 163.225 197.622 162.733 197.874C162.253 198.126 161.617 198.252 160.825 198.252C160.165 198.252 159.559 198.162 159.007 197.982C158.467 197.802 157.999 197.526 157.603 197.154C157.207 196.782 156.895 196.32 156.667 195.768C156.451 195.204 156.343 194.55 156.343 193.806C156.343 193.062 156.457 192.408 156.685 191.844C156.925 191.28 157.243 190.812 157.639 190.44C158.047 190.068 158.521 189.792 159.061 189.612C159.601 189.42 160.171 189.324 160.771 189.324C161.167 189.324 161.521 189.36 161.833 189.432C162.157 189.504 162.433 189.606 162.661 189.738C162.889 189.858 163.063 190.002 163.183 190.17C163.315 190.326 163.381 190.494 163.381 190.674C163.381 190.842 163.333 190.998 163.237 191.142C163.153 191.274 163.045 191.376 162.913 191.448C162.661 191.292 162.379 191.154 162.067 191.034C161.767 190.914 161.389 190.854 160.933 190.854ZM171.183 192.744C171.183 192.084 171.003 191.604 170.643 191.304C170.295 190.992 169.833 190.836 169.257 190.836C168.873 190.836 168.519 190.902 168.195 191.034C167.883 191.154 167.607 191.304 167.367 191.484V197.964C167.283 198 167.163 198.03 167.007 198.054C166.863 198.09 166.701 198.108 166.521 198.108C166.173 198.108 165.915 198.042 165.747 197.91C165.579 197.778 165.495 197.556 165.495 197.244V186.318C165.579 186.294 165.699 186.264 165.855 186.228C166.011 186.192 166.179 186.174 166.359 186.174C166.707 186.174 166.959 186.24 167.115 186.372C167.283 186.504 167.367 186.726 167.367 187.038V189.882C167.643 189.738 167.961 189.612 168.321 189.504C168.693 189.384 169.107 189.324 169.563 189.324C170.607 189.324 171.447 189.6 172.083 190.152C172.731 190.704 173.055 191.544 173.055 192.672V197.964C172.971 198 172.851 198.03 172.695 198.054C172.539 198.09 172.377 198.108 172.209 198.108C171.849 198.108 171.585 198.042 171.417 197.91C171.261 197.778 171.183 197.556 171.183 197.244V192.744ZM181.025 195.534C181.025 195.966 181.151 196.272 181.403 196.452C181.655 196.632 182.009 196.722 182.465 196.722C182.669 196.722 182.885 196.692 183.113 196.632C183.341 196.572 183.539 196.5 183.707 196.416C183.791 196.512 183.863 196.62 183.923 196.74C183.995 196.86 184.031 197.004 184.031 197.172C184.031 197.484 183.869 197.742 183.545 197.946C183.233 198.15 182.753 198.252 182.105 198.252C181.205 198.252 180.485 198.054 179.945 197.658C179.417 197.25 179.153 196.584 179.153 195.66V187.254C179.237 187.23 179.357 187.2 179.513 187.164C179.669 187.128 179.837 187.11 180.017 187.11C180.365 187.11 180.617 187.176 180.773 187.308C180.941 187.44 181.025 187.662 181.025 187.974V189.756H183.815C183.863 189.828 183.905 189.93 183.941 190.062C183.989 190.194 184.013 190.332 184.013 190.476C184.013 190.992 183.791 191.25 183.347 191.25H181.025V195.534ZM191.679 192.744C191.679 192.084 191.499 191.604 191.139 191.304C190.791 190.992 190.329 190.836 189.753 190.836C189.369 190.836 189.015 190.902 188.691 191.034C188.379 191.154 188.103 191.304 187.863 191.484V197.964C187.779 198 187.659 198.03 187.503 198.054C187.359 198.09 187.197 198.108 187.017 198.108C186.669 198.108 186.411 198.042 186.243 197.91C186.075 197.778 185.991 197.556 185.991 197.244V186.318C186.075 186.294 186.195 186.264 186.351 186.228C186.507 186.192 186.675 186.174 186.855 186.174C187.203 186.174 187.455 186.24 187.611 186.372C187.779 186.504 187.863 186.726 187.863 187.038V189.882C188.139 189.738 188.457 189.612 188.817 189.504C189.189 189.384 189.603 189.324 190.059 189.324C191.103 189.324 191.943 189.6 192.579 190.152C193.227 190.704 193.551 191.544 193.551 192.672V197.964C193.467 198 193.347 198.03 193.191 198.054C193.035 198.09 192.873 198.108 192.705 198.108C192.345 198.108 192.081 198.042 191.913 197.91C191.757 197.778 191.679 197.556 191.679 197.244V192.744ZM197.485 194.742C197.653 195.426 197.977 195.936 198.457 196.272C198.949 196.596 199.573 196.758 200.329 196.758C200.833 196.758 201.295 196.68 201.715 196.524C202.135 196.368 202.471 196.2 202.723 196.02C203.059 196.212 203.227 196.482 203.227 196.83C203.227 197.034 203.149 197.226 202.993 197.406C202.837 197.574 202.621 197.724 202.345 197.856C202.081 197.976 201.763 198.072 201.391 198.144C201.031 198.216 200.641 198.252 200.221 198.252C199.525 198.252 198.889 198.156 198.313 197.964C197.749 197.772 197.263 197.484 196.855 197.1C196.447 196.716 196.129 196.242 195.901 195.678C195.685 195.114 195.577 194.46 195.577 193.716C195.577 192.996 195.685 192.366 195.901 191.826C196.117 191.274 196.411 190.818 196.783 190.458C197.155 190.086 197.593 189.804 198.097 189.612C198.601 189.42 199.141 189.324 199.717 189.324C200.293 189.324 200.815 189.42 201.283 189.612C201.763 189.792 202.171 190.05 202.507 190.386C202.855 190.71 203.119 191.1 203.299 191.556C203.491 192.012 203.587 192.51 203.587 193.05C203.587 193.35 203.515 193.572 203.371 193.716C203.227 193.848 203.017 193.938 202.741 193.986L197.485 194.742ZM199.717 190.782C199.057 190.782 198.505 191.004 198.061 191.448C197.629 191.892 197.401 192.528 197.377 193.356L201.805 192.726C201.757 192.186 201.559 191.73 201.211 191.358C200.863 190.974 200.365 190.782 199.717 190.782ZM211.301 194.238V197.964C211.205 198 211.079 198.03 210.923 198.054C210.767 198.09 210.593 198.108 210.401 198.108C210.029 198.108 209.759 198.042 209.591 197.91C209.435 197.766 209.357 197.532 209.357 197.208V187.92C209.357 187.716 209.411 187.56 209.519 187.452C209.639 187.332 209.801 187.242 210.005 187.182C210.377 187.05 210.821 186.96 211.337 186.912C211.853 186.864 212.339 186.84 212.795 186.84C214.355 186.84 215.507 187.17 216.251 187.83C217.007 188.49 217.385 189.384 217.385 190.512C217.385 191.64 217.007 192.546 216.251 193.23C215.507 193.902 214.391 194.238 212.903 194.238H211.301ZM212.777 192.672C213.605 192.672 214.253 192.492 214.721 192.132C215.201 191.772 215.441 191.232 215.441 190.512C215.441 189.792 215.213 189.264 214.757 188.928C214.313 188.592 213.671 188.424 212.831 188.424C212.555 188.424 212.279 188.436 212.003 188.46C211.739 188.484 211.499 188.514 211.283 188.55V192.672H212.777ZM219.406 189.594C219.49 189.57 219.61 189.546 219.766 189.522C219.922 189.486 220.09 189.468 220.27 189.468C220.618 189.468 220.87 189.534 221.026 189.666C221.194 189.798 221.278 190.026 221.278 190.35V194.796C221.278 195.492 221.458 195.99 221.818 196.29C222.19 196.578 222.7 196.722 223.348 196.722C223.768 196.722 224.122 196.68 224.41 196.596C224.698 196.512 224.926 196.422 225.094 196.326V189.594C225.19 189.57 225.31 189.546 225.454 189.522C225.61 189.486 225.778 189.468 225.958 189.468C226.306 189.468 226.564 189.534 226.732 189.666C226.9 189.798 226.984 190.026 226.984 190.35V196.416C226.984 196.68 226.942 196.896 226.858 197.064C226.774 197.232 226.606 197.394 226.354 197.55C226.042 197.73 225.628 197.892 225.112 198.036C224.608 198.18 224.014 198.252 223.33 198.252C222.094 198.252 221.128 197.982 220.432 197.442C219.748 196.89 219.406 196.02 219.406 194.832V189.594ZM229.353 198C229.101 197.784 228.975 197.508 228.975 197.172C228.975 197.004 229.011 196.842 229.083 196.686C229.167 196.518 229.263 196.368 229.371 196.236L233.547 191.088H229.281C229.233 191.004 229.185 190.896 229.137 190.764C229.089 190.632 229.065 190.488 229.065 190.332C229.065 190.068 229.125 189.876 229.245 189.756C229.377 189.636 229.545 189.576 229.749 189.576H235.473C235.737 189.78 235.869 190.062 235.869 190.422C235.869 190.59 235.833 190.752 235.761 190.908C235.689 191.052 235.593 191.196 235.473 191.34L231.315 196.506H235.833C235.881 196.578 235.923 196.68 235.959 196.812C236.007 196.944 236.031 197.088 236.031 197.244C236.031 197.508 235.965 197.7 235.833 197.82C235.713 197.94 235.551 198 235.347 198H229.353ZM237.843 198C237.591 197.784 237.465 197.508 237.465 197.172C237.465 197.004 237.501 196.842 237.573 196.686C237.657 196.518 237.753 196.368 237.861 196.236L242.037 191.088H237.771C237.723 191.004 237.675 190.896 237.627 190.764C237.579 190.632 237.555 190.488 237.555 190.332C237.555 190.068 237.615 189.876 237.735 189.756C237.867 189.636 238.035 189.576 238.239 189.576H243.963C244.227 189.78 244.359 190.062 244.359 190.422C244.359 190.59 244.323 190.752 244.251 190.908C244.179 191.052 244.083 191.196 243.963 191.34L239.805 196.506H244.323C244.371 196.578 244.413 196.68 244.449 196.812C244.497 196.944 244.521 197.088 244.521 197.244C244.521 197.508 244.455 197.7 244.323 197.82C244.203 197.94 244.041 198 243.837 198H237.843ZM248.403 197.964C248.319 198 248.199 198.03 248.043 198.054C247.899 198.09 247.731 198.108 247.539 198.108C247.191 198.108 246.933 198.042 246.765 197.91C246.597 197.778 246.513 197.556 246.513 197.244V189.63C246.609 189.606 246.729 189.576 246.873 189.54C247.029 189.504 247.203 189.486 247.395 189.486C247.743 189.486 247.995 189.552 248.151 189.684C248.319 189.816 248.403 190.044 248.403 190.368V197.964ZM246.315 186.984C246.315 186.672 246.423 186.414 246.639 186.21C246.855 185.994 247.131 185.886 247.467 185.886C247.803 185.886 248.073 185.994 248.277 186.21C248.481 186.414 248.583 186.672 248.583 186.984C248.583 187.296 248.481 187.56 248.277 187.776C248.073 187.98 247.803 188.082 247.467 188.082C247.131 188.082 246.855 187.98 246.639 187.776C246.423 187.56 246.315 187.296 246.315 186.984ZM255.116 190.854C254.732 190.854 254.378 190.92 254.054 191.052C253.73 191.172 253.448 191.358 253.208 191.61C252.98 191.862 252.794 192.174 252.65 192.546C252.518 192.906 252.452 193.326 252.452 193.806C252.452 194.754 252.698 195.48 253.19 195.984C253.682 196.476 254.324 196.722 255.116 196.722C255.572 196.722 255.962 196.662 256.286 196.542C256.61 196.422 256.892 196.278 257.132 196.11C257.288 196.206 257.414 196.32 257.51 196.452C257.606 196.584 257.654 196.746 257.654 196.938C257.654 197.31 257.408 197.622 256.916 197.874C256.436 198.126 255.8 198.252 255.008 198.252C254.348 198.252 253.742 198.162 253.19 197.982C252.65 197.802 252.182 197.526 251.786 197.154C251.39 196.782 251.078 196.32 250.85 195.768C250.634 195.204 250.526 194.55 250.526 193.806C250.526 193.062 250.64 192.408 250.868 191.844C251.108 191.28 251.426 190.812 251.822 190.44C252.23 190.068 252.704 189.792 253.244 189.612C253.784 189.42 254.354 189.324 254.954 189.324C255.35 189.324 255.704 189.36 256.016 189.432C256.34 189.504 256.616 189.606 256.844 189.738C257.072 189.858 257.246 190.002 257.366 190.17C257.498 190.326 257.564 190.494 257.564 190.674C257.564 190.842 257.516 190.998 257.42 191.142C257.336 191.274 257.228 191.376 257.096 191.448C256.844 191.292 256.562 191.154 256.25 191.034C255.95 190.914 255.572 190.854 255.116 190.854ZM260.794 198.108C260.446 198.108 260.188 198.042 260.02 197.91C259.852 197.778 259.768 197.556 259.768 197.244V186.318C259.852 186.294 259.972 186.264 260.128 186.228C260.284 186.192 260.452 186.174 260.632 186.174C260.98 186.174 261.238 186.24 261.406 186.372C261.574 186.504 261.658 186.726 261.658 187.038V197.964C261.562 198 261.436 198.03 261.28 198.054C261.136 198.09 260.974 198.108 260.794 198.108ZM265.706 194.742C265.874 195.426 266.198 195.936 266.678 196.272C267.17 196.596 267.794 196.758 268.55 196.758C269.054 196.758 269.516 196.68 269.936 196.524C270.356 196.368 270.692 196.2 270.944 196.02C271.28 196.212 271.448 196.482 271.448 196.83C271.448 197.034 271.37 197.226 271.214 197.406C271.058 197.574 270.842 197.724 270.566 197.856C270.302 197.976 269.984 198.072 269.612 198.144C269.252 198.216 268.862 198.252 268.442 198.252C267.746 198.252 267.11 198.156 266.534 197.964C265.97 197.772 265.484 197.484 265.076 197.1C264.668 196.716 264.35 196.242 264.122 195.678C263.906 195.114 263.798 194.46 263.798 193.716C263.798 192.996 263.906 192.366 264.122 191.826C264.338 191.274 264.632 190.818 265.004 190.458C265.376 190.086 265.814 189.804 266.318 189.612C266.822 189.42 267.362 189.324 267.938 189.324C268.514 189.324 269.036 189.42 269.504 189.612C269.984 189.792 270.392 190.05 270.728 190.386C271.076 190.71 271.34 191.1 271.52 191.556C271.712 192.012 271.808 192.51 271.808 193.05C271.808 193.35 271.736 193.572 271.592 193.716C271.448 193.848 271.238 193.938 270.962 193.986L265.706 194.742ZM267.938 190.782C267.278 190.782 266.726 191.004 266.282 191.448C265.85 191.892 265.622 192.528 265.598 193.356L270.026 192.726C269.978 192.186 269.78 191.73 269.432 191.358C269.084 190.974 268.586 190.782 267.938 190.782ZM127.394 222.108C127.046 222.108 126.788 222.042 126.62 221.91C126.452 221.778 126.368 221.556 126.368 221.244V210.318C126.452 210.294 126.572 210.264 126.728 210.228C126.884 210.192 127.052 210.174 127.232 210.174C127.58 210.174 127.838 210.24 128.006 210.372C128.174 210.504 128.258 210.726 128.258 211.038V221.964C128.162 222 128.036 222.03 127.88 222.054C127.736 222.09 127.574 222.108 127.394 222.108ZM132.305 218.742C132.473 219.426 132.797 219.936 133.277 220.272C133.769 220.596 134.393 220.758 135.149 220.758C135.653 220.758 136.115 220.68 136.535 220.524C136.955 220.368 137.291 220.2 137.543 220.02C137.879 220.212 138.047 220.482 138.047 220.83C138.047 221.034 137.969 221.226 137.813 221.406C137.657 221.574 137.441 221.724 137.165 221.856C136.901 221.976 136.583 222.072 136.211 222.144C135.851 222.216 135.461 222.252 135.041 222.252C134.345 222.252 133.709 222.156 133.133 221.964C132.569 221.772 132.083 221.484 131.675 221.1C131.267 220.716 130.949 220.242 130.721 219.678C130.505 219.114 130.397 218.46 130.397 217.716C130.397 216.996 130.505 216.366 130.721 215.826C130.937 215.274 131.231 214.818 131.603 214.458C131.975 214.086 132.413 213.804 132.917 213.612C133.421 213.42 133.961 213.324 134.537 213.324C135.113 213.324 135.635 213.42 136.103 213.612C136.583 213.792 136.991 214.05 137.327 214.386C137.675 214.71 137.939 215.1 138.119 215.556C138.311 216.012 138.407 216.51 138.407 217.05C138.407 217.35 138.335 217.572 138.191 217.716C138.047 217.848 137.837 217.938 137.561 217.986L132.305 218.742ZM134.537 214.782C133.877 214.782 133.325 215.004 132.881 215.448C132.449 215.892 132.221 216.528 132.197 217.356L136.625 216.726C136.577 216.186 136.379 215.73 136.031 215.358C135.683 214.974 135.185 214.782 134.537 214.782ZM146.692 219.678C146.692 220.482 146.392 221.112 145.792 221.568C145.192 222.024 144.322 222.252 143.182 222.252C142.714 222.252 142.282 222.216 141.886 222.144C141.49 222.072 141.148 221.97 140.86 221.838C140.584 221.706 140.368 221.55 140.212 221.37C140.056 221.19 139.978 220.992 139.978 220.776C139.978 220.596 140.02 220.428 140.104 220.272C140.2 220.116 140.326 219.99 140.482 219.894C140.818 220.11 141.202 220.308 141.634 220.488C142.066 220.668 142.57 220.758 143.146 220.758C143.686 220.758 144.1 220.668 144.388 220.488C144.676 220.296 144.82 220.026 144.82 219.678C144.82 219.378 144.718 219.138 144.514 218.958C144.322 218.778 144.034 218.64 143.65 218.544L142.426 218.22C141.61 218.004 141.01 217.71 140.626 217.338C140.242 216.966 140.05 216.456 140.05 215.808C140.05 215.46 140.122 215.136 140.266 214.836C140.41 214.524 140.62 214.26 140.896 214.044C141.184 213.816 141.538 213.642 141.958 213.522C142.378 213.39 142.858 213.324 143.398 213.324C143.83 213.324 144.22 213.36 144.568 213.432C144.928 213.492 145.234 213.582 145.486 213.702C145.75 213.81 145.954 213.948 146.098 214.116C146.242 214.284 146.314 214.464 146.314 214.656C146.314 214.848 146.272 215.016 146.188 215.16C146.104 215.292 145.996 215.4 145.864 215.484C145.648 215.352 145.324 215.208 144.892 215.052C144.472 214.896 144.016 214.818 143.524 214.818C143.02 214.818 142.624 214.908 142.336 215.088C142.048 215.256 141.904 215.496 141.904 215.808C141.904 216.048 141.982 216.246 142.138 216.402C142.306 216.558 142.588 216.684 142.984 216.78L144.028 217.05C144.94 217.29 145.612 217.614 146.044 218.022C146.476 218.43 146.692 218.982 146.692 219.678ZM154.954 219.678C154.954 220.482 154.654 221.112 154.054 221.568C153.454 222.024 152.584 222.252 151.444 222.252C150.976 222.252 150.544 222.216 150.148 222.144C149.752 222.072 149.41 221.97 149.122 221.838C148.846 221.706 148.63 221.55 148.474 221.37C148.318 221.19 148.24 220.992 148.24 220.776C148.24 220.596 148.282 220.428 148.366 220.272C148.462 220.116 148.588 219.99 148.744 219.894C149.08 220.11 149.464 220.308 149.896 220.488C150.328 220.668 150.832 220.758 151.408 220.758C151.948 220.758 152.362 220.668 152.65 220.488C152.938 220.296 153.082 220.026 153.082 219.678C153.082 219.378 152.98 219.138 152.776 218.958C152.584 218.778 152.296 218.64 151.912 218.544L150.688 218.22C149.872 218.004 149.272 217.71 148.888 217.338C148.504 216.966 148.312 216.456 148.312 215.808C148.312 215.46 148.384 215.136 148.528 214.836C148.672 214.524 148.882 214.26 149.158 214.044C149.446 213.816 149.8 213.642 150.22 213.522C150.64 213.39 151.12 213.324 151.66 213.324C152.092 213.324 152.482 213.36 152.83 213.432C153.19 213.492 153.496 213.582 153.748 213.702C154.012 213.81 154.216 213.948 154.36 214.116C154.504 214.284 154.576 214.464 154.576 214.656C154.576 214.848 154.534 215.016 154.45 215.16C154.366 215.292 154.258 215.4 154.126 215.484C153.91 215.352 153.586 215.208 153.154 215.052C152.734 214.896 152.278 214.818 151.786 214.818C151.282 214.818 150.886 214.908 150.598 215.088C150.31 215.256 150.166 215.496 150.166 215.808C150.166 216.048 150.244 216.246 150.4 216.402C150.568 216.558 150.85 216.684 151.246 216.78L152.29 217.05C153.202 217.29 153.874 217.614 154.306 218.022C154.738 218.43 154.954 218.982 154.954 219.678ZM165.103 217.788C165.103 218.472 165.001 219.09 164.797 219.642C164.593 220.194 164.305 220.662 163.933 221.046C163.573 221.43 163.129 221.73 162.601 221.946C162.073 222.15 161.485 222.252 160.837 222.252C160.189 222.252 159.601 222.15 159.073 221.946C158.545 221.73 158.095 221.43 157.723 221.046C157.363 220.662 157.081 220.194 156.877 219.642C156.673 219.09 156.571 218.472 156.571 217.788C156.571 217.104 156.673 216.486 156.877 215.934C157.081 215.382 157.369 214.914 157.741 214.53C158.113 214.146 158.563 213.852 159.091 213.648C159.619 213.432 160.201 213.324 160.837 213.324C161.473 213.324 162.055 213.432 162.583 213.648C163.111 213.852 163.561 214.152 163.933 214.548C164.305 214.932 164.593 215.4 164.797 215.952C165.001 216.492 165.103 217.104 165.103 217.788ZM160.837 214.836C160.117 214.836 159.547 215.094 159.127 215.61C158.707 216.126 158.497 216.852 158.497 217.788C158.497 218.724 158.701 219.45 159.109 219.966C159.517 220.47 160.093 220.722 160.837 220.722C161.581 220.722 162.157 220.47 162.565 219.966C162.973 219.45 163.177 218.724 163.177 217.788C163.177 216.864 162.967 216.144 162.547 215.628C162.139 215.1 161.569 214.836 160.837 214.836ZM172.817 216.546C172.817 215.958 172.649 215.526 172.313 215.25C171.989 214.974 171.545 214.836 170.981 214.836C170.561 214.836 170.183 214.89 169.847 214.998C169.523 215.106 169.241 215.226 169.001 215.358V221.964C168.917 222 168.797 222.03 168.641 222.054C168.497 222.09 168.335 222.108 168.155 222.108C167.807 222.108 167.549 222.042 167.381 221.91C167.213 221.778 167.129 221.556 167.129 221.244V215.304C167.129 215.028 167.183 214.806 167.291 214.638C167.399 214.47 167.579 214.302 167.831 214.134C168.167 213.93 168.605 213.744 169.145 213.576C169.685 213.408 170.297 213.324 170.981 213.324C172.145 213.324 173.057 213.588 173.717 214.116C174.377 214.632 174.707 215.418 174.707 216.474V221.964C174.623 222 174.503 222.03 174.347 222.054C174.191 222.09 174.023 222.108 173.843 222.108C173.495 222.108 173.237 222.042 173.069 221.91C172.901 221.778 172.817 221.556 172.817 221.244V216.546ZM183.465 219.678C183.465 220.482 183.165 221.112 182.565 221.568C181.965 222.024 181.095 222.252 179.955 222.252C179.487 222.252 179.055 222.216 178.659 222.144C178.263 222.072 177.921 221.97 177.633 221.838C177.357 221.706 177.141 221.55 176.985 221.37C176.829 221.19 176.751 220.992 176.751 220.776C176.751 220.596 176.793 220.428 176.877 220.272C176.973 220.116 177.099 219.99 177.255 219.894C177.591 220.11 177.975 220.308 178.407 220.488C178.839 220.668 179.343 220.758 179.919 220.758C180.459 220.758 180.873 220.668 181.161 220.488C181.449 220.296 181.593 220.026 181.593 219.678C181.593 219.378 181.491 219.138 181.287 218.958C181.095 218.778 180.807 218.64 180.423 218.544L179.199 218.22C178.383 218.004 177.783 217.71 177.399 217.338C177.015 216.966 176.823 216.456 176.823 215.808C176.823 215.46 176.895 215.136 177.039 214.836C177.183 214.524 177.393 214.26 177.669 214.044C177.957 213.816 178.311 213.642 178.731 213.522C179.151 213.39 179.631 213.324 180.171 213.324C180.603 213.324 180.993 213.36 181.341 213.432C181.701 213.492 182.007 213.582 182.259 213.702C182.523 213.81 182.727 213.948 182.871 214.116C183.015 214.284 183.087 214.464 183.087 214.656C183.087 214.848 183.045 215.016 182.961 215.16C182.877 215.292 182.769 215.4 182.637 215.484C182.421 215.352 182.097 215.208 181.665 215.052C181.245 214.896 180.789 214.818 180.297 214.818C179.793 214.818 179.397 214.908 179.109 215.088C178.821 215.256 178.677 215.496 178.677 215.808C178.677 216.048 178.755 216.246 178.911 216.402C179.079 216.558 179.361 216.684 179.757 216.78L180.801 217.05C181.713 217.29 182.385 217.614 182.817 218.022C183.249 218.43 183.465 218.982 183.465 219.678Z" fill="black"/>
</svg>
