<svg width="110" height="225" viewBox="0 0 110 225" fill="none" xmlns="http://www.w3.org/2000/svg">
<path d="M60 9.41801C60 7.11682 61.8655 5.25134 64.1667 5.25134H76.3033V44.7487H64.1667C61.8655 44.7487 60 42.8832 60 40.582V9.41801Z" fill="#444585"/>
<path d="M68.9089 44.7487H105.833C108.134 44.7487 110 42.8832 110 40.582V9.41801C110 7.11682 108.134 5.25134 105.833 5.25134H68.9089C66.6077 5.25134 64.7422 7.11682 64.7422 9.41801V40.582C64.7422 42.8832 66.6077 44.7487 68.9089 44.7487Z" fill="#00BAC7"/>
<path d="M70.2982 41.2764H104.444C105.595 41.2764 106.528 40.3437 106.528 39.1931V9.41801C106.528 7.11682 104.662 5.25134 102.361 5.25134H72.3815C70.0803 5.25134 68.2148 7.11682 68.2148 9.418V39.1931C68.2148 40.3437 69.1476 41.2764 70.2982 41.2764Z" fill="white"/>
<path d="M73.4824 30.5536V33.0999C73.4824 34.2505 74.4152 35.1833 75.5658 35.1833H85.288C86.4386 35.1833 87.3713 34.2505 87.3713 33.0999V30.5536" stroke="#FFB61C" stroke-width="2.08333" stroke-linecap="round"/>
<path d="M80.4268 21.2944L80.4268 31.1324" stroke="#FFB61C" stroke-width="2.08333" stroke-linecap="round" stroke-linejoin="round"/>
<path d="M77.1533 27.8587L80.427 31.1323L83.7006 27.8587" stroke="#FFB61C" stroke-width="2.08333" stroke-linecap="round" stroke-linejoin="round"/>
<path d="M93.4414 25.3892H101.775" stroke="#00BAC7" stroke-width="2.08333" stroke-linecap="round" stroke-linejoin="round"/>
<path d="M93.4404 30.9447H97.607" stroke="#00BAC7" stroke-width="2.08333" stroke-linecap="round" stroke-linejoin="round"/>
<path d="M64.7422 14.9736H110V9.41801C110 7.11682 108.134 5.25134 105.833 5.25134H68.9089C66.6077 5.25134 64.7422 7.11682 64.7422 9.41801V14.9736Z" fill="#F63C8F"/>
<circle cx="69.6037" cy="10.1125" r="1.38889" fill="white"/>
<circle cx="73.7697" cy="10.1125" r="1.38889" fill="white"/>
<circle cx="77.9367" cy="10.1125" r="1.38889" fill="white"/>
<circle cx="20" cy="25" r="19.5" stroke="#F53C8E"/>
<path d="M21.8081 31C21.7015 31.04 21.5615 31.0733 21.3881 31.1C21.2148 31.14 21.0281 31.16 20.8281 31.16C20.4415 31.16 20.1548 31.0867 19.9681 30.94C19.7815 30.7933 19.6881 30.54 19.6881 30.18V20.86L17.2881 21.9C17.1015 21.82 16.9415 21.7 16.8081 21.54C16.6748 21.38 16.6081 21.1667 16.6081 20.9C16.6081 20.6333 16.6815 20.42 16.8281 20.26C16.9748 20.0867 17.2081 19.9333 17.5281 19.8L20.1681 18.7H20.6481C20.9948 18.7 21.2748 18.8067 21.4881 19.02C21.7015 19.22 21.8081 19.4933 21.8081 19.84V31Z" fill="#F53C8E"/>
<path d="M20 45V95" stroke="#414383" stroke-width="1.5" stroke-linecap="round" stroke-linejoin="round" stroke-dasharray="2 8"/>
<path d="M20 135V185" stroke="#414383" stroke-width="1.5" stroke-linecap="round" stroke-linejoin="round" stroke-dasharray="2 8"/>
<path d="M60 99.418C60 97.1168 61.8655 95.2513 64.1667 95.2513H76.3033V134.749H64.1667C61.8655 134.749 60 132.883 60 130.582V99.418Z" fill="#444585"/>
<path d="M68.9089 134.749H105.833C108.134 134.749 110 132.883 110 130.582V99.418C110 97.1168 108.134 95.2513 105.833 95.2513H68.9089C66.6077 95.2513 64.7422 97.1168 64.7422 99.418V130.582C64.7422 132.883 66.6077 134.749 68.9089 134.749Z" fill="#00BAC7"/>
<path d="M70.2982 131.276H104.444C105.595 131.276 106.528 130.344 106.528 129.193V99.418C106.528 97.1168 104.662 95.2513 102.361 95.2513H72.3815C70.0803 95.2513 68.2148 97.1168 68.2148 99.418V129.193C68.2148 130.344 69.1476 131.276 70.2982 131.276Z" fill="white"/>
<path d="M64.7422 104.974H110V99.418C110 97.1168 108.134 95.2513 105.833 95.2513H68.9089C66.6077 95.2513 64.7422 97.1168 64.7422 99.418V104.974Z" fill="#F63C8F"/>
<circle cx="69.6037" cy="100.112" r="1.38889" fill="white"/>
<circle cx="73.7697" cy="100.112" r="1.38889" fill="white"/>
<circle cx="77.9367" cy="100.112" r="1.38889" fill="white"/>
<path d="M93.6514 115.227H101.984" stroke="#FFB61C" stroke-width="2.08333" stroke-linecap="round" stroke-linejoin="round"/>
<path d="M93.6523 120.783H97.8189" stroke="#FFB61C" stroke-width="2.08333" stroke-linecap="round" stroke-linejoin="round"/>
<path d="M73.1292 112.816C72.8213 113.011 72.5643 113.276 72.3793 113.59C72.1943 113.904 72.0867 114.257 72.0654 114.621V121.584C72.0867 121.948 72.1943 122.301 72.3793 122.615C72.5643 122.929 72.8213 123.194 73.1292 123.389L79.3766 126.884C79.7078 127.046 80.0716 127.13 80.4404 127.13C80.8092 127.13 81.1731 127.046 81.5042 126.884L87.758 123.389C88.0659 123.194 88.323 122.929 88.508 122.615C88.693 122.301 88.8005 121.948 88.8218 121.584V114.621C88.8005 114.257 88.693 113.904 88.508 113.59C88.323 113.276 88.0659 113.011 87.758 112.816L81.5107 109.321C81.1795 109.159 80.8156 109.075 80.4469 109.075C80.0781 109.075 79.7142 109.159 79.3831 109.321L73.1292 112.816Z" fill="#14BF96"/>
<path d="M86.8624 116.375C83.3937 116.375 80.8019 119.25 80.8019 122.777V122.925H80.1056V122.777C80.1056 119.25 77.5267 116.388 74.0323 116.375C74.0323 116.594 74.0323 116.819 74.0323 117.019C74.0254 118.322 74.417 119.596 75.1545 120.67C75.892 121.744 76.9402 122.567 78.1586 123.028C78.9 123.3 79.6834 123.44 80.4731 123.441C81.2691 123.44 82.0589 123.3 82.807 123.028C84.0237 122.565 85.07 121.741 85.8062 120.668C86.5423 119.594 86.9333 118.321 86.9268 117.019C86.8946 116.813 86.8817 116.594 86.8624 116.375Z" fill="white"/>
<path d="M80.4469 116.645C81.5151 116.645 82.381 115.779 82.381 114.711C82.381 113.643 81.5151 112.777 80.4469 112.777C79.3787 112.777 78.5127 113.643 78.5127 114.711C78.5127 115.779 79.3787 116.645 80.4469 116.645Z" fill="white"/>
<circle cx="20" cy="115" r="19.5" stroke="#FEB61C"/>
<path d="M16.0428 110.24C16.0428 110.013 16.1295 109.8 16.3028 109.6C16.4761 109.4 16.7161 109.227 17.0228 109.08C17.3428 108.92 17.7095 108.8 18.1228 108.72C18.5495 108.627 19.0095 108.58 19.5028 108.58C20.8761 108.58 21.9361 108.907 22.6828 109.56C23.4295 110.213 23.8028 111.067 23.8028 112.12C23.8028 112.853 23.6028 113.567 23.2028 114.26C22.8028 114.953 22.1295 115.72 21.1828 116.56L18.1028 119.32H23.7228C23.7895 119.4 23.8428 119.513 23.8828 119.66C23.9361 119.807 23.9628 119.967 23.9628 120.14C23.9628 120.42 23.8895 120.633 23.7428 120.78C23.6095 120.927 23.4295 121 23.2028 121H16.1828C15.8095 120.747 15.6228 120.38 15.6228 119.9C15.6228 119.633 15.6761 119.393 15.7828 119.18C15.8895 118.967 16.0361 118.78 16.2228 118.62L19.5828 115.46C19.9695 115.1 20.2961 114.773 20.5628 114.48C20.8295 114.187 21.0428 113.913 21.2028 113.66C21.3628 113.407 21.4761 113.167 21.5428 112.94C21.6095 112.7 21.6428 112.453 21.6428 112.2C21.6428 111.64 21.4428 111.187 21.0428 110.84C20.6561 110.493 20.0828 110.32 19.3228 110.32C18.7361 110.32 18.2161 110.413 17.7628 110.6C17.3228 110.787 16.9561 110.993 16.6628 111.22C16.4895 111.127 16.3428 111 16.2228 110.84C16.1028 110.667 16.0428 110.467 16.0428 110.24Z" fill="#FEB61C"/>
<circle cx="20" cy="205" r="19.5" stroke="#01B7C3"/>
<path d="M19.3321 198.56C20.6788 198.56 21.7454 198.853 22.5321 199.44C23.3188 200.013 23.7121 200.847 23.7121 201.94C23.7121 202.327 23.6521 202.673 23.5321 202.98C23.4121 203.273 23.2588 203.533 23.0721 203.76C22.8854 203.973 22.6788 204.153 22.4521 204.3C22.2388 204.447 22.0321 204.547 21.8321 204.6C22.0988 204.693 22.3654 204.82 22.6321 204.98C22.8988 205.14 23.1321 205.347 23.3321 205.6C23.5454 205.853 23.7188 206.147 23.8521 206.48C23.9854 206.813 24.0521 207.193 24.0521 207.62C24.0521 208.207 23.9388 208.727 23.7121 209.18C23.4854 209.633 23.1654 210.013 22.7521 210.32C22.3388 210.627 21.8454 210.853 21.2721 211C20.6988 211.16 20.0721 211.24 19.3921 211.24C18.8054 211.24 18.2721 211.193 17.7921 211.1C17.3121 211.007 16.8988 210.887 16.5521 210.74C16.2188 210.58 15.9588 210.4 15.7721 210.2C15.5988 209.987 15.5121 209.767 15.5121 209.54C15.5121 209.3 15.5721 209.1 15.6921 208.94C15.8121 208.767 15.9654 208.627 16.1521 208.52C16.4721 208.76 16.8721 208.987 17.3521 209.2C17.8454 209.413 18.4854 209.52 19.2721 209.52C20.0988 209.52 20.7521 209.353 21.2321 209.02C21.7121 208.673 21.9521 208.167 21.9521 207.5C21.9521 206.9 21.7321 206.427 21.2921 206.08C20.8654 205.72 20.2121 205.54 19.3321 205.54H17.6121C17.5454 205.447 17.4854 205.327 17.4321 205.18C17.3921 205.02 17.3721 204.853 17.3721 204.68C17.3721 204.493 17.3921 204.327 17.4321 204.18C17.4854 204.033 17.5454 203.913 17.6121 203.82H19.2321C20.0854 203.82 20.6921 203.667 21.0521 203.36C21.4254 203.04 21.6121 202.607 21.6121 202.06C21.6121 201.5 21.3988 201.067 20.9721 200.76C20.5454 200.453 19.9454 200.3 19.1721 200.3C18.5454 200.3 17.9988 200.387 17.5321 200.56C17.0788 200.733 16.6988 200.927 16.3921 201.14C16.2321 201.047 16.0921 200.92 15.9721 200.76C15.8521 200.6 15.7921 200.407 15.7921 200.18C15.7921 199.953 15.8788 199.747 16.0521 199.56C16.2388 199.36 16.4854 199.187 16.7921 199.04C17.1121 198.893 17.4854 198.78 17.9121 198.7C18.3521 198.607 18.8254 198.56 19.3321 198.56Z" fill="#01B7C3"/>
<path d="M60 189.418C60 187.117 61.8655 185.251 64.1667 185.251H76.3033V224.749H64.1667C61.8655 224.749 60 222.883 60 220.582V189.418Z" fill="#444585"/>
<path d="M68.9089 224.749H105.833C108.134 224.749 110 222.883 110 220.582V189.418C110 187.117 108.134 185.251 105.833 185.251H68.9089C66.6077 185.251 64.7422 187.117 64.7422 189.418V220.582C64.7422 222.883 66.6077 224.749 68.9089 224.749Z" fill="#00BAC7"/>
<path d="M70.2982 221.276H104.444C105.595 221.276 106.528 220.344 106.528 219.193V189.418C106.528 187.117 104.662 185.251 102.361 185.251H72.3815C70.0803 185.251 68.2148 187.117 68.2148 189.418V219.193C68.2148 220.344 69.1476 221.276 70.2982 221.276Z" fill="white"/>
<path d="M94.1855 205.389H102.519" stroke="#00BAC7" stroke-width="2.08333" stroke-linecap="round" stroke-linejoin="round"/>
<path d="M94.1836 210.945H98.3501" stroke="#00BAC7" stroke-width="2.08333" stroke-linecap="round" stroke-linejoin="round"/>
<path d="M72.3809 202.611C72.3809 201.076 73.6245 199.833 75.1586 199.833H86.2697C87.8039 199.833 89.0475 201.076 89.0475 202.611V213.722C89.0475 215.256 87.8039 216.499 86.2697 216.499H75.1586C73.6245 216.499 72.3809 215.256 72.3809 213.722V202.611Z" stroke="#FFB61C" stroke-width="1.38889"/>
<path d="M78.3066 205.488V210.844C78.3066 211.394 78.856 211.668 79.268 211.394L83.9376 208.784C84.3496 208.51 84.3496 207.823 83.9376 207.548L79.268 204.939C78.856 204.664 78.3066 204.939 78.3066 205.488Z" fill="#FFB61C"/>
<path d="M64.7422 194.974H110V189.418C110 187.117 108.134 185.251 105.833 185.251H68.9089C66.6077 185.251 64.7422 187.117 64.7422 189.418V194.974Z" fill="#F63C8F"/>
<circle cx="69.6037" cy="190.112" r="1.38889" fill="white"/>
<circle cx="73.7697" cy="190.112" r="1.38889" fill="white"/>
<circle cx="77.9367" cy="190.112" r="1.38889" fill="white"/>
</svg>
